<svg width="756" height="756" viewBox="0 0 756 756" fill="none" xmlns="http://www.w3.org/2000/svg">
<path d="M271.566 366.411H284.212V364.801H271.566V366.411Z" fill="white"/>
<mask id="mask0_145_416" style="mask-type:luminance" maskUnits="userSpaceOnUse" x="0" y="0" width="756" height="756">
<path d="M0 755.907H755.905V4.36544e-06H0V755.907Z" fill="white"/>
</mask>
<g mask="url(#mask0_145_416)">
<path d="M278.206 348.908C280.247 348.88 282.287 349.972 282.287 352.099C282.287 354.743 280.189 356.668 278.407 358.335L273.033 363.363H275.477L279.614 359.512C281.655 357.588 284.069 355.375 284.069 352.099C284.069 348.908 281.137 347.271 278.178 347.299C275.275 347.328 272.89 348.505 272.027 351.321L273.723 351.783C274.326 349.771 276.079 348.937 278.206 348.908Z" fill="white"/>
<path d="M293.809 366.784V365.174C290.188 364.714 288.578 360.317 288.578 356.84C288.578 353.506 290.36 349.425 293.809 348.966V347.357C289.182 347.816 286.797 352.788 286.797 356.84C286.797 361.008 288.952 366.353 293.809 366.784Z" fill="white"/>
<path d="M302.258 356.84C302.258 352.817 299.815 347.816 295.246 347.357V348.966C298.637 349.425 300.475 353.536 300.475 356.84C300.475 360.317 298.838 364.714 295.246 365.174V366.784C300.074 366.353 302.258 361.008 302.258 356.84Z" fill="white"/>
<path d="M263.35 356.237H250.705V357.847H263.35V356.237Z" fill="white"/>
<path d="M456.802 366.596H458.583V347.687C457.549 347.772 456.543 347.859 455.451 347.888V349.498C455.882 349.498 456.342 349.468 456.802 349.439V366.596Z" fill="white"/>
<path d="M471.755 366.596H473.536V361.768H476.008V360.159H464.253V360.102L471.697 349.755H471.755V358.722H473.536V347.486H471.208L462.357 359.756V361.768H471.755V366.596Z" fill="white"/>
<path d="M496.87 356.237H484.225V357.847H496.87V356.237Z" fill="white"/>
<path d="M315.356 515.698C315.356 517.259 314.644 517.835 313.128 517.835H310.703V513.348H313.128C314.644 513.348 315.356 513.924 315.356 515.486V515.698ZM313.173 512.44H309.551V523.048H310.703V518.744H313.173C315.463 518.744 316.508 517.804 316.508 515.698V515.486C316.508 513.379 315.463 512.44 313.173 512.44Z" fill="white"/>
<path d="M321.845 519.062L323.527 513.592L325.209 519.062H321.845ZM322.845 512.438L319.586 523.049H320.738L321.678 519.973H325.391L326.331 523.049H327.482L324.223 512.438H322.845Z" fill="white"/>
<path d="M330.105 513.349H332.849V523.049H334V513.349H336.729V512.439H330.105V513.349Z" fill="white"/>
<path d="M341.217 523.049H347.491V522.139H342.369V518.003H347.022V517.092H342.369V513.349H347.491V512.44H341.217V523.049Z" fill="white"/>
<path d="M357.86 521.064L353.131 512.438H351.979V523.048H353.1V514.425L357.815 523.048H358.967V512.438H357.86V521.064Z" fill="white"/>
<path d="M363.332 513.349H366.076V523.049H367.227V513.349H369.956V512.439H363.332V513.349Z" fill="white"/>
<path d="M386.585 520.276C386.585 521.593 385.857 522.139 384.357 522.139H381.933V518.124H384.357C385.857 518.124 386.585 518.685 386.585 520.003V520.276ZM381.933 513.349H384.13C385.569 513.349 386.297 513.971 386.297 515.212V515.349C386.297 516.608 385.569 517.229 384.13 517.229H381.933V513.349ZM385.781 517.653C386.918 517.351 387.447 516.441 387.447 515.273V515.152C387.447 513.349 386.341 512.44 384.145 512.44H380.779V523.048H384.373C386.63 523.048 387.735 522.185 387.735 520.32V520.092C387.735 518.837 387.099 517.897 385.781 517.653Z" fill="white"/>
<path d="M398.544 519.351C398.544 521.261 397.74 522.214 396.119 522.214H395.923C394.3 522.214 393.498 521.261 393.498 519.351V512.438H392.346V519.185C392.346 521.246 393.15 523.125 395.923 523.125H396.134C398.878 523.125 399.695 521.246 399.695 519.185V512.438H398.544V519.351Z" fill="white"/>
<path d="M408.384 517.698H405.959V513.348H408.384C409.899 513.348 410.612 513.924 410.612 515.442V515.608C410.612 517.122 409.899 517.698 408.384 517.698ZM411.764 515.608V515.442C411.764 513.38 410.717 512.44 408.429 512.44H404.807V523.05H405.959V518.608H408.641L410.915 523.05H412.143L409.703 518.411C411.081 518.123 411.764 517.198 411.764 515.608Z" fill="white"/>
<path d="M416.631 523.049H422.904V522.139H417.782V518.003H422.436V517.092H417.782V513.349H422.904V512.44H416.631V523.049Z" fill="white"/>
<path d="M429.029 519.062L430.713 513.592L432.394 519.062H429.029ZM430.029 512.438L426.771 523.049H427.922L428.862 519.973H432.575L433.515 523.049H434.667L431.407 512.438H430.029Z" fill="white"/>
<path d="M445.339 519.351C445.339 521.261 444.535 522.214 442.915 522.214H442.717C441.095 522.214 440.294 521.261 440.294 519.351V512.438H439.141V519.185C439.141 521.246 439.943 523.125 442.717 523.125H442.93C445.673 523.125 446.491 521.246 446.491 519.185V512.438H445.339V519.351Z" fill="white"/>
<path d="M301.123 518.237H304.882V517.328H301.123V518.237Z" fill="white"/>
<path d="M451.025 518.237H454.784V517.328H451.025V518.237Z" fill="white"/>
<path d="M260.112 433.769H257.926V457.321H273.687V455.349H260.112V433.769Z" fill="white"/>
<path d="M276.893 457.321H279.079V433.771H276.893V457.321Z" fill="white"/>
<path d="M322.516 457.321H324.702V436.699L339.721 457.849H341.273V433.771H339.086V453.233H339.016L325.23 433.771H322.621L322.684 433.856L322.516 433.771V457.321Z" fill="white"/>
<path d="M394.203 452.668H391.948L388.387 463.808H390.641L394.203 452.668Z" fill="white"/>
<path d="M429.198 433.242H427.646L423.697 442.723L419.573 433.242H418.022L408.221 457.323H410.547L418.797 436.942H418.867L422.49 445.281L424.805 445.271L428.389 437.013H428.458L436.814 457.323H439.107L429.198 433.242Z" fill="white"/>
<path d="M465.053 433.769H462.865V457.321H478.628V455.349H465.053V433.769Z" fill="white"/>
<path d="M222.635 448.225L230.955 448.229C230.572 449.785 229.794 451.344 228.744 452.558C228.684 452.63 228.616 452.693 228.555 452.761C226.798 454.684 224.318 455.857 221.456 455.876C215.718 455.866 211.459 451.253 211.564 445.194C211.706 439.833 216.254 435.214 221.471 435.214C225.138 435.214 228.347 437.402 230.075 440.538H232.438C230.532 436.308 226.302 433.242 221.471 433.242C215.019 433.242 209.519 438.637 209.378 445.124C209.238 452.31 214.38 457.845 221.391 457.85C221.411 457.853 221.432 457.856 221.454 457.856C223.891 457.856 226.308 457.154 228.314 455.757C230.756 454.056 232.404 451.404 233.13 448.537C233.319 447.788 233.454 447.025 233.495 446.252H222.635V448.225Z" fill="white"/>
<path d="M239.766 449.213L244.528 436.451H244.599L248.654 447.451H248.676L249.334 449.213H239.766ZM251.596 449.213L249.275 443.116L245.551 433.241H243.576L238.183 447.451L237.547 449.213L234.48 457.321H236.807L239.064 451.185H250.064L252.356 457.321H254.683L251.615 449.213H251.596Z" fill="white"/>
<path d="M304.418 449.213L309.153 436.451H309.224L313.949 449.213H304.418ZM316.24 449.213H316.217L310.174 433.241H308.201L299.104 457.321H301.432L303.692 451.185H314.686L316.98 457.321H319.308L316.24 449.213Z" fill="white"/>
<path d="M444.735 449.213L446.393 444.728L449.47 436.451H449.541L453.595 447.451L454.262 449.213H444.735ZM459.625 457.321L457.445 451.56L457.441 451.552L456.557 449.213H456.539L455.525 446.58L450.491 433.241H448.518L443.125 447.451H443.133L439.515 457.075L439.422 457.321H441.749L444.006 451.185H455.006L457.298 457.321H459.625Z" fill="white"/>
<path d="M367.243 443.552C367.367 444.196 367.43 444.855 367.43 445.511C367.43 447.935 366.605 450.329 365.07 452.208C363.586 454.024 361.485 455.299 359.17 455.705C358.927 455.747 358.683 455.781 358.439 455.804C356.009 456.053 353.523 455.425 351.574 453.921C349.738 452.508 348.503 450.439 347.97 448.195C347.734 447.204 347.629 446.179 347.65 445.159C347.701 442.733 348.651 440.375 350.269 438.569C352.191 436.424 354.921 435.176 357.81 435.287C359.965 435.371 362.034 436.136 363.691 437.521C365.521 439.051 366.791 441.211 367.243 443.552ZM358.438 433.327C354.438 433.048 350.419 434.86 347.931 438.137C346.41 440.141 345.522 442.603 345.465 445.123C345.359 449.677 347.553 454.163 351.629 456.371C356.406 458.959 362.573 457.972 366.278 454.019C368.426 451.727 369.617 448.648 369.617 445.511C369.617 440.632 366.525 436.051 362.029 434.175C360.862 433.688 359.651 433.411 358.438 433.327Z" fill="white"/>
<path d="M491.001 444.383C490.681 443.916 490.307 443.371 489.994 442.911L498.757 433.771H495.831L484.089 446.109H484.021V433.771H481.834V457.323H484.021V449.143L488.502 444.468L489.527 445.963L489.521 445.969L497.311 457.323H499.851L491.001 444.383Z" fill="white"/>
<path d="M522.664 445.51C522.664 447.933 521.838 450.328 520.304 452.208C518.82 454.025 516.718 455.298 514.404 455.705C514.161 455.748 513.917 455.78 513.673 455.806C511.244 456.053 508.757 455.426 506.808 453.924C504.972 452.508 503.737 450.437 503.204 448.197C502.969 447.204 502.862 446.177 502.884 445.157C502.934 442.734 503.885 440.373 505.501 438.57C507.424 436.424 510.153 435.174 513.044 435.286C515.198 435.37 517.266 436.136 518.925 437.522C520.754 439.05 522.025 441.209 522.477 443.552C522.601 444.197 522.664 444.854 522.664 445.51ZM517.261 434.173C516.096 433.688 514.885 433.412 513.672 433.325C509.672 433.046 505.652 434.861 503.165 438.138C501.644 440.144 500.756 442.602 500.697 445.124C500.593 449.677 502.786 454.161 506.862 456.372C511.64 458.96 517.805 457.974 521.512 454.02C523.658 451.726 524.85 448.649 524.85 445.51C524.85 440.633 521.757 436.05 517.261 434.173Z" fill="white"/>
<path d="M544.273 433.769L536.478 454.811C536.453 454.741 528.477 433.769 528.477 433.769H526.188L535.354 457.852H537.609L546.529 433.769H544.273Z" fill="white"/>
<path d="M381.249 454.812C381.221 454.74 373.248 433.771 373.248 433.771H370.957L380.122 457.85H382.38L391.298 433.771H389.044L381.249 454.812Z" fill="white"/>
<path d="M319.747 474.051H326.411C329.021 474.051 330.537 475.851 330.537 478.317C330.537 482.231 327.01 483.217 323.873 483.217H319.747V474.051ZM319.747 487.035V485.192H323.873C328.033 485.192 332.722 483.817 332.722 478.317C332.722 474.721 330.395 472.079 326.411 472.079H317.561V483.217V485.535V495.631H319.747V487.035Z" fill="white"/>
<path d="M372.595 478.318C372.595 474.722 370.268 472.076 366.284 472.076H357.258V481.456H359.444V474.051H366.284C368.894 474.051 370.408 475.848 370.408 478.318C370.408 482.232 366.883 483.218 363.746 483.218H357.258V495.628H359.444V485.192H363.746C367.906 485.192 372.595 483.818 372.595 478.318Z" fill="white"/>
<path d="M367.555 486.568L372.068 495.629H374.465L369.635 485.897C368.965 486.18 368.26 486.429 367.555 486.568Z" fill="white"/>
<path d="M382.503 472.077H375.309V474.05H382.503V495.629H384.689V474.05H387.193H391.882V472.077H387.193H382.503Z" fill="white"/>
<path d="M439.545 485.192H443.847C448.007 485.192 452.695 483.818 452.695 478.318C452.695 474.72 450.369 472.076 446.385 472.076H437.357V481.455H439.545V474.052H446.385C448.995 474.052 450.511 475.848 450.511 478.318C450.511 482.23 446.985 483.219 443.847 483.219H437.357V495.628H439.545V485.192Z" fill="white"/>
<path d="M454.566 495.629L449.736 485.897C449.066 486.179 448.361 486.429 447.654 486.567L452.169 495.629H454.566Z" fill="white"/>
<path d="M339.127 487.519L343.862 474.757H343.932L348.658 487.519H339.127ZM350.948 487.519H350.926L344.883 471.547H342.91L333.812 495.629H336.14L338.4 489.493H349.395L351.688 495.629H354.016L350.948 487.519Z" fill="white"/>
<path d="M411.799 491.539H411.729L397.943 472.076H395.334L395.397 472.164L395.229 472.076V495.628H397.414V475.008L412.435 496.157H413.987V472.076H411.799V491.539Z" fill="white"/>
<path d="M464.471 482.483C462.038 481.243 459.253 479.862 459.253 477.027C459.253 474.738 461.667 473.339 463.742 473.51C464.658 473.584 465.554 473.968 466.305 474.487C466.718 474.771 467.091 475.112 467.41 475.499C467.563 475.683 467.702 475.88 467.83 476.086H470.222C470.202 476.028 470.181 475.972 470.174 475.956C470.047 475.675 469.901 475.4 469.739 475.134C469.422 474.618 469.043 474.139 468.61 473.715C467.301 472.436 465.537 471.663 463.73 471.556C462.857 471.503 461.973 471.607 461.127 471.886C459.858 472.302 458.722 473.1 457.953 474.204C457.777 474.455 457.625 474.723 457.499 475.002C457.457 475.096 457.417 475.194 457.381 475.292C457.17 475.858 457.067 476.459 457.067 477.064C457.067 481.031 460.489 482.732 463.485 484.255C465.917 485.496 468.314 486.911 468.314 489.604C468.314 492.226 465.989 494.175 463.307 494.175C460.945 494.175 458.795 492.934 457.879 490.774H455.586C456.643 494.139 459.747 496.158 463.307 496.158C467.151 496.158 470.501 493.359 470.501 489.604C470.501 485.848 467.469 484.042 464.471 482.483Z" fill="white"/>
<path d="M296.445 492.633C295.105 493.621 293.589 494.183 292.037 494.183C289.569 494.183 287.384 492.526 287.384 489.882C287.384 487.993 288.412 486.65 289.848 485.677C290.82 485.09 291.311 484.842 291.828 484.613L297.703 491.413C297.296 491.882 296.873 492.289 296.445 492.633ZM289.852 476.907C289.852 475.003 291.58 474.051 293.343 474.051C294.964 474.051 296.128 475.038 296.128 476.871C296.128 477.973 295.795 478.914 295.237 479.722C295.088 479.947 294.917 480.161 294.725 480.361C294.723 480.363 294.721 480.366 294.719 480.369C294.1 481.011 293.279 481.543 292.383 482.033L291.58 481.103C290.663 480.045 289.852 478.634 289.852 476.907ZM304.131 495.629L300.463 491.383C301.775 489.613 302.577 487.417 302.917 485.195H300.719C300.437 486.929 299.863 488.598 298.96 489.661C297.813 488.255 296.595 486.906 295.409 485.535C294.884 484.927 294.359 484.319 293.835 483.713C294.825 483.238 295.58 482.589 296.116 481.949C297.428 480.661 298.313 479.014 298.313 476.871C298.313 473.77 296.233 472.077 293.343 472.077C290.451 472.077 287.665 473.663 287.665 476.907C287.665 479.165 288.723 481.033 289.921 482.407L290.448 483.018C289.897 483.289 289.349 483.563 288.829 483.853C287.931 484.355 287.264 484.981 286.777 485.562C286.721 485.627 286.673 485.698 286.62 485.765C286.519 485.895 286.42 486.022 286.337 486.142C286.267 486.243 286.199 486.347 286.135 486.453C285.983 486.699 285.879 486.895 285.809 487.041C285.799 487.063 285.788 487.086 285.777 487.107C285.731 487.21 285.7 487.283 285.713 487.278C285.389 488.047 285.197 488.906 285.197 489.882C285.197 493.726 288.407 496.158 292.037 496.158C293.355 496.158 294.659 495.838 295.855 495.295C296.497 495.003 297.136 494.634 297.711 494.205C297.833 494.114 299.124 493.051 299.079 493.005L301.345 495.629H304.131Z" fill="white"/>
<path d="M432.954 474.051V472.079H419.908V483.535V484.557V495.631H433.835V493.655H422.094V484.557H427.524H428.159H430.239V482.583H428.159H427.524H422.094V474.051H432.954Z" fill="white"/>
<path d="M287.189 446.215H292.618H293.218H295.333V444.243H293.218H292.618H287.189V435.743H298.154V433.769H285.002V445.545V446.215V457.321H287.189V446.215Z" fill="white"/>
<path d="M386.313 269.896C386.447 269.666 387.108 269.032 387.973 268.369C388.688 269.944 388.748 270.408 388.747 270.497C388.695 270.745 388.555 271.401 387.639 271.401C387.153 271.401 386.681 271.193 386.44 270.87C386.315 270.705 386.173 270.416 386.313 269.896ZM384.429 269.249C384.035 270.604 384.436 271.532 384.841 272.07C385.456 272.892 386.528 273.401 387.639 273.401C388.861 273.401 390.309 272.749 390.692 270.962C390.863 270.313 390.684 269.326 389.265 266.422L388.765 265.4L387.813 266.026C387.785 266.046 384.763 268.056 384.429 269.249Z" fill="white"/>
<path d="M365.717 260.204L377.954 237.06L390.192 260.204L414.221 245.845L401.353 286.863H354.593L341.689 245.844L365.717 260.204ZM402.821 288.863L417.7 241.436L390.974 257.405L377.954 232.781L364.934 257.405L338.205 241.432L353.125 288.863H402.821Z" fill="white"/>
<path d="M361.371 264.245C361.073 264.862 360.823 265.429 360.617 265.955C359.206 269.463 359.363 272.777 361.058 275.285C362.622 277.601 365.322 278.982 368.281 278.982C369.059 278.982 369.827 278.883 370.566 278.689C375.007 277.518 377.813 273.067 376.941 268.503C376.061 264.983 373.719 263.167 371.306 261.557L377.955 248.966L384.594 261.502C382.291 263.045 379.817 265.083 379.066 267.671C378.227 270.441 378.633 273.134 380.207 275.258C381.895 277.531 384.807 278.943 387.807 278.943C391.121 278.943 395.055 277.143 396.169 272.087C396.71 269.547 395.693 266.866 394.447 264.293L403.742 259.779L397.059 281.287H358.849L352.167 259.781L361.371 264.245ZM398.531 283.287L407.022 255.963L391.757 263.375L392.211 264.282C393.211 266.271 394.723 269.279 394.214 271.663C393.135 276.562 389.038 276.943 387.807 276.943C385.427 276.943 383.131 275.841 381.815 274.066C380.626 272.465 380.33 270.399 380.983 268.241C381.721 265.699 385.151 263.509 386.443 262.683L387.221 262.187L377.954 244.687L368.69 262.227L369.45 262.727C372.009 264.407 374.218 265.858 374.987 268.933C375.651 272.414 373.486 275.851 370.055 276.755C369.483 276.906 368.887 276.982 368.281 276.982C365.987 276.982 363.906 275.929 362.715 274.165C361.403 272.225 361.317 269.574 362.475 266.694C362.758 265.973 363.129 265.173 363.607 264.246L364.078 263.335L348.889 255.967L357.377 283.287H398.531Z" fill="white"/>
<path d="M367.778 268.374L368.23 268.683C369.309 269.52 369.626 270.164 369.563 270.487C369.483 270.895 368.902 271.304 368.666 271.374C367.93 271.546 367.347 271.208 367.191 270.46C367.161 270.267 367.289 269.53 367.778 268.374ZM368.29 273.419C368.567 273.419 368.85 273.386 369.173 273.307C369.942 273.088 371.261 272.234 371.527 270.87C371.693 270.014 371.469 268.666 369.41 267.07L367.001 265.412L366.482 266.428C366.007 267.358 364.937 269.656 365.238 270.891C365.553 272.403 366.779 273.419 368.29 273.419Z" fill="white"/>
<path d="M397.489 387.383L386.83 365.98C387.885 365.704 388.997 365.332 390.187 364.861L401.366 387.383H397.489ZM390.282 362.663C388.378 363.467 386.709 364.005 385.175 364.312L383.893 364.568L396.25 389.383H404.591L391.149 362.299L390.282 362.663Z" fill="white"/>
<path d="M363.705 387.383H360.135V357.757H375.667C387.261 357.757 393.647 352.967 393.647 344.269C393.647 337.167 389.02 332.397 382.135 332.397H363.705V351.265H360.135V329.368H382.135C391.296 329.368 397.216 335.216 397.216 344.269C397.216 351.804 393.477 360.789 375.667 360.789H363.705V387.383ZM365.705 362.789H375.667C396.157 362.789 399.216 351.185 399.216 344.269C399.216 334.16 392.352 327.368 382.135 327.368H358.135V353.265H365.705V334.397H382.135C387.913 334.397 391.647 338.272 391.647 344.269C391.647 353.764 382.956 355.757 375.667 355.757H358.135V389.383H365.705V362.789Z" fill="white"/>
<path d="M377.952 404.702C377.553 404.252 377.152 403.762 377.133 403.564C377.133 402.652 377.624 402.448 377.952 402.412C378.281 402.448 378.772 402.65 378.773 403.508C378.755 403.743 378.352 404.246 377.952 404.702ZM378.007 400.411L377.952 400.408L377.899 400.411C376.567 400.484 375.133 401.503 375.135 403.62C375.193 404.671 376.072 405.622 377 406.626L377.952 407.667L378.903 406.628C379.833 405.622 380.712 404.671 380.772 403.564C380.772 401.503 379.339 400.484 378.007 400.411Z" fill="white"/>
<path d="M419.13 380.866L419.114 380.858C418.275 380.966 417.75 380.987 417.55 380.918C417.122 380.672 416.93 380.131 417.202 379.706C417.446 379.266 418.014 379.178 418.435 379.44C418.474 379.475 418.516 379.532 418.564 379.61C418.603 379.672 418.65 379.758 418.695 379.848C418.704 379.868 418.714 379.879 418.722 379.9C418.835 380.132 418.968 380.446 419.115 380.831C419.118 380.838 419.12 380.84 419.122 380.846L419.136 380.855C419.132 380.855 419.13 380.855 419.126 380.856C419.127 380.859 419.128 380.862 419.13 380.866ZM419.532 377.771C418.126 376.866 416.238 377.323 415.462 378.72C414.98 379.558 414.868 380.362 415.13 381.115C415.432 381.992 416.134 382.499 416.422 382.675L416.748 382.876L416.818 382.864C416.962 382.938 417.199 383.015 417.704 383.015C418.558 383.015 419.802 382.79 420.662 382.619L421.788 382.398L421.416 381.314C420.726 379.306 420.244 378.204 419.532 377.771Z" fill="white"/>
<path d="M327.321 335.441L329.305 334.92C330.429 338.099 332.111 341.14 336.809 342.344C340.258 342.824 343.602 341.108 345.27 338.141C346.955 335.269 346.603 332.74 346.011 331.125C345.134 328.729 343.063 326.704 340.603 325.839C339.303 325.387 337.286 325.421 334.547 325.919L334.009 323.925L336.617 320.623C344.429 311.68 355.171 305.44 366.811 303.061L371.333 302.412L372.762 303.856C370.467 306.672 368.803 309.116 370.087 313.964C371.329 317.215 374.413 319.315 377.959 319.315C381.491 319.315 384.577 317.215 385.85 313.863C387.094 309.152 385.467 306.715 383.145 303.856L384.573 302.411L389.037 303.052C400.735 305.44 411.478 311.68 419.258 320.585L421.898 323.927L421.358 325.919C418.622 325.42 416.607 325.384 415.298 325.84C412.845 326.704 410.771 328.729 409.894 331.125C409.302 332.74 408.951 335.269 410.626 338.127C412.118 340.776 414.922 342.424 417.947 342.424C418.327 342.424 418.711 342.397 419.209 342.321C423.805 341.137 425.478 338.099 426.601 334.92L428.585 335.441C431.566 342.872 432.985 348.099 432.985 357.023C432.985 365.977 431.566 371.211 428.585 378.641L426.601 379.164C425.481 375.985 423.813 372.948 419.203 371.759C418.742 371.689 418.351 371.659 417.934 371.659C414.918 371.659 412.114 373.309 410.627 375.953C408.951 378.816 409.302 381.341 409.894 382.956C410.77 385.352 412.839 387.377 415.299 388.245C415.905 388.453 416.641 388.555 417.551 388.555C418.799 388.555 420.183 388.359 421.354 388.148L421.898 390.157L419.263 393.491C411.466 402.415 400.714 408.647 389.046 411.029L384.573 411.672L383.143 410.227C385.442 407.396 387.103 404.933 385.847 400.204C384.59 396.903 381.495 394.769 377.962 394.769L377.999 394.763L377.943 394.769C374.41 394.769 371.317 396.903 370.029 400.303C368.805 404.921 370.45 407.377 372.762 410.227L371.333 411.672L366.917 411.039C355.191 408.647 344.439 402.415 336.674 393.529L334.009 390.157L334.551 388.148C335.69 388.353 337.093 388.555 338.354 388.555C339.265 388.555 340.002 388.453 340.613 388.243C343.066 387.377 345.135 385.352 346.011 382.956C346.603 381.341 346.957 378.816 345.287 375.969C343.791 373.309 340.987 371.659 337.971 371.659C337.554 371.659 337.163 371.689 336.602 371.78C332.085 372.949 330.425 375.985 329.305 379.164L327.321 378.641C324.341 371.211 322.922 365.977 322.922 357.023C322.922 348.099 324.341 342.872 327.321 335.441ZM325.842 380.321L330.611 381.575L330.905 380.677C332.141 376.884 333.495 374.651 337.003 373.737C337.381 373.679 337.678 373.659 337.971 373.659C340.266 373.659 342.402 374.919 343.553 376.965C344.837 379.155 344.577 381.057 344.134 382.269C343.457 384.117 341.853 385.684 339.953 386.353C338.757 386.767 335.827 386.368 334.022 386.012L333.105 385.831L331.817 390.608L335.137 394.807C343.221 404.059 354.365 410.52 366.574 413.008L372.046 413.796L374.817 410.993L375.411 410.303L374.839 409.607C372.301 406.516 370.902 404.813 371.93 400.915C372.887 398.396 375.247 396.769 377.951 396.769H377.954H378.005C380.682 396.785 383.023 398.409 383.943 400.815C385.003 404.813 383.605 406.516 381.023 409.66L380.459 410.357L383.859 413.796L389.389 412.999C401.541 410.52 412.685 404.059 420.801 394.769L424.09 390.608L423.043 386.732L422.722 385.847L421.806 386.027C420.114 386.36 417.135 386.761 415.959 386.357C414.053 385.684 412.449 384.117 411.771 382.269C411.329 381.057 411.071 379.155 412.362 376.949C413.505 374.919 415.639 373.659 417.934 373.659C418.23 373.659 418.525 373.679 418.802 373.716C422.41 374.651 423.765 376.884 425.002 380.677L425.294 381.575L430.065 380.321L430.251 379.857C433.39 372.099 434.985 366.437 434.985 357.023C434.985 347.639 433.39 341.984 430.251 334.227L430.065 333.763L425.294 332.508L425.002 333.405C423.765 337.2 422.397 339.436 418.821 340.363C416.197 340.728 413.651 339.424 412.361 337.131C411.071 334.929 411.329 333.024 411.771 331.813C412.451 329.964 414.055 328.397 415.959 327.728C416.981 327.373 419.141 327.489 421.877 328.057L422.801 328.249L424.09 323.476L420.795 319.308C412.698 310.037 401.561 303.568 389.379 301.083L383.859 300.288L381.089 303.091L380.533 303.829L381.106 304.525C383.615 307.575 384.998 309.255 383.951 313.251C383.006 315.719 380.654 317.315 377.943 317.315C375.25 317.315 372.899 315.719 371.989 313.352C370.907 309.255 372.29 307.575 374.879 304.427L375.45 303.729L372.046 300.288L366.469 301.092C354.345 303.568 343.209 310.037 335.079 319.345L331.817 323.476L333.105 328.249L334.029 328.057C336.75 327.491 338.939 327.379 339.943 327.727C341.85 328.397 343.457 329.964 344.134 331.813C344.577 333.024 344.835 334.929 343.535 337.145C342.399 339.168 340.262 340.424 337.959 340.424C337.67 340.424 337.377 340.404 337.197 340.385C333.511 339.436 332.142 337.2 330.905 333.405L330.611 332.508L325.842 333.763L325.654 334.227C322.515 341.984 320.922 347.639 320.922 357.023C320.922 366.437 322.515 372.099 325.654 379.857L325.842 380.321Z" fill="white"/>
<path d="M418.871 333.878C418.738 334.184 418.593 334.488 418.403 334.643C418.282 334.743 418.093 334.78 417.857 334.799C417.478 334.767 417.099 334.423 417.033 334.047C416.987 333.796 417.063 333.524 417.233 333.32C417.315 333.224 417.487 333.063 417.738 333.063L417.782 333.064C418.233 333.095 418.685 333.146 419.134 333.215C419.051 333.438 418.963 333.659 418.871 333.878ZM417.738 331.063C416.959 331.063 416.218 331.418 415.701 332.036C415.153 332.69 414.914 333.574 415.063 334.4C415.291 335.678 416.398 336.684 417.691 336.792C417.77 336.799 417.846 336.802 417.926 336.802C418.57 336.802 419.191 336.584 419.674 336.188C420.191 335.763 420.479 335.206 420.71 334.664C420.967 334.06 421.182 333.439 421.409 332.779L421.771 331.728L420.687 331.479C419.779 331.268 418.845 331.131 417.917 331.068L417.738 331.063Z" fill="white"/>
<path d="M323.254 330.69L329.631 329.069L327.97 322.689C338.479 307.386 355.077 297.861 373.525 296.541L377.951 301.006L382.382 296.541C400.83 297.859 417.426 307.385 427.937 322.689L426.275 329.069L432.653 330.69C436.598 339.347 438.598 348.206 438.598 357.023C438.598 365.863 436.598 374.734 432.651 383.39L426.275 385.014L427.937 391.395C417.427 406.695 400.831 416.221 382.382 417.541L377.951 413.074L373.525 417.541C355.075 416.222 338.479 406.697 327.97 391.395L329.631 385.014L323.254 383.39C319.309 374.734 317.309 365.863 317.309 357.023C317.309 348.206 319.309 339.347 323.254 330.69ZM321.834 385.093L327.189 386.457L325.805 391.774L326.278 392.463C337.146 408.329 354.343 418.198 373.458 419.541L374.298 419.603L377.951 415.914L381.609 419.603L382.447 419.541C401.561 418.198 418.759 408.329 429.627 392.463L430.102 391.774L428.718 386.457L434.073 385.093L434.438 384.294C438.526 375.353 440.598 366.177 440.598 357.023C440.598 347.893 438.526 338.73 434.438 329.787L434.073 328.989L428.718 327.626L430.102 322.31L429.627 321.621C418.759 305.754 401.561 295.885 382.449 294.541L381.609 294.481L377.951 298.166L374.298 294.481L373.459 294.541C354.343 295.885 337.146 305.754 326.278 321.621L325.805 322.31L327.189 327.626L321.834 328.989L321.469 329.786C317.381 338.73 315.309 347.893 315.309 357.023C315.309 366.177 317.381 375.353 321.469 384.294L321.834 385.093Z" fill="white"/>
<path d="M338.205 333.067C338.468 333.067 338.788 333.326 338.889 333.622C338.914 333.696 338.984 333.895 338.701 334.387C338.45 334.84 337.892 334.9 337.465 334.639C337.312 334.494 337.081 334.016 336.777 333.216C337.273 333.136 337.813 333.067 338.205 333.067ZM336.364 336.306C336.881 336.635 337.456 336.81 338.025 336.81C339.038 336.81 339.944 336.267 340.441 335.372C340.926 334.53 341.04 333.72 340.78 332.97C340.4 331.867 339.317 331.067 338.205 331.067C337.336 331.067 336.097 331.294 335.242 331.464L334.121 331.687L334.492 332.768C335.18 334.776 335.661 335.876 336.364 336.306Z" fill="white"/>
<path d="M377.954 309.367C378.362 309.831 378.759 310.332 378.771 310.562C378.771 311.488 378.225 311.655 378.006 311.672C377.681 311.655 377.133 311.488 377.131 310.615C377.145 310.354 377.534 309.848 377.954 309.367ZM378.006 313.671C379.338 313.599 380.77 312.596 380.77 310.508C380.71 309.383 379.71 308.307 378.769 307.295L377.953 306.432L377.075 307.359C376.194 308.307 375.194 309.383 375.133 310.562C375.134 312.596 376.566 313.599 378.006 313.671Z" fill="white"/>
<path d="M336.871 380.866C336.84 380.863 336.815 380.871 336.783 380.866H336.776C336.778 380.862 336.779 380.859 336.78 380.855H336.776L336.782 380.851C337.084 380.059 337.312 379.587 337.456 379.452C337.462 379.45 337.468 379.45 337.474 379.447C337.475 379.446 337.476 379.442 337.479 379.44C337.515 379.416 337.558 379.411 337.598 379.394C337.919 379.243 338.25 379.264 338.496 379.467C338.58 379.531 338.656 379.607 338.711 379.707C338.928 380.047 338.84 380.455 338.579 380.731L338.602 380.74L338.576 380.736C338.511 380.803 338.446 380.87 338.362 380.919C338.168 380.984 337.663 380.966 336.871 380.866ZM339.072 382.86L339.158 382.876L339.484 382.675C339.772 382.499 340.475 381.992 340.778 381.114C341.038 380.362 340.926 379.556 340.452 378.731C339.946 377.822 339.031 377.279 338.007 377.279C337.44 377.279 336.875 377.45 336.395 377.759C335.663 378.206 335.179 379.306 334.491 381.315L334.119 382.398L335.243 382.619C336.104 382.79 337.348 383.015 338.202 383.015C338.635 383.015 338.871 382.959 339.072 382.86Z" fill="white"/>
<path d="M755.905 1511.81H0V755.905H755.905V1511.81Z" fill="white"/>
</g>
</svg>
