<svg width="157" height="42" viewBox="0 0 157 42" fill="none" xmlns="http://www.w3.org/2000/svg">
<path d="M9.5766 32.3495V17.3527C9.5766 16.2654 9.80243 15.2686 10.1638 14.3624C10.7509 13.0032 11.7446 11.7799 12.9641 10.9644C14.1836 10.1489 15.6741 9.65047 17.2549 9.65047V0C14.8611 0 12.6027 0.498381 10.5251 1.35922C7.40861 2.67314 4.78895 4.8932 2.93713 7.65695C1.0853 10.4207 -0.0438604 13.7734 0.00130611 17.3527V32.3495H9.62176H9.5766Z" fill="#192232"/>
<path d="M17.2545 9.65234V24.6491C17.2545 25.7365 17.0286 26.7332 16.6673 27.6394C16.0801 28.9986 15.0865 30.2219 13.867 31.0374C12.6475 31.853 11.157 32.3513 9.57617 32.3513V42.0018C11.97 42.0018 14.2283 41.5034 16.306 40.6426C19.4225 39.3287 22.0421 37.1086 23.8939 34.3449C25.7458 31.5811 26.8749 28.2284 26.8298 24.6491V9.65234H17.2093H17.2545Z" fill="#192232"/>
<path d="M153.974 35.1129C151.761 35.1129 150.089 34.5692 148.87 33.4365C147.696 32.3039 147.063 30.6275 147.063 28.3621V20.0709H143.676V15.676H147.063V11.0547H152.167V15.676H156.774V20.0709H152.167V27.7731C152.167 28.7699 152.393 29.4495 152.89 29.9026C153.387 30.3103 154.154 30.4916 155.193 30.4916C156.232 30.4916 156.458 30.4462 157 30.3556V34.7504C155.916 34.977 154.877 35.0676 153.929 35.0676L153.974 35.1129Z" fill="#192232"/>
<path d="M135.274 15.7679H140.378V34.8423H135.274V15.7679ZM134.732 10.9653C134.732 10.1044 135.003 9.37952 135.591 8.79053C136.178 8.20153 136.946 7.92969 137.849 7.92969C138.752 7.92969 139.475 8.20153 140.017 8.79053C140.604 9.37952 140.92 10.1044 140.92 10.9653C140.92 11.8261 140.604 12.551 140.017 13.14C139.43 13.6837 138.707 13.9556 137.849 13.9556C136.991 13.9556 136.178 13.6837 135.591 13.14C135.003 12.551 134.732 11.8261 134.732 10.9653Z" fill="#192232"/>
<path d="M124.842 9.65234H129.946V34.7979H124.842V9.65234Z" fill="#192232"/>
<path d="M108.852 35.2063C107.001 35.2063 105.329 34.7533 103.884 33.8924C102.439 33.0316 101.31 31.8536 100.497 30.3131C99.7288 28.818 99.3223 27.0963 99.3223 25.2387C99.3223 23.3811 99.7288 21.6141 100.542 20.119C101.4 18.6238 102.529 17.4459 103.974 16.585C105.42 15.7242 107.091 15.3164 108.898 15.3164C110.704 15.3164 113.324 16.0866 115.04 17.6271L115.221 15.7242H119.647V34.7986H115.221L115.04 32.8957C114.182 33.6206 113.279 34.2096 112.195 34.6173C111.156 34.9798 110.027 35.2063 108.852 35.2063ZM104.471 25.284C104.471 26.7792 104.923 28.0025 105.871 28.9539C106.82 29.9054 108.039 30.4038 109.53 30.4038C111.02 30.4038 112.195 29.9054 113.098 28.9539C114.047 28.0025 114.543 26.7792 114.543 25.284C114.543 23.7889 114.047 22.5656 113.098 21.6141C112.15 20.6627 110.975 20.1643 109.53 20.1643C108.085 20.1643 106.82 20.6627 105.871 21.6141C104.923 22.5656 104.471 23.7889 104.471 25.284Z" fill="#192232"/>
<path d="M86.857 35.2048C84.96 35.2048 83.2437 34.797 81.7081 33.9362C80.2176 33.0753 78.9981 31.8973 78.1399 30.3569C77.2817 28.8617 76.8301 27.1401 76.8301 25.2372C76.8301 23.3342 77.2817 21.6579 78.1399 20.1174C78.9981 18.6223 80.1724 17.4443 81.7081 16.5834C83.2437 15.7226 84.96 15.2695 86.857 15.2695C88.754 15.2695 90.5155 15.7226 92.006 16.5834C93.4965 17.4443 94.6708 18.577 95.529 20.1174C96.3872 21.6126 96.7937 23.2889 96.7937 25.2372C96.7937 27.1854 96.7937 26.3698 96.7033 26.9135H82.1146C82.3856 28.0462 82.9727 28.9071 83.7857 29.5414C84.6439 30.1757 85.6375 30.4928 86.857 30.4928C88.0765 30.4928 88.3927 30.3569 89.0702 30.0397C89.7477 29.7226 90.2897 29.3148 90.6962 28.8164H96.2517C95.5742 30.7647 94.3998 32.3051 92.6835 33.4378C90.9672 34.5705 89.025 35.1142 86.857 35.1142V35.2048ZM91.6447 23.4702C91.3737 22.3828 90.7865 21.5673 89.9735 20.933C89.1154 20.2987 88.0765 19.9815 86.857 19.9815C85.6375 19.9815 84.6439 20.2987 83.8309 20.933C83.0179 21.5219 82.4759 22.3828 82.1597 23.4702H91.6898H91.6447Z" fill="#192232"/>
<path d="M62.918 15.7679H67.7056L67.8863 17.8974C68.5186 17.1272 69.2864 16.4929 70.1898 16.0851C71.0931 15.6773 72.0416 15.4961 73.0804 15.4961C74.1193 15.4961 74.4806 15.5867 75.2484 15.7679V20.5252C74.3451 20.344 73.6224 20.2534 73.0804 20.2534C71.5448 20.2534 70.2801 20.7064 69.3768 21.5673C68.4734 22.4281 68.067 23.6514 68.067 25.1919V34.797H62.9631V15.7226L62.918 15.7679Z" fill="#192232"/>
<path d="M49.5489 35.2057C48.3746 35.2057 47.2454 35.0245 46.1615 34.6167C45.0775 34.2089 44.129 33.6199 43.316 32.895L43.1353 34.7979H38.709V9.65234H43.8128V17.264C45.4839 15.9954 47.3809 15.3611 49.5489 15.3611C51.7169 15.3611 52.9816 15.8141 54.4269 16.675C55.8722 17.5358 57.0014 18.6685 57.8144 20.209C58.6274 21.7041 59.0339 23.4258 59.0339 25.3287C59.0339 27.2316 58.6274 28.8627 57.8596 30.3578C57.0917 31.853 55.9626 33.0763 54.4721 33.9371C53.0268 34.7979 51.4008 35.251 49.5489 35.251V35.2057ZM43.7676 25.2834C43.7676 26.7785 44.2193 28.0018 45.1678 28.9533C46.1163 29.9047 47.3358 30.4031 48.8263 30.4031C50.3168 30.4031 51.4911 29.9047 52.3944 28.9533C53.3429 28.0018 53.8398 26.7785 53.8398 25.2834C53.8398 23.7882 53.3429 22.5649 52.3944 21.6135C51.4459 20.662 50.2716 20.1637 48.8263 20.1637C47.3809 20.1637 46.1163 20.662 45.1678 21.6135C44.2193 22.5649 43.7676 23.7882 43.7676 25.2834Z" fill="#192232"/>
</svg>
