<svg width="79" height="66" viewBox="0 0 79 66" fill="none" xmlns="http://www.w3.org/2000/svg">
<path fill-rule="evenodd" clip-rule="evenodd" d="M37.1668 2.17518C27.0414 3.39059 18.0151 9.59212 13.2114 18.6343C12.4113 20.1402 11.3553 22.6593 11.0484 23.7941C10.9508 24.1548 10.832 24.5511 10.7842 24.6748C10.7108 24.8655 10.9252 24.8931 12.1853 24.856L13.673 24.8121L14.1001 23.5918C15.3687 19.9663 17.5016 16.4958 20.3316 13.453C21.5163 12.1793 23.5597 10.4947 25.3838 9.28827C35.281 2.74186 48.248 3.08369 57.7542 10.1414C62.6992 13.8127 66.1927 18.6694 68.0875 24.507C68.9015 27.0143 68.9026 26.9985 67.8894 27.3175C65.5508 28.0536 64.3513 29.2295 63.3054 31.8111C63.2073 32.053 63.1237 32.8767 63.1194 33.6415C63.1111 35.1268 63.3624 36.0249 64.1201 37.2199C64.8507 38.372 66.7652 39.7506 68.081 40.0722C68.3128 40.1287 68.5023 40.2009 68.5023 40.2325C68.5023 40.2642 68.2543 41.0289 67.951 41.932C65.1558 50.257 58.7506 56.7714 50.4592 59.7225C44.6996 61.7723 38.3714 61.8495 32.1103 59.946C27.4853 58.5401 22.2878 55.1521 19.0375 51.4249C17.0023 49.0912 14.689 45.2564 13.9656 43.0175L13.7857 42.4609L12.4518 42.398C11.7181 42.3636 11.0402 42.3607 10.9454 42.3916C10.8331 42.4284 10.9549 42.9354 11.296 43.85C12.8675 48.0628 15.1116 51.4811 18.4976 54.8199C20.5194 56.8134 20.822 57.0591 23.2229 58.6563C30.3254 63.3818 38.8444 65.0773 47.1079 63.4103C58.1691 61.179 67.0828 53.2795 70.5719 42.6165C70.8539 41.7543 71.1279 40.853 71.1808 40.6137C71.2602 40.2535 71.3759 40.1626 71.8509 40.087C73.5693 39.8135 75.4964 38.2423 76.4369 36.348C76.9844 35.2451 77.0063 35.1396 76.9991 33.6441C76.9919 32.1526 76.9671 32.0384 76.4009 30.8978C75.4812 29.0456 74.1337 27.8923 72.2254 27.3242C71.5846 27.1334 71.5803 27.1271 71.3394 26.0485C70.5208 22.3834 68.8672 18.6389 66.6501 15.4311C64.7327 12.6569 62.1522 9.99741 59.4051 7.96486C55.3892 4.9936 50.416 3.00513 45.0582 2.22857C43.4617 1.99717 38.9069 1.96636 37.1668 2.17518ZM2.19215 27.4272C2.04336 27.4891 2.00061 28.892 2.00031 33.71L2 39.9132L3.5326 39.865L5.06521 39.8167V37.4026C5.06521 35.3418 5.10076 34.9748 5.30762 34.8958C5.44093 34.8449 6.64761 34.8032 7.98914 34.8032H10.4283V37.3201V39.8369H11.9605H13.4928V33.5774V27.318L11.9989 27.3616L10.5049 27.4052L10.4627 29.8077L10.4204 32.2101H7.74673H5.07302L5.03073 29.8077L4.98859 27.4052L3.68614 27.3762C2.96979 27.3604 2.29757 27.3832 2.19215 27.4272ZM15.3316 33.5829V39.8369H20.235H25.1383V38.6167V37.3964H21.7673H18.3962V36.0998V34.8032H21.2309H24.0657V33.5829V32.3626H21.2309H18.3962V31.1424V29.9221H21.7673H25.1383V28.7181C25.1383 27.7609 25.0887 27.4952 24.8959 27.4215C24.7626 27.3706 22.5561 27.3289 19.9925 27.3289H15.3316V33.5829ZM27.4751 27.4406L26.8238 27.499V28.7105V29.9221H28.7371H30.6504L30.6907 34.9176L30.7312 39.9132L32.2252 39.9568L33.7192 40.0005V34.9613V29.9221H35.7112H37.7031V28.6255V27.3289L32.9147 27.3556C30.2812 27.3703 27.8332 27.4086 27.4751 27.4406ZM39.3887 33.5829V39.8369H44.292H49.1954L49.1937 39.1887C49.1928 38.8322 49.1493 38.2831 49.097 37.9684L49.002 37.3964H45.651H42.3V36.3411C42.3 34.687 42.073 34.8032 45.3044 34.8032H48.1228V33.5863V32.3694L45.2497 32.3279L42.3767 32.2864V31.1424V29.9983L45.6328 29.9571L48.8889 29.916V28.6225V27.3289H44.1388H39.3887V33.5829ZM50.6894 27.4156C50.6261 27.4798 50.5745 30.3008 50.5745 33.6847V39.8369H51.9535C52.712 39.8369 53.3842 39.8542 53.4475 39.8751C53.5108 39.896 53.5969 39.1582 53.639 38.2353L53.7157 36.5574L54.9197 36.5126C55.9315 36.4749 56.1571 36.5113 56.3324 36.7414C56.4471 36.8919 56.9741 37.6485 57.5035 38.4228L58.4658 39.8304L60.122 39.8337C61.406 39.8362 61.7529 39.7941 61.6649 39.6463C61.6025 39.5415 61.0037 38.6783 60.3341 37.7283C59.6647 36.7783 59.1771 35.9508 59.2509 35.8894C59.3248 35.8281 59.6421 35.5906 59.9564 35.3617C61.1585 34.4857 61.7489 32.7861 61.4418 31.085C61.1223 29.3151 60.0408 28.226 58.0061 27.625C57.3095 27.4192 50.8673 27.235 50.6894 27.4156ZM71.6483 30.0929C74.1861 31.2804 74.6349 34.6911 72.4937 36.5158C70.0568 38.5921 66.22 36.7963 66.2073 33.5733C66.2034 32.6157 66.6812 31.4566 67.326 30.8592C68.4732 29.7964 70.3164 29.4696 71.6483 30.0929ZM57.0386 30.0799C57.3492 30.1658 57.7874 30.4538 58.0124 30.72C58.3755 31.1497 58.4143 31.3031 58.3575 32.0862C58.2467 33.6109 57.4067 34.0949 55.0181 34.0103L53.7157 33.9643L53.6729 31.9432L53.6302 29.9221L55.052 29.923C55.8339 29.9234 56.728 29.9941 57.0386 30.0799Z" fill="black"/>
</svg>
