<svg width="40" height="69" viewBox="0 0 40 69" fill="none" xmlns="http://www.w3.org/2000/svg">
<g style="mix-blend-mode:luminosity">
<path fill-rule="evenodd" clip-rule="evenodd" d="M17.2416 1.06234C16.704 1.71858 16.4703 2.45362 16.4568 3.52956C16.4469 4.31308 16.4074 4.51918 16.1779 4.98463C15.6919 5.97009 15.5079 6.92364 15.5095 8.44879C15.5111 9.9797 15.6258 10.66 16.1676 12.3521C16.5683 13.6035 16.6714 14.2839 16.5264 14.7187C16.4391 14.9803 16.455 15.0518 16.6414 15.2348C16.7605 15.3516 16.9594 15.4472 17.0835 15.4472C17.2969 15.4472 17.3061 15.4745 17.2524 15.9481C17.1302 17.0257 16.5162 18.1601 14.9908 20.1258C13.0076 22.6814 12.72 23.2545 12.72 24.6499C12.72 25.0839 12.7641 25.5985 12.8181 25.7935C12.9699 26.3424 12.9657 26.9136 12.809 27.0172C12.5713 27.1745 11.9511 27.1196 11.5501 26.9057C10.5284 26.3612 10.0821 24.8641 10.4317 23.1557C10.7245 21.725 11.228 20.7536 12.6138 18.9464C14.0848 17.0282 14.7769 15.463 14.914 13.7441C15.0258 12.3433 14.6971 10.7384 14.0063 9.31091C13.7043 8.68722 12.8681 7.43449 12.7536 7.43449C12.7186 7.43449 12.5403 7.55364 12.3576 7.69931L12.0253 7.96407L11.8658 7.72467C11.1003 6.57582 9.4085 5.39855 8.14306 5.13403L7.88056 5.07926L8.10944 5.67362C8.71431 7.24455 8.88781 10.0689 8.46619 11.4778C8.17625 12.4465 7.65306 13.5802 6.798 15.0922C5.59574 17.2182 5.05178 18.5835 5.05178 19.4749C5.05178 19.7985 4.93133 19.9138 4.80912 19.7072C4.73875 19.5882 4.37232 19.5692 4.37232 19.6844C4.37232 19.7277 4.32631 20.1465 4.27011 20.6148C4.02269 22.6768 4.68099 24.8925 5.99109 26.408C6.32794 26.7976 6.33463 26.8195 6.15795 26.9593C6.05671 27.0394 5.9412 27.1064 5.90111 27.1081C5.75095 27.1148 5.84064 27.3112 6.26019 27.8943C6.77094 28.6045 7.64206 29.2729 8.42213 29.5534C9.94694 30.1016 12.0268 29.9078 13.4764 29.0823L13.8931 28.845L13.9929 29.1193C14.2371 29.7897 14.3869 30.7474 14.3452 31.3713C14.2578 32.6771 13.6386 33.6051 12.5805 34.0162C11.532 34.4234 11.3786 34.7565 11.2929 36.8116C11.2305 38.3078 11.3716 39.7994 11.6578 40.6686C11.9731 41.6262 12.8031 42.6179 13.6781 43.0824C14.0031 43.2549 14.4342 43.2547 15.2203 43.0817C15.6562 42.9858 15.8612 43.1762 15.7933 43.6139C15.7282 44.0326 15.8507 44.0396 16.2338 43.6393C16.4857 43.3759 16.5213 43.277 16.4738 42.9709C16.4191 42.6194 16.4227 42.6148 16.6316 42.7589C16.7732 42.8565 16.8555 43.0308 16.8754 43.2751C16.9098 43.6956 16.9739 43.7222 17.2956 43.45C17.4762 43.2972 17.5248 43.1575 17.5248 42.7907C17.5248 42.5349 17.5522 42.3254 17.5858 42.3254C17.6954 42.3254 17.8766 42.611 17.9508 42.9012L18.0236 43.1856L18.2013 42.9021C18.5676 42.3181 18.3431 41.6704 17.6447 41.2964C17.3104 41.1175 17.0521 41.0739 16.2629 41.0636C15.1566 41.0492 14.815 40.9065 14.4336 40.2994C14.1077 39.7805 13.9808 39.3306 13.9161 38.4635C13.8081 37.0193 14.1251 36.6002 15.7824 35.9951C17.7838 35.2644 19.2474 34.2927 20.1049 33.1254C21.5064 31.2177 21.3597 28.6158 19.7587 26.9823C19.2338 26.4469 19.2234 26.4252 19.2234 25.8599C19.2234 24.782 19.9134 23.792 21.12 23.1383L21.7326 22.8063L21.1398 22.2457C20.1243 21.2855 19.4756 19.9594 19.6615 19.2236C19.7278 18.9612 19.741 18.9751 19.9102 19.4844C20.4964 21.2501 21.9064 22.681 23.2875 22.9118L23.6885 22.9788V22.5807V22.1827L24.3633 22.0618C24.7344 21.9953 25.4879 21.7772 26.0377 21.5771C27.5561 21.0244 27.5421 21.0261 28.3228 21.291C28.7036 21.4202 29.3128 21.5562 29.6764 21.5931C30.4283 21.6694 30.7022 21.8593 30.8821 22.4288L30.9956 22.7879L31.1862 22.5418C31.3377 22.3464 31.3682 22.1859 31.3346 21.7621C31.2982 21.3041 31.3163 21.2285 31.4626 21.2285C31.5564 21.2285 31.7629 21.3427 31.9214 21.4821C32.2801 21.7975 32.2935 21.797 32.3544 21.4638C32.4295 21.0537 32.2299 20.7117 31.7954 20.5054L31.4053 20.3202L31.86 20.3179C32.1101 20.3167 32.4268 20.3602 32.5638 20.4146C32.7902 20.5046 32.8127 20.4904 32.8127 20.2579C32.8127 19.877 32.4068 19.5043 31.992 19.5043C31.3698 19.5043 31.6976 19.1932 32.482 19.0395L32.8479 18.9676L32.5823 18.7289C32.2258 18.4085 31.6383 18.4112 31.095 18.7359C30.7069 18.9678 30.6428 18.9751 29.7361 18.8903C28.1993 18.747 27.5583 18.7778 26.4643 19.0479C24.9787 19.4147 24.9938 19.4192 25.3941 18.7244C26.0674 17.5561 26.4141 16.2138 26.421 14.7494C26.4263 13.6376 26.3004 13.0052 25.911 12.1884C25.3241 10.9571 24.2373 10.0878 22.6268 9.5611C21.5512 9.20945 21.1648 8.89608 21.1648 8.37551C21.1648 7.55486 21.8239 7.12648 23.2226 7.03774C24.2194 6.97462 24.4936 6.85828 24.2152 6.61678C24.1108 6.52631 23.7163 6.463 23.0948 6.43687C22.5671 6.41476 22.1354 6.3619 22.1354 6.31941C22.1354 6.06827 22.5236 5.96076 23.6025 5.91309C24.9554 5.85325 25.0429 5.79878 25.1133 4.97296C25.1699 4.308 25.1321 4.27078 24.3083 4.18112C23.8432 4.13041 23.6015 4.03517 23.192 3.74103C22.9045 3.53453 22.3928 3.16604 22.0547 2.92231C21.7167 2.67848 21.2253 2.42156 20.9627 2.35118L20.4853 2.22338V1.78958C20.4853 1.29633 20.2233 0.638885 20.0267 0.638885C19.8214 0.638885 19.1946 1.00027 18.99 1.23669C18.7525 1.51106 18.7383 1.50903 18.2904 1.13638C17.6393 0.594866 17.6254 0.593852 17.2416 1.06234ZM21.5531 3.83383C21.77 4.10688 21.4891 4.32058 20.9903 4.26176C20.3386 4.18508 20.2798 4.02645 20.8366 3.84783C21.4398 3.65431 21.4109 3.65492 21.5531 3.83383ZM24.3859 6.41029C24.6303 6.57218 24.8616 6.75778 24.8999 6.82269C24.9383 6.8876 25.1466 7.0746 25.3629 7.23835C25.9121 7.65408 26.5019 7.65446 26.8991 7.23944C27.2329 6.89073 27.2954 6.55302 26.9951 6.72098C26.6674 6.90421 26.2799 6.83534 25.5868 6.47066C25.0849 6.20642 24.789 6.11595 24.4274 6.11595H23.9416L24.3859 6.41029ZM29.7794 6.63435C29.3581 6.88294 29.183 7.8338 29.4639 8.34733C29.6469 8.68173 29.6444 9.24261 29.4564 10.0004C29.1051 11.4173 28.5271 12.3348 27.4021 13.2621L26.8933 13.6815L26.8506 14.894C26.8062 16.1562 26.6202 17.081 26.2136 18.062C26.0916 18.3567 26.0119 18.6189 26.0369 18.6449C26.1028 18.7139 27.0781 18.3973 27.4741 18.1784C28.1028 17.8311 28.0994 17.8364 27.9079 17.4978L27.7352 17.1923L28.3338 16.4937C29.2339 15.4432 29.7351 14.7042 30.3486 13.5237C30.6539 12.936 31.0442 12.2725 31.2156 12.0494C31.6657 11.4639 31.9046 10.918 32.0379 10.1705C32.1721 9.4183 32.3613 9.18798 32.9214 9.09432C33.3527 9.02226 33.3785 8.96201 33.0936 8.69272C32.948 8.55517 32.7523 8.50163 32.4142 8.50687C32.1529 8.51095 31.9391 8.47684 31.9391 8.43109C31.9391 8.38535 32.0913 8.17196 32.2771 7.95704C32.463 7.74205 32.5868 7.53646 32.5521 7.5003C32.5176 7.46414 32.3159 7.43449 32.1043 7.43449C31.7887 7.43449 31.6606 7.49972 31.3924 7.79668L31.0655 8.15886L31.0689 7.82204C31.0709 7.63683 31.1348 7.37111 31.2111 7.23164C31.4048 6.87764 31.3916 6.82595 31.1076 6.82595C30.7106 6.82595 30.4984 7.00254 30.3741 7.43609C30.3104 7.65836 30.2235 7.84018 30.1809 7.84018C30.1028 7.84018 30.0206 7.44931 29.9745 6.85745C29.9529 6.58183 29.9243 6.54886 29.7794 6.63435ZM20.5824 27.2635C21.8402 28.9999 21.8193 31.463 20.5313 33.2911L20.1041 33.8975L20.4384 34.4167C20.9363 35.1897 21.0223 35.6207 20.8728 36.5948C20.6214 38.234 20.6288 38.4113 20.9746 39.0549C21.4051 39.8559 21.7466 40.3094 22.6609 41.2945C24.1996 42.9521 25.8814 43.8313 26.6839 43.3978C26.8463 43.31 27.0437 43.2382 27.1226 43.2382C27.3412 43.2382 27.5711 43.5279 27.5711 43.8033C27.5711 44.1106 27.6977 44.1165 27.9627 43.8214C28.1194 43.6469 28.1601 43.492 28.1356 43.1622C28.118 42.9251 28.1366 42.7311 28.1771 42.7311C28.3428 42.7311 28.6389 43.1539 28.6389 43.3904C28.6389 43.5299 28.6816 43.644 28.7337 43.644C28.9218 43.644 29.147 43.127 29.1424 42.7053L29.1378 42.2747L29.3251 42.5142C29.4282 42.6458 29.5124 42.8468 29.5124 42.9609C29.5124 43.1576 29.5219 43.1593 29.6954 42.9952C30.12 42.5936 29.9808 41.7267 29.4381 41.3923C29.0787 41.171 28.1718 41.0068 27.3074 41.0068C26.4923 41.0068 26.0176 40.8056 25.1579 40.0955C24.5133 39.563 23.7331 38.4594 23.5943 37.8835C23.4388 37.238 23.6221 36.4232 24.1387 35.4638C25.1791 33.5317 25.2902 33.2245 25.2891 32.2841C25.2881 31.2696 25.1068 30.6382 24.5701 29.7802C23.8028 28.5532 22.5103 27.4959 21.0668 26.9143C20.6436 26.7438 20.2541 26.6042 20.2011 26.6042C20.1482 26.6042 20.3197 26.9009 20.5824 27.2635Z" fill="black"/>
<path d="M8.39518 55.9976H7.20818V50.1086H8.39518V55.9976ZM10.4764 51.6213L10.5121 52.1269C10.8181 51.7359 11.2282 51.5404 11.7426 51.5404C12.1963 51.5404 12.5339 51.6765 12.7555 51.9489C12.9771 52.2213 13.0906 52.6284 13.0958 53.1704V55.9976H11.9523V53.1987C11.9523 52.9506 11.8996 52.7713 11.7941 52.6607C11.6885 52.5475 11.5131 52.4909 11.2678 52.4909C10.946 52.4909 10.7046 52.6311 10.5437 52.9115V55.9976H9.40018V51.6213H10.4764ZM15.5687 54.5699L16.3641 51.6213H17.559L16.1148 55.9976H15.0227L13.5786 51.6213H14.7735L15.5687 54.5699ZM19.9806 56.0786C19.3527 56.0786 18.841 55.8817 18.4453 55.488C18.0523 55.0943 17.8557 54.5699 17.8557 53.9146V53.8014C17.8557 53.3619 17.9389 52.9695 18.1051 52.6244C18.2712 52.2765 18.506 52.0096 18.8094 51.8235C19.1153 51.6348 19.4636 51.5404 19.8539 51.5404C20.4395 51.5404 20.8998 51.7291 21.2348 52.1066C21.5725 52.4842 21.7413 53.0194 21.7413 53.7124V54.1897H19.0151C19.0521 54.4755 19.1628 54.7047 19.3475 54.8772C19.5347 55.0498 19.7708 55.1361 20.0557 55.1361C20.4962 55.1361 20.8405 54.973 21.0884 54.6467L21.6503 55.2898C21.4788 55.5379 21.2467 55.732 20.9539 55.8723C20.6611 56.0097 20.3366 56.0786 19.9806 56.0786ZM19.85 52.4868C19.6231 52.4868 19.4385 52.565 19.2961 52.7214C19.1562 52.8778 19.0666 53.1016 19.027 53.3929H20.6176V53.2998C20.6123 53.041 20.5437 52.8414 20.4118 52.7012C20.2799 52.5583 20.0927 52.4868 19.85 52.4868ZM24.7128 54.7883C24.7128 54.6453 24.6429 54.5335 24.5031 54.4526C24.3659 54.3689 24.1444 54.2948 23.8384 54.2301C22.8202 54.0117 22.3111 53.5695 22.3111 52.9035C22.3111 52.5151 22.468 52.1916 22.7819 51.9327C23.0984 51.6712 23.5113 51.5404 24.0204 51.5404C24.5637 51.5404 24.9977 51.6712 25.3221 51.9327C25.6492 52.1943 25.8128 52.5341 25.8128 52.952H24.6693C24.6693 52.7848 24.6166 52.6473 24.511 52.5394C24.4055 52.4289 24.2406 52.3736 24.0164 52.3736C23.8239 52.3736 23.6748 52.4181 23.5693 52.5071C23.4638 52.596 23.4111 52.7093 23.4111 52.8468C23.4111 52.9762 23.4704 53.0814 23.5891 53.1623C23.7104 53.2405 23.9136 53.3093 24.1984 53.3686C24.4833 53.4252 24.7234 53.4899 24.9186 53.5627C25.5226 53.7892 25.8247 54.1816 25.8247 54.7398C25.8247 55.1388 25.6572 55.4624 25.3221 55.7105C24.9871 55.9558 24.5546 56.0786 24.0243 56.0786C23.6656 56.0786 23.3464 56.0138 23.0668 55.8844C22.7898 55.7523 22.5722 55.5729 22.4139 55.3464C22.2557 55.1172 22.1766 54.8705 22.1766 54.6062H23.2607C23.2712 54.8139 23.3464 54.973 23.4862 55.0835C23.626 55.1941 23.8133 55.2493 24.0481 55.2493C24.267 55.2493 24.4319 55.2076 24.5427 55.124C24.6561 55.0377 24.7128 54.9258 24.7128 54.7883ZM27.9336 50.5454V51.6213H28.6656V52.4787H27.9336V54.6629C27.9336 54.8247 27.9639 54.9406 28.0246 55.0107C28.0853 55.0809 28.2014 55.1159 28.3728 55.1159C28.4994 55.1159 28.6115 55.1065 28.7091 55.0876V55.9734C28.4849 56.0435 28.2541 56.0786 28.0167 56.0786C27.2148 56.0786 26.8059 55.6646 26.7901 54.8368V52.4787H26.1649V51.6213H26.7901V50.5454H27.9336ZM8.98081 61.3137H7.21606V66.2196H6.02905V61.3137H4.28809V60.3308H8.98081V61.3137ZM10.8602 64.5655L11.6516 61.8435H12.8782L11.157 66.8993L11.0621 67.13C10.8062 67.7018 10.3841 67.9874 9.79587 67.9874C9.62968 67.9874 9.46087 67.9618 9.28943 67.9107V67.0246L9.46349 67.029C9.6798 67.029 9.84074 66.9952 9.94624 66.9275C10.0544 66.8604 10.1388 66.7486 10.1995 66.592L10.334 66.2317L8.83437 61.8435H10.0649L10.8602 64.5655ZM15.8932 65.7749C15.611 66.1257 15.2206 66.3007 14.7221 66.3007C14.2631 66.3007 13.9122 66.1659 13.6696 65.8963C13.4295 65.6267 13.3068 65.2318 13.3016 64.7112V61.8435H14.4451V64.6709C14.4451 65.1264 14.6482 65.3545 15.0544 65.3545C15.4422 65.3545 15.7086 65.2165 15.8537 64.9418V61.8435H17.0011V66.2196H15.9249L15.8932 65.7749ZM18.9359 61.8435L18.9716 62.3329C19.2749 61.9527 19.6851 61.7626 20.2021 61.7626C20.7534 61.7626 21.1319 61.9851 21.3377 62.43C21.6384 61.9851 22.0671 61.7626 22.6236 61.7626C23.0879 61.7626 23.4335 61.9015 23.6603 62.1792C23.8872 62.4543 24.0006 62.8695 24.0006 63.425V66.2196H22.8531V63.429C22.8531 63.1809 22.8057 63.0003 22.7107 62.8871C22.6157 62.7711 22.4482 62.7131 22.2082 62.7131C21.8652 62.7131 21.6279 62.8803 21.496 63.2147L21.4999 66.2196H20.3564V63.4331C20.3564 63.1796 20.3076 62.9962 20.2101 62.883C20.1124 62.7698 19.9462 62.7131 19.7115 62.7131C19.3871 62.7131 19.1522 62.8506 19.0072 63.1257V66.2196H17.8637V61.8435H18.9359ZM26.8534 66.3007C26.2256 66.3007 25.7139 66.1039 25.3182 65.7104C24.9252 65.3168 24.7286 64.7923 24.7286 64.1368V64.0237C24.7286 63.5841 24.8117 63.1917 24.9779 62.8466C25.1441 62.4987 25.3789 62.2318 25.6822 62.0458C25.9882 61.857 26.3364 61.7626 26.7268 61.7626C27.3124 61.7626 27.7727 61.9513 28.1077 62.3289C28.4454 62.7064 28.6142 63.2416 28.6142 63.9349V64.4122H25.888C25.9249 64.6977 26.0357 64.9271 26.2203 65.0996C26.4076 65.2721 26.6437 65.3583 26.9286 65.3583C27.3691 65.3583 27.7134 65.1954 27.9613 64.869L28.5232 65.5123C28.3517 65.7602 28.1196 65.9544 27.8267 66.0943C27.534 66.2317 27.2095 66.3007 26.8534 66.3007ZM26.7229 62.7091C26.496 62.7091 26.3114 62.7873 26.1689 62.9437C26.0291 63.1001 25.9394 63.3239 25.8998 63.6151H27.4904V63.5221C27.4852 63.2632 27.4166 63.0637 27.2847 62.9234C27.1528 62.7806 26.9655 62.7091 26.7229 62.7091ZM30.3195 61.8435L30.3551 62.3491C30.6611 61.9581 31.0713 61.7626 31.5857 61.7626C32.0394 61.7626 32.3771 61.8988 32.5986 62.1711C32.8202 62.4435 32.9336 62.8506 32.9389 63.3926V66.2196H31.7954V63.4209C31.7954 63.1728 31.7426 62.9936 31.6371 62.883C31.5316 62.7698 31.3562 62.7131 31.1109 62.7131C30.7891 62.7131 30.5477 62.8533 30.3868 63.1337V66.2196H29.2433V61.8435H30.3195Z" fill="black"/>
</g>
</svg>
