<svg width="107" height="22" viewBox="0 0 107 22" fill="none" xmlns="http://www.w3.org/2000/svg">
<g style="mix-blend-mode:luminosity" clip-path="url(#clip0_178_181)">
<path d="M48.5058 19.2142H52.3484V11.0412C52.3484 6.72375 49.6694 4.43163 46.446 4.43163C44.3127 4.43163 42.701 5.38313 41.5401 6.70038H41.0184C40.1424 5.52888 38.6257 4.43163 36.3746 4.43163C34.3323 4.43163 32.7005 5.35837 31.8472 6.43225H31.3256V4.84688H27.7464V19.2142H31.565V11.7013C31.565 9.13825 32.3006 8.261 34.8593 8.261C37.4179 8.261 38.1281 9.13825 38.1281 11.7013V19.2129H41.9721V11.7013C41.9721 9.13825 42.6823 8.261 45.2423 8.261C47.8036 8.261 48.5125 9.13825 48.5125 11.7013L48.5071 19.2129L48.5058 19.2142ZM12.4387 17.1572C11.7526 16.6457 11.4436 15.8895 11.4436 14.7441C11.4436 13.3045 11.8716 11.5307 12.5819 10.7676C13.0794 10.2547 13.7896 10.0114 14.762 10.0114C16.1369 10.0114 17.8195 10.3826 18.5297 11.1334C19.0045 11.6215 19.2185 12.3035 19.2185 13.255C19.2185 14.6218 18.8387 16.5481 18.0081 17.3525C17.5346 17.7925 16.8953 17.9864 15.9952 17.9864C14.7647 17.9864 13.2185 17.6921 12.4387 17.1572ZM18.4842 20.1823L18.3171 21.4995L21.8935 21.9532L23.5881 7.71787L20.013 7.2655L19.8458 8.646H19.4325C18.8975 7.67113 17.4637 6.3525 14.762 6.3525C10.9942 6.3525 8.22161 9.207 7.72272 13.1079C7.6765 13.4888 7.65283 13.8722 7.65184 14.256C7.65184 17.9864 10.1168 21.0609 13.9555 21.4995C14.1695 21.5201 14.3821 21.527 14.5961 21.5243C16.2078 21.5243 17.4169 20.8175 18.0335 20.1836H18.4829L18.4842 20.1823ZM99.3896 15.9693C96.522 15.9693 95.5737 14.9944 95.5737 12.0436C95.5737 9.0915 96.5233 8.08775 99.3896 8.08775C102.257 8.08775 103.206 9.08737 103.206 12.0436C103.206 14.9985 102.257 15.9693 99.3896 15.9693ZM80.999 15.9693C78.1301 15.9693 77.1831 14.9944 77.1831 12.0436C77.1831 9.0915 78.1301 8.08775 80.9977 8.08775C83.8653 8.08775 84.8149 9.08737 84.8149 12.0436C84.8149 14.9985 83.8653 15.9693 80.9977 15.9693H80.999ZM63.0805 15.9693C60.2142 15.9693 59.266 14.9944 59.266 12.0436C59.266 9.0915 60.2142 8.08775 63.0805 8.08775C65.9468 8.08775 66.8977 9.08737 66.8977 12.0436C66.8977 14.9985 65.9481 15.9693 63.0805 15.9693ZM2.32992 0L0 19.1854L3.80385 19.6625L6.09632 0.47575L2.32992 0ZM103.371 17.8241V19.2129H106.949V4.84825H103.371V6.23975H102.85C102.28 5.45875 100.835 4.43437 98.8867 4.43437C94.6201 4.43437 91.707 7.7715 91.707 12.045C91.707 16.3171 94.6214 19.6309 98.8867 19.6309C100.831 19.6309 102.276 18.6065 102.85 17.8255L103.371 17.8241ZM63.0805 4.433C58.3404 4.433 55.4033 7.77012 55.4033 12.0436C55.4033 16.3157 58.3404 19.6295 63.0805 19.6295C67.8206 19.6295 70.7671 16.3116 70.7671 12.0436C70.7671 7.77425 67.8273 4.433 63.0805 4.433ZM85.0275 17.8241V19.2129H88.6054V0.165H84.8149V6.23838H84.2933C83.7248 5.45738 82.4435 4.433 80.5014 4.433C76.2348 4.433 73.3191 7.77012 73.3191 12.0436C73.3191 16.3157 76.2348 19.6295 80.5014 19.6295C82.4435 19.6295 83.9602 18.6051 84.5059 17.8241H85.0275Z" fill="black"/>
</g>
<defs>
<clipPath id="clip0_178_181">
<rect width="107" height="22" fill="white"/>
</clipPath>
</defs>
</svg>
