<svg width="169" height="58" viewBox="0 0 169 58" fill="none" xmlns="http://www.w3.org/2000/svg">
<g clip-path="url(#clip0_178_264)">
<path d="M74.8013 0.00139542H18.8289C18.5695 0.00139542 18.3741 0.200424 18.3741 0.458777V0.483654V8.69163L74.8915 0.0588067C74.9215 0.0530655 74.946 0.0530655 74.9779 0.0588067C75.0157 0.0633391 75.0508 0.0751706 75.082 0.0928522C75.0116 0.0391287 74.9243 0.00574017 74.8276 0.00139542H74.8013Z" fill="black"/>
<path d="M74.8032 57.9797C75.0644 57.9797 75.2598 57.773 75.2598 57.5185V0.483654C75.2643 0.395447 75.2448 0.312222 75.2069 0.240519C75.2247 0.288022 75.2308 0.341646 75.2222 0.397537L66.8997 57.5912C66.8688 57.783 66.7353 57.9309 66.5625 57.9797H74.8032Z" fill="black"/>
<path d="M36.3401 49.2282L19.028 57.9223C18.984 57.9489 18.9353 57.9691 18.8862 57.9797H45.075L44.7791 57.8591L36.3401 49.2282Z" fill="black"/>
<path d="M0.177028 57.1434C-0.0202764 57.3022 -0.0578582 57.5988 0.0905898 57.7979C0.188302 57.9376 0.349904 57.9969 0.520901 57.9797H18.7202C18.4876 57.9402 18.3265 57.728 18.3441 57.4974V38.6759L0.177028 57.1434Z" fill="black"/>
<path fill-rule="evenodd" clip-rule="evenodd" d="M85.7733 26.208C85.6868 26.1219 85.638 25.9956 85.638 25.8712L86.0946 0.477915C86.0946 0.152581 86.2412 0.0128788 86.5493 0.0128788H91.7676C92.0025 -0.00434477 92.211 0.144925 92.2787 0.376486L96.8637 13.8568L101.366 0.376486C101.458 0.150666 101.678 -0.000517313 101.924 0.0128788H107.178C107.464 0.0128788 107.631 0.175546 107.631 0.477915L108.08 25.8712C108.087 25.9956 108.042 26.1161 107.967 26.208C107.885 26.3037 107.774 26.3592 107.648 26.3477H103.467C103.23 26.3726 103.031 26.1965 103.014 25.963V25.8826L102.817 14.6835C102.817 12.8023 102.896 10.5441 103.05 7.91848H102.976C102.212 10.2571 101.533 12.1134 100.956 13.5181L97.4067 23.0465C97.3616 23.2666 97.1624 23.4158 96.9539 23.4101H96.7584C96.5367 23.4158 96.3507 23.2666 96.3018 23.0465L92.7222 13.4779C92.119 11.9986 91.4726 10.1499 90.7886 7.91657H90.6664C90.8525 10.2551 90.9314 12.4866 90.907 14.6299L90.7453 25.8673C90.7641 26.1008 90.5969 26.3056 90.3714 26.3305H90.2981H86.1491C86.0063 26.3477 85.8729 26.3094 85.7733 26.208ZM111.408 26.208C111.314 26.1219 111.267 25.9956 111.271 25.8712V0.477915C111.267 0.353522 111.314 0.227216 111.408 0.139185C111.494 0.0454121 111.615 -0.00434576 111.74 0.00139542H118.501C125.347 0.00139542 128.771 3.76378 128.771 11.3058V14.3352C128.771 22.3614 125.384 26.3726 118.622 26.3726H111.742C111.616 26.3726 111.494 26.3094 111.408 26.208ZM118.375 21.7394C120.168 21.7394 121.485 21.1328 122.329 19.929C123.167 18.7253 123.592 16.8556 123.592 14.3352V11.3058C123.592 9.0495 123.167 7.37499 122.308 6.27842C121.455 5.17994 120.119 4.62879 118.3 4.62879H116.406V21.7375L118.375 21.7394ZM132.142 26.208C132.055 26.1219 132.006 25.9956 132.006 25.8712L132.465 0.477915C132.465 0.152581 132.61 0.0128788 132.92 0.0128788H138.175C138.41 -0.00434477 138.626 0.144925 138.687 0.376486L143.238 13.8376L147.744 0.359263C147.826 0.127702 148.048 -0.0158281 148.298 0.00139542H153.554C153.841 0.00139542 154.009 0.164062 154.009 0.466431L154.458 25.852C154.465 25.9707 154.418 26.097 154.341 26.1984C154.262 26.2864 154.144 26.3362 154.02 26.3362H149.831C149.598 26.3553 149.401 26.1869 149.377 25.9477V25.8731L149.185 14.6873C149.185 12.8061 149.264 10.5479 149.427 7.92231H149.345C148.586 10.2609 147.911 12.1172 147.334 13.5219L143.775 23.0503C143.724 23.2704 143.542 23.4197 143.32 23.4139H143.123C142.913 23.4197 142.715 23.2704 142.676 23.0503L139.072 13.4817C138.47 12.0024 137.828 10.1537 137.138 7.9204H137.024C137.2 10.259 137.281 12.4904 137.262 14.6338L137.101 25.8712C137.121 26.1046 136.956 26.3094 136.721 26.3343H136.648H132.499C132.373 26.3477 132.239 26.2979 132.142 26.208ZM18.3741 8.69163L0.453255 11.4263C0.188303 11.4646 0.015427 11.7134 0.0548879 11.9775C0.0661624 12.0789 0.115018 12.1784 0.188303 12.2531L18.3441 30.8813V38.6759L18.3685 38.651V30.8813L0.207094 12.2531C0.139447 12.1784 0.0905906 12.0789 0.0793161 11.9775C0.034218 11.7134 0.212731 11.4646 0.472045 11.4263L18.3741 8.69163ZM75.2069 0.240519C75.1763 0.182643 75.1337 0.132273 75.082 0.0928522C75.1393 0.125331 75.1833 0.177543 75.2069 0.240519ZM66.445 57.9969C66.4856 57.9962 66.525 57.9903 66.5625 57.9797H45.075L45.1173 57.9969H66.445ZM18.8862 57.9797H18.7202C18.7367 57.9825 18.7535 57.9844 18.7706 57.9854C18.808 57.9905 18.8473 57.9881 18.8862 57.9797ZM85.7545 57.8591C85.6737 57.7596 85.6361 57.6429 85.6361 57.5166V32.1023C85.6361 31.9779 85.6737 31.8669 85.7545 31.7635C85.8353 31.6698 85.9499 31.6219 86.0683 31.6296H92.3595C95.3078 31.6296 97.4838 32.3434 98.8743 33.7749C100.272 35.214 100.981 37.4071 100.994 40.3542C100.994 43.1789 100.272 45.3242 98.8273 46.7997C97.3748 48.2675 95.2664 49.0062 92.5042 49.0062H90.8055V57.4993C90.8055 57.8266 90.657 57.9605 90.3507 57.9605H86.0833C85.9574 57.9854 85.8409 57.9414 85.7545 57.8591ZM92.3595 44.3807C93.5414 44.3807 94.419 44.0535 94.9827 43.4143C95.5502 42.7751 95.832 41.7647 95.832 40.3906C95.832 38.9496 95.5596 37.897 95.009 37.2406C94.4547 36.5823 93.5847 36.255 92.3952 36.255H90.7792V44.3807H92.3595ZM104.089 57.8591C104.008 57.7596 103.965 57.6429 103.97 57.5166V32.1023C103.97 31.9779 104.008 31.8669 104.089 31.7635C104.17 31.6698 104.284 31.6219 104.403 31.6296H111.357C114.337 31.6296 116.517 32.2687 117.896 33.5586C119.276 34.8446 119.963 36.8311 119.963 39.516C119.963 43.3282 118.714 45.7356 116.211 46.7499L116.173 46.8322L121.108 57.396C121.145 57.484 121.172 57.5854 121.185 57.6773C121.185 57.8916 121.053 57.9969 120.79 57.9969H116.049C115.829 58.0218 115.615 57.8955 115.534 57.6773L111.229 47.6704H109.093V57.4821C109.093 57.8074 108.95 57.9471 108.644 57.9471H104.378C104.269 57.9586 104.17 57.9299 104.089 57.8591ZM111.271 43.4315C112.49 43.4315 113.377 43.1272 113.945 42.511C114.512 41.9101 114.792 40.9686 114.792 39.7285C114.792 38.4884 114.523 37.6042 113.98 37.0569C113.439 36.5077 112.569 36.2282 111.357 36.2282H109.082V43.4334L111.271 43.4315ZM123.753 57.8591C123.673 57.7596 123.635 57.6429 123.635 57.5166V32.1023C123.635 31.9779 123.675 31.8669 123.753 31.7635C123.832 31.6698 123.949 31.6219 124.065 31.6296H128.338C128.632 31.6296 128.793 31.7922 128.793 32.0908V57.4802C128.793 57.8017 128.643 57.9414 128.338 57.9414H124.065C123.954 57.9586 123.846 57.9376 123.753 57.8591ZM132.117 57.8591C132.042 57.7596 131.999 57.6429 132.005 57.5166V32.1023C131.997 31.9779 132.042 31.8669 132.117 31.7635C132.204 31.6698 132.315 31.6219 132.439 31.6296H138.091C138.311 31.6219 138.497 31.7712 138.546 31.9893L142.775 44.1817C143.595 46.4112 144.29 48.6828 144.872 50.9812H144.948C144.713 47.8388 144.591 45.1826 144.591 43.0162V32.1023C144.591 31.9779 144.638 31.8554 144.724 31.7635C144.818 31.6774 144.944 31.6219 145.072 31.6296H149.061C149.29 31.6028 149.491 31.7788 149.516 32.0085V32.0908V57.4802C149.516 57.8017 149.369 57.9414 149.061 57.9414H143.506C143.287 57.9491 143.095 57.7979 143.052 57.5835L138.818 45.7089C138.324 44.3157 137.638 41.9962 136.764 38.762H136.65C136.828 41.4699 136.92 44.2276 136.92 47.0504V57.4706C136.92 57.796 136.779 57.9357 136.473 57.9357H132.44C132.328 57.9586 132.209 57.9376 132.117 57.8591ZM158.312 57.4974V36.2914H153.212C153.094 36.2991 152.975 36.2474 152.896 36.1555C152.812 36.0579 152.778 35.9431 152.778 35.813V32.1023C152.778 31.9779 152.814 31.8669 152.896 31.7635C152.975 31.6698 153.092 31.6219 153.212 31.6296H168.551C168.833 31.6296 169 31.7922 169 32.0908V35.7919C169 36.1153 168.857 36.255 168.551 36.255H163.489V57.4649C163.489 57.7826 163.342 57.9223 163.034 57.9223H158.738C158.455 57.9854 158.312 57.8247 158.312 57.4974Z" fill="black"/>
<path fill-rule="evenodd" clip-rule="evenodd" d="M18.3741 8.69163L0.472045 11.4263C0.212731 11.4646 0.034218 11.7134 0.0793161 11.9775C0.0905906 12.0789 0.139447 12.1784 0.207094 12.2531L18.3685 30.8813V38.651L18.3441 38.6759V57.4974C18.3265 57.728 18.4876 57.9402 18.7202 57.9797H18.8862C18.9353 57.9691 18.984 57.9489 19.028 57.9223L36.3401 49.2282L44.7791 57.8591L45.075 57.9797H66.5625C66.7353 57.9309 66.8688 57.783 66.8997 57.5912L75.2222 0.397537C75.2308 0.341646 75.2247 0.288022 75.2069 0.240519C75.1763 0.182643 75.1337 0.132273 75.082 0.0928522C75.0508 0.0751706 75.0157 0.0633391 74.9779 0.0588067C74.946 0.0530655 74.9215 0.0530655 74.8915 0.0588067L18.3741 8.69163ZM60.4526 6.6095L20.8489 27.3754L8.24208 14.5094L60.4488 6.5961C60.4488 6.5961 60.4582 6.5961 60.4526 6.6095ZM55.4579 14.052L22.572 31.3023V46.061L27.2697 37.344L27.3844 37.2081L55.4579 14.052ZM33.1738 46.0112L29.4551 42.2144L25.1576 50.208L33.1738 46.0112ZM55.5763 49.2282L51.2112 53.6872H59.9471L55.5763 49.2282ZM55.9146 43.4774L63.5493 51.2874L63.5606 51.2835L69.8893 7.71372L31.9618 38.7142L45.9554 52.9753L55.2381 43.4774L55.2521 43.4664L55.2642 43.4582L55.2757 43.4506C55.4598 43.2746 55.7436 43.2899 55.9146 43.4774Z" fill="black"/>
</g>
<defs>
<clipPath id="clip0_178_264">
<rect width="169" height="58" fill="white"/>
</clipPath>
</defs>
</svg>
