<svg width="141" height="38" viewBox="0 0 141 38" fill="none" xmlns="http://www.w3.org/2000/svg">
<g clip-path="url(#clip0_178_212)">
<path d="M52.098 5.92158C50.1372 8.56858 48.0784 11.1177 45.7254 13.6667C43.1764 16.4118 40.4313 19.0588 37.196 21.6079C34.9411 23.4706 32.4901 25.3334 29.745 27.1961C26.8038 29.2549 23.6666 31.1177 20.1372 33.1765C18.3725 33.1765 16.7058 33.1765 14.647 33.1765C19.4509 30.7255 23.3725 28.6667 27.098 26.3137C30.5293 24.1569 33.5685 22 36.3136 19.8432C39.647 17.1961 42.4901 14.549 45.1372 11.902C47.4901 9.35298 49.647 6.80388 51.6078 4.05878C51.8038 4.74508 51.9019 5.33328 52.098 5.92158Z" fill="black"/>
<path d="M51.0196 2.1961C48.9608 4.9412 46.7059 7.4902 44.2549 10.0392C41.5098 12.7843 38.4706 15.4314 34.9412 18.0785C31.7059 20.5294 27.9804 22.9804 23.8627 25.4314C19.2549 28.1765 14.7451 30.4314 8.5686 33.2745C5.8235 33.3726 3.6667 33.1765 0.627441 33.2745C9.1569 29.8432 14.549 27.5883 20.4314 24.451C25.6274 21.7059 30.1372 18.9608 33.9608 16.2157C37.5882 13.6667 40.7255 11.0196 43.4706 8.2745C46.0196 5.7255 48.3725 3.0785 50.4314 0.431396C50.6274 1.01963 50.8235 1.60787 51.0196 2.1961Z" fill="black"/>
<path d="M50.2353 14.8434C50.3334 16.5101 50.4314 18.1767 50.4314 19.8434C50.4314 21.5101 50.3334 23.1767 50.1373 24.9414C50.0393 26.2159 49.8432 27.4904 49.6471 28.765C49.451 30.0395 49.1569 31.9022 48.8628 33.2748C48.3726 33.2748 47.9804 33.2748 47.4902 33.2748C47.9804 30.8238 48.3726 27.8826 48.5687 25.5297C48.7647 24.0591 48.7647 22.4904 48.8628 21.0199C48.8628 19.5493 48.8628 18.0787 48.7647 16.6081C49.2549 16.1179 49.7451 15.4316 50.2353 14.8434Z" fill="black"/>
<path d="M47.0982 18.5686C47.1963 21.2157 47.1963 23.8627 46.9022 26.6078C46.7061 28.5686 46.412 31.1176 46.0198 33.1764C45.5296 33.1764 45.0394 33.1764 44.4512 33.1764C44.7453 31.3137 45.0394 29.1568 45.1374 27.3921C45.3335 24.9412 45.4316 22.5882 45.3335 20.1372C45.9218 19.7451 46.51 19.1568 47.0982 18.5686Z" fill="black"/>
<path d="M53.0786 10.8235C53.0786 11.2157 53.1766 11.6079 53.1766 12C53.3727 13.8628 53.4708 15.7255 53.4708 17.5883C53.4708 19.451 53.3727 21.3137 53.1766 23.1765C53.0786 24.6471 52.7845 26.2157 52.5884 27.7843C52.2943 29.353 52.0002 31.6079 51.608 33.1765C51.2158 33.1765 50.8237 33.1765 50.3335 33.1765C50.7257 31.6079 51.0198 29.549 51.2159 28.0784C51.4119 26.6079 51.608 25.1373 51.8041 23.7647C52.0002 21.902 52.0982 20.0392 52.0982 18.1765C52.0982 16.3137 52.0002 14.451 51.8041 12.5883C52.1962 12.0981 52.5884 11.5098 53.0786 10.8235Z" fill="black"/>
<path d="M52.9804 9.64709C51.2157 12.1961 49.2549 14.7451 47.0981 17.1961C44.7451 19.8432 42.1961 22.3922 39.353 25.0392C36.3137 27.7843 32.8824 30.5294 28.8628 33.2745C27.5883 33.2745 26.2157 33.3726 24.7451 33.3726C27.4902 31.6079 30.0392 29.9412 32.3922 28.1765C34.549 26.6079 36.6079 24.9412 38.4706 23.3726C41.5098 20.8236 44.1569 18.1765 46.5098 15.5294C48.7647 13.0785 50.7255 10.5294 52.5883 7.88239C52.6863 8.37259 52.8824 9.05889 52.9804 9.64709Z" fill="black"/>
<path d="M67 15.5294C64.7451 15.5294 62.9804 14.8431 61.7059 13.4706C60.4314 12.098 59.7451 10.2353 59.7451 7.8823C59.7451 5.5294 60.3334 3.6667 61.6079 2.2941C62.8824 0.921571 64.6471 0.235291 66.902 0.235291C69.1569 0.235291 70.9216 0.921571 72.1961 2.2941C73.4706 3.6667 74.1569 5.5294 74.1569 7.8823C74.1569 10.2353 73.5687 12.098 72.2941 13.4706C71.0196 14.8431 69.2549 15.5294 67 15.5294ZM67 2.4902C65.8236 2.4902 64.9412 2.9804 64.2549 3.8627C63.5686 4.7451 63.1765 6.1176 63.1765 7.7843C63.1765 9.451 63.5686 10.8235 64.2549 11.7059C64.9412 12.5882 65.8236 13.0784 67 13.0784C68.1765 13.0784 69.0589 12.5882 69.7451 11.7059C70.4314 10.7255 70.8236 9.451 70.8236 7.7843C70.8236 6.1176 70.5294 4.7451 69.7451 3.8627C69.0589 2.9804 68.1765 2.4902 67 2.4902Z" fill="black"/>
<path d="M89.4511 15.1372H86.2158V2.8823H81.4119L81.2158 5.6274C81.1178 6.8039 81.0197 7.8823 80.9217 8.9608C80.8236 10.0392 80.5295 11.0196 80.2354 11.9019C79.9413 12.7843 79.5491 13.5686 79.157 13.9608C78.7648 14.451 78.3727 14.7451 77.8825 14.9412C77.4903 15.1372 77.0001 15.2353 76.4119 15.2353C76.1178 15.2353 75.6276 15.2353 74.8433 15.1372V12.1961H74.9413C75.1374 12.1961 75.3335 12.1961 75.4315 12.1961C75.8237 12.1961 76.1178 12.1961 76.3138 12.098C76.5099 12 76.804 11.8039 77.0001 11.5098C77.1962 11.2157 77.3923 10.8235 77.5884 10.3333C77.6864 9.8431 77.8825 9.2549 77.9805 8.4706C78.0786 7.6863 78.1766 6.8039 78.1766 5.8235C78.2746 4.8431 78.2746 2.9804 78.3727 0.333313H89.3531V15.1372H89.4511Z" fill="black"/>
<path d="M105.725 15.1373H102.588V4.8431L95.9218 15.1373H92.8818V0.529419H96.0198V10.1373L102.294 0.529419H105.725V15.1373Z" fill="black"/>
<path d="M123.863 15.1373H120.725V4.8431L117.49 11.7059H115.431L112.196 4.8431V15.1373H109.255V0.529419H112.882L116.608 8.2745L120.235 0.529419H123.863V15.1373Z" fill="black"/>
<path d="M139.941 15.1373H136.804V2.8824H130.627V15.1373H127.392V0.529419H139.941V15.1373Z" fill="black"/>
<path d="M69.2549 33.2745H67.3922V23.3725H61.5098V33.2745H59.7451V21.8039H69.2549V33.2745Z" fill="black"/>
<path d="M79.5488 33.2742V31.9997C78.5684 32.686 77.7841 33.0781 77.1959 33.2742C76.6076 33.4703 75.9214 33.5683 75.3331 33.5683C74.3527 33.5683 73.4704 33.2742 72.7841 32.588C72.0978 31.9017 71.8037 31.0193 71.8037 30.0389C71.8037 28.6664 72.2939 27.686 73.2743 26.9997C74.2547 26.3134 76.4116 25.9213 79.5488 25.8232V25.4311C79.5488 24.6468 79.3527 24.0585 78.8625 23.6664C78.3723 23.2742 77.588 23.0781 76.4116 23.0781C75.3331 23.0781 74.1567 23.3723 72.8821 23.8625H72.7841V21.9997C74.0586 21.6076 75.2351 21.5095 76.4116 21.5095C78.0782 21.5095 79.3527 21.8036 80.137 22.4899C80.9214 23.0781 81.3135 24.0585 81.3135 25.4311V33.2742H79.5488ZM79.5488 30.5291V27.1958C76.9998 27.2938 75.4312 27.588 74.6469 28.0781C73.9606 28.5683 73.5684 29.1566 73.5684 29.9409C73.5684 31.3134 74.3527 31.9997 76.0194 31.9997C77.2939 31.9997 78.3723 31.5095 79.5488 30.5291Z" fill="black"/>
<path d="M86.5098 32.6863V37.5882H84.7451V21.902H86.5098V23.1765C87.7843 22.098 89.0588 21.6078 90.3334 21.6078C91.7059 21.6078 92.784 22.098 93.569 23.1765C94.353 24.2549 94.745 25.6275 94.745 27.4902C94.745 29.2549 94.255 30.7255 93.275 31.902C92.294 33.0784 91.1177 33.5686 89.6471 33.5686C88.5686 33.5686 87.4902 33.2745 86.5098 32.6863ZM86.5098 24.549V31.2157C87.4902 31.7059 88.4706 31.902 89.353 31.902C90.4314 31.902 91.3137 31.5098 92 30.7255C92.588 29.9412 92.98 28.8628 92.98 27.4902C92.98 24.6471 91.902 23.1765 89.8432 23.1765C88.6667 23.1765 87.5883 23.6667 86.5098 24.549Z" fill="black"/>
<path d="M107.49 33.2745H105.137L100.431 27.9804H99.2552V33.2745H97.4902V21.8039H99.2552V26.8039C99.9412 26.8039 100.529 26.7059 100.922 26.4117C101.314 26.2157 101.608 25.8235 102 25.2353C102.294 24.647 102.49 24.1568 102.686 23.7647C102.882 23.3725 103.078 22.9804 103.471 22.6862C103.765 22.3921 104.157 22.098 104.549 22C104.941 21.8039 105.529 21.8039 106.118 21.8039H106.902V23.3725H106.02C105.529 23.3725 105.039 23.4706 104.745 23.7647C104.451 23.9608 104.157 24.451 103.961 25.0392C103.471 26.1176 102.882 26.9019 102.196 27.2941L107.49 33.2745Z" fill="black"/>
<path d="M114.152 33.5686C112.29 33.5686 110.721 33.0784 109.741 32C108.662 30.9215 108.172 29.549 108.172 27.5882C108.172 25.7255 108.662 24.2549 109.642 23.0784C110.623 22 111.995 21.4117 113.662 21.4117C115.133 21.4117 116.309 21.9019 117.191 22.7843C118.074 23.6666 118.466 24.9412 118.466 26.7059V27.6863H110.035C110.035 29.0588 110.427 30.1372 111.113 30.8235C111.897 31.6078 112.878 31.9019 114.25 31.9019C115.525 31.9019 116.897 31.4117 118.172 30.5294H118.27V32.4902C116.603 33.2745 115.231 33.5686 114.152 33.5686ZM109.937 26.4117H116.701C116.603 24.1568 115.623 22.9804 113.564 22.9804C112.486 22.9804 111.701 23.2745 111.113 23.8627C110.427 24.451 110.035 25.3333 109.937 26.4117Z" fill="black"/>
<path d="M129.451 23.3725H125.334V33.2745H123.569V23.3725H119.451V21.8039H129.451V23.3725Z" fill="black"/>
<path d="M138.177 33.2742V31.9997C137.196 32.686 136.412 33.0781 135.824 33.2742C135.236 33.4703 134.549 33.5683 133.961 33.5683C132.981 33.5683 132.098 33.2742 131.412 32.588C130.726 31.9017 130.432 31.0193 130.432 30.0389C130.432 28.6664 130.922 27.686 131.902 26.9997C132.883 26.3134 135.039 25.9213 138.177 25.8232V25.4311C138.177 24.6468 137.981 24.0585 137.49 23.6664C137 23.2742 136.216 23.0781 135.039 23.0781C133.961 23.0781 132.785 23.3723 131.51 23.8625H131.412V21.9997C132.687 21.6076 133.863 21.5095 135.039 21.5095C136.706 21.5095 137.981 21.8036 138.765 22.4899C139.549 23.0781 139.941 24.0585 139.941 25.4311V33.2742H138.177ZM138.177 30.5291V27.1958C135.628 27.2938 134.059 27.588 133.275 28.0781C132.589 28.5683 132.196 29.1566 132.196 29.9409C132.196 31.3134 132.981 31.9997 134.647 31.9997C135.824 31.9997 137 31.5095 138.177 30.5291Z" fill="black"/>
<path d="M140.137 17.6863H59.7451V18.8627H140.137V17.6863Z" fill="black"/>
</g>
<defs>
<clipPath id="clip0_178_212">
<rect width="141" height="38" fill="white"/>
</clipPath>
</defs>
</svg>
