<svg width="196" height="109" viewBox="0 0 196 109" fill="none" xmlns="http://www.w3.org/2000/svg">
<path d="M49.2182 54.5L24.6975 108.856L0.176758 54.5L24.6975 0.144257L49.2182 54.5ZM3.8833 54.5L24.6975 100.639L45.5114 54.5L24.6975 8.36109L3.8833 54.5ZM74.3195 40.2341C76.4926 40.2341 78.475 40.6348 80.2665 41.4363C82.058 42.2378 83.5998 43.3669 84.892 44.8242C86.1841 46.2812 87.1755 47.9935 87.8655 49.9607C88.5703 51.9133 88.9227 54.0479 88.9227 56.3649V56.8457C88.9227 59.1772 88.5703 61.3265 87.8655 63.2936C87.1755 65.2462 86.1841 66.951 84.892 68.4083C83.5998 69.8508 82.058 70.9728 80.2665 71.7743C78.4897 72.5756 76.5148 72.9764 74.3415 72.9765C72.183 72.9765 70.2154 72.5756 68.4388 71.7743C66.6619 70.9728 65.1275 69.8508 63.8351 68.4083C62.5576 66.951 61.5738 65.2462 60.8838 63.2936C60.1937 61.3265 59.8486 59.1772 59.8486 56.8457V56.3649C59.8486 54.0479 60.1936 51.9133 60.8838 49.9607C61.5738 47.9935 62.5576 46.2812 63.8351 44.8242C65.1128 43.3669 66.6397 42.2378 68.4165 41.4363C70.1933 40.6348 72.161 40.2341 74.3195 40.2341ZM143.804 40.2341C145.977 40.2341 148.011 40.5402 149.905 41.1521C151.814 41.7643 153.517 42.6967 155.015 43.9499V51.6437H150.235L149.575 46.8132C149.09 46.4636 148.561 46.1648 147.989 45.9171C147.416 45.6695 146.792 45.4799 146.116 45.3488C145.456 45.2176 144.736 45.152 143.958 45.152C142.137 45.1521 140.573 45.5966 139.266 46.4853C137.96 47.3744 136.954 48.6346 136.249 50.2667C135.559 51.884 135.214 53.8075 135.214 56.037V57.1517C135.214 59.3812 135.581 61.3119 136.315 62.9439C137.049 64.5758 138.092 65.8436 139.443 66.7471C140.794 67.6359 142.394 68.0804 144.244 68.0804C145.169 68.0804 146.094 67.9783 147.02 67.7744C147.959 67.5557 148.811 67.2789 149.575 66.9438L150.235 62.4631H155.015V70.0694C153.767 70.8855 152.21 71.5776 150.345 72.1459C148.481 72.6996 146.41 72.9765 144.134 72.9765C141.021 72.9764 138.312 72.3353 136.006 71.053C133.701 69.7562 131.917 67.9274 130.654 65.5668C129.406 63.1916 128.782 60.3866 128.782 57.1517V56.0805C128.782 52.9914 129.384 50.2593 130.588 47.8842C131.807 45.4945 133.54 43.6219 135.786 42.2669C138.033 40.9117 140.705 40.2341 143.804 40.2341ZM110.868 40.6929C113.32 40.6929 115.434 41.1231 117.211 41.9827C118.988 42.8279 120.354 44.0154 121.308 45.5455C122.263 47.0609 122.74 48.8313 122.74 50.8568C122.74 52.8822 122.263 54.66 121.308 56.19C120.354 57.7055 118.988 58.8858 117.211 59.7309C115.434 60.5615 113.32 60.977 110.868 60.977H105.449V68.0367L108.885 68.6924V72.5174H95.6037V68.6924L99.0177 68.0367V45.1958L95.6037 44.54V40.6929H110.868ZM188.237 40.3871C189.06 40.3871 189.794 40.489 190.44 40.6929C191.101 40.897 191.703 41.1666 192.246 41.5019L191.167 46.2884C190.858 46.2157 190.572 46.1576 190.308 46.1138C190.058 46.0556 189.808 46.0263 189.559 46.0263C188.928 46.0263 188.303 46.2157 187.687 46.5946C187.085 46.9733 186.38 47.6803 185.572 48.7148L180.55 55.5343L189.427 68.146L192.797 68.6924V72.5174H180.088V68.6924L181.916 68.4301L181.872 68.3646L175.925 59.4905H172.158V68.0367L175.418 68.6924V72.5174H162.313V68.6924L165.727 68.0367V45.1958L162.313 44.54V40.6929H175.418V44.54L172.158 45.1958V53.6983H175.044L181.057 45.1083C182.334 43.3306 183.516 42.0993 184.603 41.4144C185.689 40.7296 186.901 40.3871 188.237 40.3871ZM27.1754 59.6664L40.1474 47.3996L29.4784 64.8071L31.7348 68.4887H18.5623L20.8187 64.8071L10.1497 47.3996L23.1217 59.6664L25.1486 29.9918L27.1754 59.6664ZM74.3195 45.2176C72.528 45.2176 71.0377 45.6841 69.8484 46.6165C68.6589 47.5346 67.7632 48.8241 67.1612 50.485C66.5737 52.1462 66.28 54.0917 66.28 56.3212V56.8457C66.28 59.0751 66.5737 61.0278 67.1612 62.7035C67.7632 64.3792 68.6589 65.6833 69.8484 66.616C71.0524 67.5484 72.5502 68.0148 74.3415 68.0148C76.1623 68.0148 77.6749 67.5484 78.8791 66.616C80.083 65.6833 80.9861 64.3792 81.5881 62.7035C82.2049 61.0278 82.5132 59.0751 82.5132 56.8457V56.3212C82.5132 54.1208 82.2049 52.1901 81.5881 50.529C80.9714 48.8533 80.0536 47.5491 78.8348 46.6165C77.6309 45.6841 76.1257 45.2176 74.3195 45.2176ZM105.449 56.0589H110.868C112.659 56.0589 114.01 55.5778 114.921 54.6163C115.846 53.64 116.308 52.4014 116.308 50.9005C116.308 49.3706 115.846 48.1103 114.921 47.1192C114.01 46.1138 112.659 45.611 110.868 45.611H105.449V56.0589Z" fill="black"/>
</svg>
