<svg width="539" height="143" viewBox="0 0 539 143" fill="none" xmlns="http://www.w3.org/2000/svg">
<path fill-rule="evenodd" clip-rule="evenodd" d="M133.111 0C139.186 0.00026305 144.111 4.92503 144.111 11V131.558C144.111 137.633 139.186 142.558 133.111 142.558H11C4.92487 142.558 0 137.633 0 131.558V11C5.50642e-06 4.92487 4.92487 0 11 0H133.111ZM83.7227 56.6729C83.6068 56.2154 83.441 55.7609 83.2749 55.3055C83.0158 54.595 82.756 53.8824 82.6836 53.1533L82.6777 53.0947C85.0239 53.3141 87.7191 53.7164 89.6016 55.2061C92.5412 57.5323 94.0232 63.4777 94.251 67.2256C95.3884 85.9472 93.2351 107.423 85.9551 124.842C84.6105 128.059 82.3517 131.315 80.2295 133.9C78.7317 135.685 77.3017 136.801 75.4443 138.159C82.9866 115.122 87.0014 89.2075 85.4053 64.8623C85.2612 62.6641 84.5463 59.8822 83.9576 57.5914C83.8763 57.2749 83.7973 56.9678 83.7227 56.6729ZM47.2773 4.82715C50.7487 4.35093 54.2756 5.14279 57.2109 7.05664C59.0739 8.25092 60.6502 9.84301 61.8252 11.7188C64.7055 16.3005 67.9948 29.0938 69.1553 34.5557C81.2878 33.3516 89.9724 33.2211 101.983 36.7998C114.886 40.6446 124.974 47.0166 124.959 62.0449C124.924 67.363 123.47 72.5757 120.746 77.1426C116.017 85.0298 100.944 97.301 93.9893 104.235C95.3997 99.0912 95.9916 95.5228 96.7871 90.2822C104.202 84.0263 113.504 74.9523 115.501 65.0078C118.516 49.991 99.1375 44.414 87.9502 43.1484C82.4751 42.5293 76.7864 42.684 71.251 43.2158C72.1951 49.8295 73.7502 55.869 74.4639 62.8545C74.5251 65.3857 75.2704 68.5972 75.3994 71.2227C76.0774 85.0149 78.4561 119.37 68.3398 129.353C68.3671 122.816 69.2997 116.427 69.1904 109.439C68.9057 94.9358 67.4813 80.4756 64.9307 66.1953C63.6679 59.0981 62.1109 52.5455 60.7158 45.54C51.3834 47.331 36.2144 57.7348 29.0117 64.2158C27.4002 52.9949 29.7739 47.8934 40.4053 43.2334C46.4882 40.5673 52.1523 38.9357 58.46 37.0049C56.402 29.0538 54.6815 18.8647 47.2529 14.0117C41.0106 9.93413 35.5027 13.3197 28.9346 14.8066C33.4428 9.50695 40.5292 6.14693 47.2773 4.82715ZM19.8955 49.9707C21.2092 47.01 24.2387 45.6649 27.252 44.8408C27.3031 44.883 27.3632 45.0577 27.4047 45.1784C27.4154 45.2095 27.4249 45.2371 27.4326 45.2578C25.2954 49.7526 24.273 54.6971 24.4531 59.6709C24.4936 60.6688 24.8858 62.6451 25.344 64.9542C26.428 70.4173 27.8818 77.7437 25.9238 78.3867C25.1509 78.1702 24.533 77.4294 23.9722 76.757C23.8731 76.6381 23.7758 76.5214 23.6797 76.4102C17.5215 69.6251 16.0635 58.6081 19.8955 49.9707Z" fill="black"/>
<path fill-rule="evenodd" clip-rule="evenodd" d="M482.534 59.4053C479.993 58.2862 449.547 58.6252 444.729 58.874C443.291 59.3472 441.992 59.7895 441.264 61.2168C440.321 63.06 440.337 77.0998 441.018 79.1719C441.351 80.1881 442.13 81.0231 443.078 81.502C445.366 82.6572 476.962 82.1673 481.654 81.9219C483.087 81.4209 484.202 80.9319 484.88 79.4932C485.73 77.6927 485.727 63.8265 485.01 61.9189C484.583 60.7826 483.633 59.8894 482.534 59.4053ZM263.532 63.3486L263.545 58.8164L218.669 58.792L218.624 82.0928C223.351 82.0928 228.196 82.1251 233.08 82.1577C243.307 82.2259 253.704 82.2953 263.534 82.0713L263.546 77.5674C259.087 77.5594 254.521 77.5842 249.924 77.6093L249.921 77.6093C240.993 77.6579 231.949 77.7072 223.351 77.5176L223.396 72.8506L254.377 72.8438L263.537 72.8193L263.543 68.333C258.886 68.3207 254.147 68.3423 249.387 68.364C240.655 68.4038 231.854 68.444 223.358 68.2754C223.36 67.886 223.358 67.4558 223.356 67.0074C223.351 65.7752 223.345 64.4055 223.412 63.3672L263.532 63.3486ZM420.155 58.7482C410.526 58.6546 400.435 58.5566 391.729 58.8896C390.421 59.3491 388.891 59.9256 388.374 61.2832C387.405 63.8309 387.569 77.3396 388.244 79.2686C388.588 80.2546 389.316 81.0597 390.262 81.502C392.228 82.4034 415.785 82.2225 427.162 82.1351C429.639 82.1161 431.538 82.1015 432.512 82.1035L432.517 77.6201L400.567 77.6025C400.227 77.6085 399.804 77.6316 399.33 77.6573C397.213 77.7725 394.098 77.9421 392.979 76.8848C392.288 76.2329 392.275 75.0472 392.272 74.168C392.272 73.9518 392.267 73.6145 392.261 73.1916C392.22 70.5749 392.127 64.6804 392.918 63.9102C393.836 63.0153 417.431 63.2262 427.998 63.3206C430.139 63.3397 431.745 63.3541 432.52 63.3535L432.522 58.832C428.598 58.8302 424.422 58.7897 420.155 58.7482ZM494.501 58.7655C494.167 58.7786 493.81 58.7926 493.419 58.8018L493.422 82.0977L497.958 82.1035L497.982 64.1592L521.033 75.8086C521.834 76.217 522.664 76.6485 523.513 77.0898C526.82 78.8089 530.412 80.676 533.685 81.8975C534.311 82.131 536.68 82.0775 537.829 82.0516L537.835 82.0515C537.972 82.0484 538.091 82.0457 538.188 82.0439L538.189 58.8076L533.65 58.7939C533.648 60.7202 533.653 62.6669 533.658 64.6203V64.6281C533.669 68.6914 533.68 72.7837 533.621 76.7812L509.55 64.6885C508.533 64.1751 507.52 63.6579 506.508 63.141C504.158 61.9412 501.812 60.7429 499.428 59.5986C497.452 58.6498 496.333 58.6937 494.501 58.7655ZM195.366 58.7947C194.325 58.8036 193.286 58.8124 192.252 58.8145L165.875 58.8262C165.827 66.5843 165.819 74.3432 165.852 82.1016H170.47L170.448 74.7246L203.727 74.7031C210.811 74.6558 210.814 71.9088 210.822 65.7002L210.822 65.5332C210.827 62.0829 210.099 59.3669 206.079 58.9795C202.555 58.7335 198.948 58.7642 195.366 58.7947ZM379.735 63.3506L379.743 58.8027L335.025 58.7988L335.001 82.0898L379.719 82.0986L379.735 77.5723C374.421 77.5542 369.077 77.5685 363.73 77.5827H363.729H363.727C355.647 77.6043 347.558 77.6259 339.549 77.5361L339.54 72.8486L370.641 72.8438L379.743 72.8301L379.735 68.3057L339.546 68.2822L339.549 63.3682L379.735 63.3506ZM277.486 77.1309L277.489 58.4805L272.889 58.4795L272.873 81.6738C277.584 81.6737 282.42 81.7065 287.296 81.7396C297.526 81.809 307.936 81.8796 317.75 81.6494L317.76 77.1621L277.486 77.1309ZM445.753 63.6865C449.076 63.2636 478.912 63.1924 480.304 64.0762C481.109 65.3485 481.207 76.1684 480.182 77.377C476.833 77.7452 447.08 77.993 445.923 77.125C445.526 76.8271 445.383 75.8802 445.316 75.4023C445.052 73.461 444.744 65.014 445.753 63.6865ZM287.105 68.3965L287.092 49.7861L282.627 49.7793L282.605 72.8975C287.258 72.8974 292.043 72.9307 296.872 72.9643H296.873H296.875C307.181 73.036 317.69 73.1091 327.541 72.8623L327.535 68.4258L287.105 68.3965ZM170.465 63.5C178.036 63.3236 185.726 63.4065 193.377 63.4889C196.899 63.5268 200.412 63.5647 203.901 63.5771C206.637 63.5869 206.125 66.9367 205.783 69.1711C205.744 69.4264 205.707 69.6672 205.678 69.8867C203.378 70.207 198.645 70.1777 195.276 70.157C194.453 70.1519 193.711 70.1473 193.106 70.1484L170.479 70.1748C170.428 68.6211 170.441 66.9453 170.454 65.3175C170.459 64.7018 170.464 64.0928 170.465 63.5Z" fill="black"/>
</svg>
