<svg width="1482" height="328" viewBox="0 0 1482 328" fill="none" xmlns="http://www.w3.org/2000/svg">
<path d="M1186.91 289.509L1202.28 264.398H1247.87L1246.09 273.172H1233.54L1228.06 301.277H1217.37L1222.85 273.172H1210.51L1212.04 265.677L1188.29 303.745C1186.47 306.624 1184.71 308.886 1183.02 310.531C1181.37 312.222 1179.61 313.41 1177.74 314.095C1175.91 314.781 1173.81 315.124 1171.43 315.124C1169.56 315.124 1167.71 314.826 1165.88 314.232C1164.01 313.638 1162.52 312.861 1161.42 311.902L1166.36 304.224C1167.14 304.91 1168 305.458 1168.96 305.87C1169.97 306.281 1171.07 306.487 1172.25 306.487C1173.62 306.487 1174.81 306.144 1175.82 305.458C1176.87 304.773 1177.9 303.607 1178.9 301.962L1179.28 301.37L1170.75 264.398H1181.44L1186.91 289.509ZM1265.81 263.849C1269.42 263.849 1272.53 264.535 1275.13 265.906C1277.74 267.231 1279.75 269.105 1281.17 271.527C1282.63 273.903 1283.36 276.759 1283.36 280.095C1283.36 281.055 1283.29 282.015 1283.15 282.974C1283.06 283.934 1282.93 284.848 1282.74 285.716H1254.53C1254.68 288.108 1255.45 289.936 1256.83 291.2C1258.43 292.571 1260.83 293.256 1264.03 293.256C1265.9 293.256 1267.71 292.96 1269.44 292.366C1271.18 291.772 1272.67 290.926 1273.9 289.83L1278.36 296.889C1276.21 298.58 1273.79 299.837 1271.09 300.66C1268.44 301.437 1265.72 301.825 1262.93 301.825C1259.09 301.825 1255.76 301.14 1252.92 299.769C1250.14 298.398 1247.97 296.478 1246.41 294.01C1244.86 291.543 1244.08 288.641 1244.08 285.305C1244.08 281.192 1245 277.536 1246.82 274.337C1248.7 271.093 1251.26 268.533 1254.5 266.66C1257.79 264.786 1261.56 263.849 1265.81 263.849ZM1349.5 263.849C1353.29 263.849 1356.56 264.535 1359.3 265.906C1362.09 267.277 1364.24 269.196 1365.75 271.664C1367.3 274.086 1368.08 276.988 1368.08 280.37C1368.08 284.437 1367.12 288.093 1365.2 291.337C1363.28 294.582 1360.65 297.141 1357.32 299.014C1353.98 300.888 1350.14 301.825 1345.8 301.825C1342.05 301.825 1338.78 301.14 1336 299.769C1333.21 298.398 1331.04 296.478 1329.48 294.01C1327.98 291.543 1327.22 288.641 1327.22 285.305C1327.22 281.192 1328.18 277.536 1330.1 274.337C1332.02 271.093 1334.65 268.533 1337.98 266.66C1341.37 264.786 1345.21 263.849 1349.5 263.849ZM1159.6 301.277H1148.91L1154.4 273.172H1139.12L1133.62 301.277H1122.93L1130.33 264.398H1167L1159.6 301.277ZM1311.18 264.398C1315.38 264.398 1318.63 265.152 1320.91 266.66C1323.2 268.168 1324.34 270.339 1324.34 273.172C1324.34 276.28 1322.97 278.793 1320.23 280.712C1319.35 281.321 1318.38 281.828 1317.31 282.239C1318.01 282.522 1318.64 282.857 1319.2 283.249C1321.21 284.665 1322.21 286.836 1322.21 289.76C1322.21 293.325 1320.73 296.135 1317.76 298.192C1314.83 300.248 1310.72 301.277 1305.42 301.277H1285.27L1292.67 264.398H1311.18ZM1385.57 278.724H1391.13L1404.08 264.398H1415.73L1398.71 282.76L1408.88 301.277H1396.54L1389.87 287.292H1383.85L1381.04 301.277H1370.35L1377.75 264.398H1388.45L1385.57 278.724ZM489.552 72.3657C501.245 60.8501 514.044 60.313 529.549 60.5464C536.036 60.6437 542.583 60.6757 548.82 62.7007C555.555 64.8881 560.508 67.9108 563.77 74.4351C574.602 96.1019 562.176 128.317 555.521 149.924C552.025 161.272 548.65 172.695 544.834 183.939C539.044 200.998 530.053 225.275 512.808 233.755C495.184 242.421 474.228 240.905 455.141 240.866C446.335 240.847 437.417 241.113 428.625 240.687C426.016 249.619 416.34 274.038 420.653 282.075C422.012 284.605 424.49 285.696 426.959 286.911C429.025 291.22 430.194 295.693 431.926 300.11C414.055 298.993 395.648 299.911 377.719 299.991C369.228 300.028 359.716 300.908 351.424 298.895C345.372 297.426 340.51 294.348 335.609 290.652C335.501 287.268 335.423 283.943 335.674 280.562C340.032 280.198 344.418 279.833 348.795 279.979C351.898 280.082 355.33 280.905 358.397 280.505C359.715 280.334 360.661 279.878 361.64 278.966L362.209 276.787L361.682 276.14C358.336 276.108 339.472 276.59 338.147 275.309C337.935 273.109 337.832 272.401 338.757 270.311C344.457 265.373 356.819 270.697 360.451 267.814C360.677 267.635 361.113 266.166 361.256 265.811C361.097 265.377 360.902 264.417 360.495 264.237C357.717 263.006 345.398 264.146 341.371 263.968L342.958 257.05C347.759 256.934 356.576 257.118 360.627 254.465C356.512 251.496 347.882 257.133 344.752 252.137C344.946 250.441 345.114 249.323 346.165 247.907C349.383 246.716 364.676 246.477 368.292 246.968C370.947 247.328 373.652 248.785 376.305 248.685C377.38 248.645 379.013 248.085 379.484 247.042C380.111 245.655 380.246 244.807 379.982 243.311C369.453 242.398 358.369 243.149 347.762 243.131C348.274 240.419 348.518 236.197 350.151 233.975L351.067 233.481C351.937 233.6 352.809 233.693 353.685 233.763C358.464 234.119 384.983 234.922 387.534 232.729C375.348 232.076 363.026 232.408 350.821 232.397C352.205 226.923 353.922 221.39 354.997 215.859C363.852 215.79 374.226 217.021 382.854 215.458L384.287 213.303C379.946 211.929 362.145 213.062 356.543 213.026C357.579 209.004 358.524 204.959 359.377 200.894C369.392 200.668 383.758 201.989 393.021 200.549L394.131 195.718C391.776 193.728 368.103 195.2 362.588 194.371C363.044 191.583 363.408 188.73 364.111 185.994C371.406 186.069 383.244 187.657 389.979 184.895L389.947 184.1C384.316 183.265 378.213 183.403 372.513 183.459C372.488 180.251 372.398 177.027 372.526 173.821C376.737 173.777 393.616 174.643 396.088 172.971L396.204 171.389C390.812 168.785 376.394 171.313 369.627 170.553C369.095 168.854 369.852 167.546 370.387 165.881C378.412 161.767 425.459 167.556 437.081 164.206L437.29 162.981C433.307 159.526 426.225 163.386 423.327 160.768L423.362 158.332C417.1 157.266 410.218 157.998 403.872 158.04L372.76 158.028C374.004 153.438 375.358 148.988 377.064 144.547C386.602 144.559 397.166 145.848 406.553 144.623C406.708 143.267 406.669 142.861 406.152 141.59C397.764 140.526 386.344 141.601 377.648 141.567C379.118 136.785 380.399 131.799 382.245 127.154L396.295 127.124C396.619 122.599 396.749 117.935 397.442 113.457C406.346 113.562 415.375 113.982 424.249 113.158L425.074 112.199L424.592 111.115C418.391 109.718 404.149 112.399 399.716 110.123C399.167 108.243 399.564 106.449 399.854 104.558C402.195 102.771 410.116 103.023 413.572 102.362C406.518 100.877 397.1 101.253 389.851 101.771L391.827 94.1587C399.771 94.1837 421.734 95.6314 428.125 93.4956C428.708 91.432 428.769 89.5784 428.757 87.4468C423.811 84.6664 399.153 89.7744 394.331 85.5972C395.079 84.1664 395.478 83.8796 397.018 83.3843C405.397 80.6886 427.38 85.113 432.922 82.6343C433.017 81.3903 433.288 80.5138 432.652 79.4009C420.526 77.9042 407.882 78.5277 395.678 78.0073C393.034 75.3088 388.817 72.1178 387.904 68.3843C388.215 66.3572 388.781 64.5667 389.491 62.647L442.801 62.5356C451.993 62.522 461.876 61.8198 470.977 62.9028C473.082 63.1541 475.423 63.5605 477.007 65.1079C478.466 66.5337 478.904 68.4641 478.851 70.436C478.718 75.3333 474.835 81.0904 475.661 85.6313C476.541 85.9441 476.624 86.0236 477.482 85.605C481.681 83.5622 486.041 75.8231 489.552 72.3657ZM1296.58 294.01H1305.62C1307.73 294.01 1309.37 293.577 1310.56 292.708C1311.79 291.84 1312.41 290.675 1312.41 289.212C1312.41 288.07 1312 287.225 1311.18 286.676C1310.4 286.128 1309.19 285.853 1307.54 285.853H1298.22L1296.58 294.01ZM1348.88 272.624C1346.78 272.624 1344.91 273.15 1343.26 274.201C1341.66 275.206 1340.38 276.622 1339.42 278.45C1338.51 280.278 1338.05 282.403 1338.05 284.825C1338.05 287.338 1338.78 289.349 1340.25 290.857C1341.71 292.319 1343.79 293.051 1346.48 293.051C1348.59 293.051 1350.44 292.548 1352.04 291.542C1353.68 290.491 1354.96 289.052 1355.88 287.224C1356.79 285.396 1357.25 283.271 1357.25 280.849C1357.25 278.382 1356.52 276.393 1355.05 274.885C1353.59 273.377 1351.53 272.624 1348.88 272.624ZM1299.46 279.547H1307.54C1309.46 279.547 1311.02 279.136 1312.21 278.313C1313.39 277.445 1313.99 276.325 1313.99 274.955C1313.99 273.812 1313.58 272.967 1312.75 272.418C1311.93 271.87 1310.72 271.595 1309.12 271.595H1301.03L1299.46 279.547ZM1265.33 271.87C1263 271.87 1261.01 272.441 1259.37 273.583C1257.77 274.68 1256.56 276.211 1255.74 278.176C1255.56 278.599 1255.4 279.033 1255.26 279.478H1273.56C1273.59 278.25 1273.41 277.176 1273.01 276.256C1272.41 274.84 1271.46 273.766 1270.13 273.035C1268.8 272.258 1267.21 271.87 1265.33 271.87ZM1012.7 63.1079C1021.09 63.0836 1050.77 59.5025 1048.15 72.6177C1044.87 89.0851 1038.65 107.005 1033.82 123.211L1019.06 172.322C1017.42 177.608 1014.49 188.215 1012.57 192.837C1018.99 192.744 1024.71 192.729 1031.15 192.982C1029.83 202.193 1011.77 262.775 1007.2 266.155C999.902 271.549 975.643 269.965 966.337 268.285C963.381 267.749 960.116 266.738 957.761 264.796L957.883 263.81C962.378 261.974 971.991 263.329 974.94 262.19C973.401 255.923 959.401 263.021 954.798 258.193L954.533 256.313C959.609 254.717 978.899 257.263 982.178 255.011L982.644 254.077L981.898 252.988C975.384 251.886 959.908 252.5 952.55 252.607L949.243 242.979C956.495 243.064 992.658 244.833 995.729 241.937L995.686 240.798C992.751 239.161 938.162 240.832 929.966 240.816C877.289 240.715 823.996 241.331 771.283 240.493C767.303 240.429 757.254 238.312 754.404 235.924C757.676 236.008 762.278 236.519 765.191 234.915C763.015 234.216 760.731 234.406 758.477 234.46C758.062 234.493 757.647 234.52 757.225 234.541C753.266 234.729 750.273 233.782 747.281 231.071L747.217 229.534C753.581 224.392 775.07 231.252 783.345 227.661L783.902 226.046C779.965 219.979 749.486 227.041 745.02 222.817C744.232 219.484 745.127 215.691 745.585 212.337C749.93 212.488 753.96 212.682 758.197 211.532L758.369 211.078C754.876 210.977 751.512 210.789 748.055 210.255L747.711 209.518C750.617 208.034 754.561 208.543 757.754 208.588C764.776 208.718 772.056 209.149 779.05 208.489L779.4 207.785C776.745 206.232 752.106 207.168 747.045 207.19L748.763 199.528C749.829 199.549 750.903 199.562 751.97 199.568C754.504 199.578 756.945 199.835 758.885 197.909L758.369 196.889C755.749 195.516 752.321 196.018 749.443 196.124C751.197 191.341 752.593 186.348 753.975 181.444C759.486 181.541 770.667 182.758 775.334 180.481C768.283 180 761.355 180.045 754.297 180.204C756.058 176.604 760.209 161.646 761.254 157.559C764.812 157.592 766.637 157.613 770.224 157.023C768.835 156.221 763.888 156.331 761.991 156.283L763.609 150.536C768.513 150.618 778.513 150.898 783.201 149.731C779.865 149.48 766.152 149.572 764.562 148.643L764.304 146.121C767.668 138.965 780.124 146.279 785.6 142.035C786.351 140.159 786.516 140.604 785.972 139.084C783.023 137.971 771.355 138.503 767.511 138.556C768.67 134.526 769.171 131.22 769.844 127.101C772.843 126.909 788.27 127.004 789.809 125.997C785.743 125.894 774.083 126.197 771.498 123.945C772.951 118.081 798.849 123.825 801.913 120.657C807.181 115.198 805.099 115.266 814.49 116.987L815.299 116.338C810.782 110.369 779.629 118.745 774.411 111.925C775.635 106.287 785.836 109.541 790.682 108.432L790.667 107.735C787.31 106.943 780.202 107.446 776.437 107.584C777.331 105.344 778.069 102.262 778.713 99.8735C782.793 99.9788 789.486 100.72 792.657 98.2095L791.905 97.2651C788.369 95.8316 783.767 96.2759 779.88 96.3618C780.753 93.3541 781.634 90.0115 782.829 87.144C788.785 86.8749 799.229 87.6443 804.647 86.7739L805.17 85.7573C799.379 85.393 790.338 85.4981 784.669 85.7544L783.924 85.5122C783.394 83.4837 782.923 82.3955 783.753 80.4399C787.669 76.4077 800.095 80.1188 805.563 78.6558L805.996 78.0356C804.699 72.5236 787.913 74.8592 782.399 74.6841C780.145 73.3613 777.532 71.7394 775.191 70.6743L778.348 63.2446L829.379 63.145C866.838 63.0169 865.22 61.6281 854.203 99.4282C846.186 126.911 836.845 155.546 829.314 183.224C826.444 193.766 835.757 194.27 843.631 188.693C849.3 188.798 866.837 189.434 871.576 188.452C872.07 186.758 872.378 185.785 872.571 183.993L873.552 181.568L873.616 180.863C870.83 178.71 851.476 181.265 848.792 179.58L848.541 177.739C848.877 176.792 849.751 174.022 850.782 173.979C855.127 173.799 868.304 175.542 871.533 173.301C869.98 172.103 852.759 172.839 850.131 172.932C851.333 168.37 852.679 162.926 854.304 158.581C854.848 157.122 863.023 157.502 864.383 155.738C861.834 155.194 857.088 154.683 855.678 152.953L855.965 151.739C858.773 149.892 880.059 150.625 885.893 150.348L885.986 149.972L887.718 150.142C884.938 148.94 862.134 149.198 857.453 149.178C858.849 143.066 859.966 143.022 866.122 142.594C866.924 141.112 866.902 141.669 866.565 140.205C863.173 139.901 863.781 141.144 861.146 139.5C860.338 136.786 861.19 135.29 861.885 132.274C866.259 132.303 879.909 132.994 882.865 130.662C880.689 128.413 867.296 129.019 863.702 129.062C864.082 126.403 864.175 124.462 865.671 122.227C872.113 118.108 890.861 125.323 895.277 119.387L894.986 118.548L894.139 117.392C891.432 116.018 873.001 116.741 867.317 116.415C871.942 93.8184 874.59 107.068 882.586 102.465C881.111 101.546 873.509 101.699 871.29 101.663C872.113 98.846 873.237 93.946 874.97 91.813C878.935 92.0628 881.677 92.1848 885.678 92.0396L886.2 90.9185L886.337 90.938C882.76 90.3251 878.583 90.6397 875.013 90.7437L876.995 81.7817C882.149 81.7746 896.129 82.0544 900.574 81.519L901.397 80.4497L900.804 79.3364C893.71 78.3937 884.798 79.1958 876.931 78.5337C875.721 76.7807 874.504 75.0121 872.979 73.5161C872.7 73.1775 869.456 70.6133 869.45 70.6479C869.407 60.3308 878.255 63.0398 885.062 63.1772C903.574 63.5523 922.171 62.8364 940.703 63.1499C943.373 63.195 946.064 63.4188 948.691 63.9155C956.465 65.0773 954.956 74.1516 953.381 79.689C943.624 113.942 932.744 147.912 922.93 182.136C922.472 183.737 922.328 186.388 922.485 188.085C922.772 191.219 924.511 192.111 927.281 192.746C929.192 193.174 931.197 192.815 932.844 191.75C935.506 189.993 938.184 185.64 939.351 184.654C942.078 182.356 955.771 183.286 959.744 183.3L961.019 174.928C955.679 174.593 950.36 174.265 944.841 174.795C944.354 174.385 943.939 174.031 943.581 173.73C945.886 169.558 975.886 173.763 980.073 171.65C978.591 168.478 973.846 168.87 970.832 168.958C961.977 169.218 953.173 169.163 944.318 169.058C947.518 160.791 949.315 153.3 951.978 144.916C955.707 144.874 960.359 144.964 963.981 144.436L964.418 143.594C962.07 142.643 960.996 142.323 958.534 141.958C955.972 141.578 954.296 142.773 953.115 140.746L953.48 137.859C958.319 138.018 963.095 138.137 967.826 136.963C962.923 136.149 956.802 137.579 954.246 135.799C955.048 133.341 955.263 132.353 956.96 130.386C961.341 129.649 976.537 130.028 981.283 130.322C981.877 128.258 981.863 129.085 981.204 126.938C976.351 122.564 961.298 128.078 958.134 123.575C958.384 121.748 958.635 121.439 959.823 120.017C964.949 120.039 979.15 120.463 982.951 119.233C979.744 117.953 964.663 118.509 960.41 118.561C960.296 116.787 961.362 112.673 961.791 110.741C965.456 110.505 986.43 110.892 987.833 109.834C987.854 106.169 986.666 109.268 984.583 105.292C981.806 102.931 968.492 103.8 963.817 103.641C965.12 101.404 965.857 98.281 966.573 95.7407C972.522 95.7844 991.519 96.4879 995.821 94.4888L995.507 93.606C990.417 92.6661 973.689 92.8645 967.919 92.8345C969.007 88.8535 969.336 87.6319 969.45 83.3931C973.538 83.4918 982.493 83.69 986.352 82.8003C981.055 81.7588 975.32 81.9543 969.895 81.9614C969.794 68.8874 960.438 76.5403 964.54 63.1567L1012.7 63.1079ZM1262.52 249.934C1263.8 249.934 1264.87 250.323 1265.74 251.1C1266.61 251.877 1267.05 252.905 1267.05 254.184C1267.05 255.738 1266.52 256.995 1265.47 257.955C1264.42 258.914 1263.23 259.394 1261.9 259.394C1260.67 259.394 1259.62 259.006 1258.75 258.229C1257.88 257.452 1257.45 256.424 1257.45 255.144C1257.45 253.59 1257.95 252.333 1258.96 251.374C1260.01 250.414 1261.2 249.934 1262.52 249.934ZM1276.44 249.934C1277.67 249.934 1278.72 250.323 1279.59 251.1C1280.46 251.877 1280.89 252.905 1280.89 254.184C1280.89 255.738 1280.37 256.995 1279.32 257.955C1278.31 258.914 1277.14 259.394 1275.82 259.394C1274.54 259.394 1273.47 259.006 1272.6 258.229C1271.78 257.452 1271.36 256.424 1271.36 255.144C1271.36 253.59 1271.87 252.333 1272.87 251.374C1273.88 250.414 1275.07 249.934 1276.44 249.934ZM247.796 62.3325C261.595 59.7822 326.509 59.362 340.428 61.9517C349.187 63.5815 358.774 67.2891 363.972 74.9302C372.264 87.1208 370.265 105.632 367.573 119.266C364.913 132.744 360.552 145.674 356.479 158.763C348.997 182.807 341.051 217.249 318.84 232.064C311.702 236.825 302.749 239.831 294.337 241.266C277.439 244.149 258.712 242.674 241.593 242.64C227.218 242.612 211.377 244.061 197.295 241.208C191.648 240.063 186.217 237.941 180.998 235.527C186.274 235.674 201.615 236.613 205.721 234.905L205.727 234.333C198.195 232.651 177.21 237.256 174.266 229.022L174.575 228.029C182.506 226.346 208.246 229.118 213.916 226.411L213.845 226.076L214.601 225.366C213.006 223.404 213.706 223.989 211.134 223.171C209.114 220.898 184.869 221.742 179.857 221.015L180.432 220.919C177.926 220.219 175.651 219.925 173.054 219.831C176.577 219.803 180.358 220.047 183.823 219.379C181.303 219.228 178.831 219.048 176.342 218.618C181.58 218.087 188.785 219.227 193.628 217.45C188.492 216.191 171.205 217.829 168.278 214.884L169.028 213.438C175.377 209.823 188.521 212.298 195.892 211.948L195.837 210.716C192.7 207.968 181.09 209.608 176.742 209.604C173.215 209.601 169.421 209.834 166.812 207.215C166.777 206.007 166.588 205.607 167.49 204.69C171.582 200.528 208.245 202.341 215.876 202.422C216.1 202.245 216.347 202.029 216.486 201.776C217.327 200.239 217.072 198.571 216.544 197.042C211.306 194.158 174.784 198.427 169.265 195.874C168.392 195.47 168.382 195.042 168.086 194.197C168.231 193.923 168.392 193.668 168.61 193.447C172.258 189.751 188.646 190.962 193.625 190.81C191.211 190.449 188.356 190.69 186.078 189.885C183.285 188.898 182.928 185.648 179.822 184.715C176.696 183.777 173.265 185.279 170.396 183.997L170.064 182.804L170.909 181.785C178.112 180.627 186.075 181.471 193.366 181.651L194.599 173.302C191.375 173.122 175.026 173.813 173.257 172.555C173.155 171.665 172.975 170.52 173.226 169.646C174.49 165.235 179.027 168.124 182.123 166.288C182.278 164.614 182.779 162.384 182.075 160.82C180.498 160.863 178.965 160.824 177.392 160.719C176.558 159.537 176.742 159.264 176.925 157.829C178.834 155.426 192.668 157.16 196.482 156.518C195.413 155.657 194.178 155.003 192.994 154.314L192.713 153.101C196.666 149.614 221.888 152.287 229.315 151.547C230.732 151.406 230.679 151.26 231.55 150.189L231.298 149.01C226.644 147.147 198.441 149.077 189.396 147.648C192.642 146.897 196.285 147.266 199.654 146.755C199.628 143.215 199.173 137.149 201.439 134.63C198.503 135.528 187.382 135.219 184.253 133.933C190.033 131.238 208.658 133.719 218.355 131.925C221.376 130.701 237.903 130.446 240.238 128.228C228.314 123.767 207.652 128.278 202.554 124.261C199.537 114.014 220.805 119.868 227.722 118.236L228.612 116.705C227.442 110.92 195.839 116.671 191.413 113.406L191.708 111.987C195.003 109.755 199.252 111.846 203.96 110.237L204.051 103.869C201.017 102.22 199.291 104.524 196.597 103.255C196.198 99.4563 200.876 96.7599 203.601 94.7437C209.936 94.4867 233.992 95.135 238.241 94.0327L238.454 91.3628C238.7 91.0736 239 90.72 239.355 90.3013C251.595 89.0809 300.623 91.6662 309.367 89.0356L309.209 88.4165C303.627 86.4467 255.62 86.2713 250.464 87.9556L250.229 88.0337C247.108 87.5341 242.233 87.403 239.164 88.02L236.361 87.6362L236.869 86.8862C240.2 87.0366 249.717 87.7856 252.384 86.1187C252.198 84.8046 252.185 84.0349 251.444 82.9263C245.494 81.801 212.849 83.5189 211.105 82.0952C215.997 74.2236 247.32 83.242 251.794 77.605C251.898 76.4211 252.191 74.1416 251.993 73.0708C247.035 71.8025 227.027 71.967 221.48 72.7808C229.421 67.3367 238.347 64.079 247.796 62.3325ZM1221.82 62.7114C1229.51 62.6964 1252.78 61.4288 1257.62 65.6089L1257.85 65.7974C1259.23 66.9884 1259.62 68.4383 1259.73 70.1841C1260.35 80.1521 1229.58 176.167 1224.33 193.676C1221.34 203.606 1216.07 215.4 1216.19 225.845C1216.21 227.595 1216.97 229.112 1218.26 230.267C1220.33 232.102 1222.87 231.968 1223.92 234.577C1223.42 236.751 1222.93 238.903 1222.33 241.052L1172.66 241.059C1164.17 241.066 1155.75 241.328 1147.28 240.733C1140.32 240.243 1132.98 234.003 1136.61 226.863C1140.8 223.632 1158.14 225.429 1165.76 224.769C1158.95 221.557 1139.83 226.863 1137.37 221.25L1137.83 217.987C1137.05 217.749 1135.79 217.356 1135.26 218.055C1131.44 223.283 1127.87 227.691 1123.27 232.333C1110.08 245.666 1092.76 242.499 1075.79 242.352C1067.82 242.283 1045.58 243.221 1042.58 233.801C1045.51 229.251 1060.04 234.708 1063.66 230.252L1063.67 228.46C1060.45 227.18 1044.39 227.895 1039.31 227.618L1038.82 219.385C1049.07 219.096 1063.65 218.723 1073.72 219.489C1073.8 216.946 1073.82 213.48 1074.12 211.032L1039.82 210.907L1041.38 203.542C1047 203.47 1064.58 204.252 1068.01 201.927L1068.46 200.657C1063.67 198.252 1046.8 200.379 1043.09 199.327C1042.96 197.062 1042.84 197.923 1043.93 195.721C1049.06 191.416 1058.98 196.246 1060.3 193.413L1060.09 190.607C1055.43 186.926 1047.88 192.442 1046.04 187.667C1049.1 180.035 1058.49 188.266 1061.78 183.028L1061.56 180.549C1058.67 178.777 1050.88 182.18 1048.49 178.847C1048.86 176.723 1049.59 176.096 1051 174.545C1055.26 172.505 1064.12 174.963 1067 173.369L1066.98 171.939C1063.29 168.885 1055.03 172.308 1051.83 170.048C1052.06 168.093 1051.85 168.755 1053.54 167.142C1057.84 166.181 1064.36 167.387 1067.27 166.417L1067 165.757C1062.36 165.759 1057.44 165.68 1052.84 165.835C1054.43 160.692 1055.96 155.53 1057.43 150.351C1060.72 150.481 1066.01 151.209 1068.53 149.557L1069.34 145.785L1069.62 143.076C1072.21 143.215 1074.01 143.079 1076.6 142.885L1076.97 142.451C1070.93 141.531 1066.31 141.779 1060.27 141.942C1061.4 138.518 1062.01 135.693 1062.79 132.2C1067.62 132.336 1072.46 132.289 1077.29 132.058C1077.18 131.554 1076.74 131.251 1076.33 130.83C1072.21 130.435 1067.5 130.781 1063.34 130.962C1063.63 129.891 1065.03 124.399 1065.38 123.811C1069.45 116.955 1088.15 122.206 1092.86 117.89C1091.47 116.799 1070.99 116.601 1068.61 117.527V119.625L1067.84 120.079C1066.48 117.061 1071.42 104.468 1072.71 100.67C1079.35 101.146 1101.68 103.83 1104.52 97.3237C1102.93 95.9466 1077.82 96.3852 1073.54 96.3745C1075.26 92.0583 1077.07 86.171 1077.76 81.605C1082.76 81.6479 1096.62 81.8678 1100.67 80.9302C1099 80.1308 1082.12 80.5106 1079.04 80.5864C1076.11 75.7335 1074.83 73.07 1069.54 70.6636L1072.25 62.5825C1099.31 63.5302 1126.78 61.5365 1153.76 63.3296C1163.08 63.9488 1161.74 73.5726 1159.79 79.7827C1150.05 110.54 1141.59 141.779 1131.68 172.467C1127.2 186.379 1120.3 210.22 1144.35 192.361C1150.72 192.377 1160.85 192.917 1166.44 190.393L1166.32 188.898C1161.38 186.524 1151.17 187.223 1145.46 187.376L1149.27 172.281C1157.55 171.725 1165.74 171.755 1174.02 171.945C1177.48 172.024 1182.01 172.704 1184.75 170.261L1184.8 169.028C1181.7 166.231 1157.73 167.304 1152.18 167.341L1151.73 166.43C1154.47 159.767 1175.15 166.246 1180.62 162.622L1179.85 161.183C1177.02 159.47 1157.93 160.153 1153.3 160.184L1156.36 150.332C1161.97 150.218 1176.21 151.598 1179.65 148.941L1179.35 147.381C1175.31 145.258 1162.59 146.062 1157.5 146.161C1158.81 142.046 1162.66 127.757 1164.5 124.938C1168.86 125.062 1177.95 125.42 1181.77 124.407C1178.94 123.076 1168.36 123.537 1164.66 123.577C1165.87 119.296 1167.02 114.997 1168.1 110.682C1173.09 110.651 1200.91 111.557 1202.94 109.753L1202.84 107.585C1201.48 107.072 1172.77 107.656 1168.99 107.683C1169.57 105.695 1170.5 101.619 1171.81 100.296C1181.88 97.7849 1203.63 101.752 1208.09 98.3853L1207.9 96.6548C1203.87 93.4331 1179.53 95.2957 1173.3 95.2563L1175.31 86.9429C1181.03 87.0481 1191.92 87.6968 1196.72 85.0415L1196.22 83.5005C1188.15 81.485 1184.5 82.5177 1176.46 82.3423C1174.3 67.1674 1166.9 76.7359 1170.93 62.6958L1221.82 62.7114ZM1283.32 62.8677C1294.63 62.338 1353.23 61.1449 1360.08 65.0337C1369.57 70.4214 1369.21 81.1116 1371.82 90.4634C1372.29 93.4274 1372.8 96.3868 1373.34 99.3394L1382.12 90.6509C1386.97 90.6881 1411.23 91.3697 1413.63 89.8286C1409.79 88.5588 1388.74 89.1658 1383.77 89.5229C1385.66 86.2499 1387.88 84.7742 1390.97 82.7808C1396.47 83.9596 1425.82 83.7294 1431.92 82.9478L1431.43 82.4868C1425.17 81.2006 1405.87 81.7637 1398.59 82.0171C1395.96 81.9097 1392.1 82.2265 1390.29 80.9331C1389.19 78.4246 1389.14 79.2131 1389.54 76.7065C1394.3 71.1406 1415.47 76.3171 1421.57 74.0444C1421.83 71.9924 1421.9 71.5041 1421.29 69.4829C1420.07 68.9146 1388.94 69.1637 1385.62 69.4321L1386.44 62.9087L1429.01 62.6978C1436.85 62.6834 1444.63 62.474 1452.51 63.0259C1458.57 63.4503 1460.93 66.6777 1461.08 72.6538C1461.22 78.38 1458.82 82.0187 1454.78 85.7437C1440.34 99.7688 1425.43 113.267 1410.88 127.17C1404.15 133.591 1396.32 140.183 1389.88 146.825C1396.09 163.205 1401.51 179.94 1407.54 196.345C1411.44 206.967 1415.26 224.361 1423.58 231.705L1431.35 232.884L1429.44 241.13L1346.26 240.991C1345.4 238.029 1344.53 234.746 1343.57 231.844C1347.53 231.837 1359.75 232.216 1362.39 230.056L1361.7 229.764V230.374L1361.05 229.628L1360.95 230.492L1360.23 229.506L1360.18 230.586L1359.63 229.429C1355.79 229.199 1344.49 229.312 1341.93 228.241C1343.59 226.773 1346.82 228.224 1349.49 227.356C1346.74 227.051 1343.62 226.927 1341.28 225.523C1340.58 223.946 1340.42 223.618 1340.33 221.911C1344.73 220.347 1357.08 222.882 1361.1 220.977C1357.86 218.132 1339.76 222.949 1337.5 216.773C1340.02 212.207 1348.79 215.956 1351.5 213.288C1350.65 207.696 1339.23 213.122 1336.24 210.749C1335.97 210.53 1332.41 201.817 1332.04 200.866C1329.28 204.412 1325.86 208.234 1323.38 211.526C1320.19 215.77 1313.33 221.326 1313.68 226.646C1314.04 232.114 1324.28 234.932 1317.35 240.612C1292.89 242.421 1265.76 240.43 1241.08 240.882C1238.91 240.922 1237.17 239.751 1236 237.958C1240.13 238.174 1245.29 238.725 1249.21 237.335C1245.45 235.862 1241.37 236.993 1237.46 236.736C1235.84 236.628 1235.12 236.702 1234.03 235.452C1233.77 233.41 1233.6 231.41 1234.23 229.413C1236.94 220.764 1252.31 227.66 1258.43 224.414L1258.81 222.667C1253.77 220.524 1244.96 221.777 1239.44 221.922C1241.86 219.233 1244.47 216.672 1246.98 214.07C1253.08 214.189 1272.81 215.807 1276.75 213.141C1276.65 212.988 1276.64 212.954 1276.5 212.802C1274.02 210.027 1255.34 210.943 1251.05 210.827C1254.53 207.425 1257.6 203.683 1261.3 200.5C1265.66 203.176 1278.42 201.928 1283.44 201.086C1280.14 198.643 1265.75 200.043 1261.3 200.5C1263.52 198.531 1265.49 196.356 1267.49 194.166C1274.43 194.739 1283.86 195.149 1290.54 193.521C1283.51 192.568 1276.11 192.894 1269.04 193.225C1270.58 191.156 1277.73 183.898 1279.92 181.511C1288.37 181.592 1309.84 182.173 1317.45 181.193C1315.24 179.559 1286.85 180.136 1282.55 180.114C1285.01 177.221 1287.66 174.412 1290.24 171.622C1295.37 171.917 1303.76 172.687 1308.57 171.901C1309.01 170.388 1309.82 167.673 1309.42 166.295C1306.35 165.381 1299.54 165.939 1296.04 166.083C1301.36 162.044 1305.33 157.452 1310.35 153.196C1311.7 152.055 1315.4 152.54 1317.75 151.852L1314.57 151.229C1314.19 150.904 1313.74 150.513 1313.21 150.055C1311.28 141.457 1307.35 129.967 1304.71 121.837C1311.85 121.851 1314.75 122.343 1321.74 120.894C1321.11 120.513 1307.27 120.539 1305 120.473C1303.04 118.588 1303.32 117.873 1302.39 114.917C1304.63 114.08 1320.62 114.197 1323.76 114.375C1321.74 113.562 1321.08 112.668 1319.64 111.097C1318.68 108.974 1319.47 106.638 1319.96 104.327C1314.68 104.557 1304.8 105.541 1299.55 103.812C1298.38 103.427 1298.2 101.352 1297.85 99.937C1308.69 99.9936 1321.77 100.258 1332.44 99.5161C1330.41 97.7661 1301.69 98.2767 1297.76 99.0054C1296.47 96.6203 1292.01 87.0339 1296.48 86.5786C1303.69 85.8443 1328.12 88.5201 1333.18 85.5181C1330.02 83.0858 1299.01 84.1181 1292.76 84.1353C1292.18 82.6307 1289.97 76.7164 1289.17 75.8999C1282.41 68.946 1281.11 72.9789 1283.32 62.8677ZM639.44 63.0581C672.098 62.2736 705.068 62.1401 737.719 63.019C746.308 63.2503 752.572 67.1967 757.74 73.7046C764.404 89.502 756.516 106.927 751.706 122.418L736.122 173.924C733.703 181.809 728.198 198.118 726.82 205.665C724.777 211.588 721.309 219.248 722.926 225.535C724.013 229.763 726.764 231.366 730.281 233.456C729.236 235.838 728.491 238.358 727.683 240.83C717.646 240.804 648.186 241.663 645.05 240.637C642.538 239.815 639.435 236.699 638.259 234.381C637.406 232.702 637.425 231.757 637.969 230.009C642.525 225.721 659.073 230.203 665.577 228.009L665.564 227.055C662.649 225.675 651.541 227.031 647.612 226.904C644.723 226.81 642.037 226.855 639.981 224.662L640.436 223.018C643.74 219.484 652.305 220.933 657.073 220.482C653.395 220.098 644.927 220.087 642.288 217.413L642.664 216.341C649.64 214.388 657.68 217.558 664.642 215.71C665.231 215.554 665.259 215.234 665.551 214.721C659.323 212.223 650.375 216.076 643.733 213.429L643.551 212.318C647.922 207.819 659.316 212.026 665.246 209.99L666.044 208.166C669.343 205.203 679.508 206.697 684.098 206.381L684.424 206.339L684.854 205.761C679.829 203.953 670.653 205.117 665.139 205.082L664.701 203.909C659.688 202.946 654.44 204.54 649.464 203.877C647.96 203.677 647.439 203.446 646.565 202.267L647.038 200.438C651.217 197.88 666.262 200.303 672.393 199.166C673.995 198.868 674.866 198.77 675.808 197.413L674.855 196.408C666.123 196.116 657.375 196.159 648.638 195.941C649.924 192.15 651.261 188.376 652.649 184.622C641.584 195.982 631.66 208.894 621.355 220.987C616.923 226.188 612.519 232.226 607.132 236.475C604.99 238.164 602.713 239.573 600.011 240.132C595.59 241.047 559.352 241.535 554.145 240.868C551.44 240.521 548.664 239.493 546.974 237.246C545.706 235.561 545.616 234.251 545.878 232.243C550.157 226.418 574.974 230.852 582.673 229.37C583.377 228.421 583.718 228.188 583.739 226.982C572.411 225.417 558.063 228.938 547.266 226.266L547.43 224.273C553.654 216.235 569.978 224.038 578.047 220.519C571.234 216.577 555.288 222.614 549.429 218.496L549.42 217.231C552.609 215.416 558.041 215.2 561.707 214.65C558.285 213.673 554.514 214.031 550.988 214.104L552.392 206.709C557.145 206.689 577.445 208.151 580.433 206.189L580.539 203.188C573.389 204.294 561.182 204.769 554.324 202.605L554.271 202C556.992 200.828 559.423 200.941 562.31 201.06C566.702 201.004 587.437 201.503 589.479 200.402L589.846 198.883C587.811 197.067 560.561 197.957 555.729 197.927C556.455 195.02 557.07 191.832 557.699 188.881C562.691 188.586 567.141 188.769 572.138 188.935C574.872 186.069 577.388 183.687 580.284 181C586.189 181.108 592.262 181.346 598.127 180.756L598.902 179.546L598.162 178.584C594.791 177.492 587.855 177.826 583.941 177.74L583.458 176.901C587.629 174.057 614.074 177.255 617.949 174.942L617.848 173.692C612.739 169.49 589.332 175.634 584.893 169.716L585.318 168.729C590.888 168.227 605.919 169.135 609.258 168.329L609.858 166.94L609.112 165.529C603.132 164.908 587.947 165.301 581.075 165.204C579.742 162.104 578.12 157.084 576.943 153.779C584.679 154.251 606.474 155.039 613 152.354C611.228 150.942 580.337 151.369 576.368 151.357C576.23 148.071 575.755 143.812 576.903 140.832C579.066 138.468 578.429 139.69 581.589 139.26C582.898 135.015 581.16 133.96 578.41 131.269C577.687 129.346 579.141 126.521 579.931 124.468C582.326 124.783 583.544 124.976 585.968 124.824C590.852 124.942 595.453 125.124 600.332 124.767C601.615 124.908 602 124.673 603.178 124.175C601.189 123.04 583.284 123.574 579.827 123.651C580.514 119.589 580.955 117.938 582.215 114.08C587.219 114.671 620.901 114.52 624.611 113.585C621.485 110.744 588.57 114.805 583.56 111.131L583.858 110.098C590.686 106.353 618.836 109.868 628.195 108.206C628.329 106.699 628.554 105.376 628.105 103.923C621.059 103.197 588.835 105.604 586.099 102.283L586.501 101.264C592.69 97.1147 635.761 101.539 644.7 99.1196L644.679 98.2856C640.118 97.0854 596.115 98.2107 588.109 98.2437C589.088 95.4836 590.278 92.5527 591.335 89.7983C597.933 89.4097 630.105 90.1974 632.854 89.2769L632.487 88.2329C626.687 85.2524 597.888 88.1173 594.734 86.6421C596.781 75.9787 613.143 84.4579 618.481 80.5063L618.337 79.3149C616.043 77.4404 603.548 78.4502 599.898 78.5991L608.869 71.9585C613.316 72.4187 643.522 72.6284 645.407 71.7866L644.596 71.0688C635.732 71.7417 619.787 71.2948 610.432 71.1509C613.528 69.3715 615.284 68.5574 618.599 67.2075C624.604 65.4209 633.125 63.2099 639.44 63.0581ZM74.5176 13.9614C77.3257 12.752 233.012 12.4691 236.909 13.7593C233.621 23.3372 231.254 33.6026 227.792 42.7896C225.803 50.6217 223.62 57.4073 216.797 62.7554C215.238 63.5664 211.201 65.6286 209.674 65.7954C193.951 67.5111 176.303 66.2146 160.388 66.5933C157.265 80.0451 151.354 98.0659 147.289 111.648L127.444 178.421C123.204 192.33 118.674 206.105 115.021 220.219C111.997 231.908 125.827 228.041 123.791 237.326C123.564 238.361 123.1 239.799 122.779 240.833C109.515 240.605 34.3516 241.964 28.3086 239.867L27.9424 239.192L31.2656 237.642C28.2499 237.259 22.3634 237.123 22.7832 233.175C27.2705 228.656 43.1883 233.05 45.8594 230.227C43.4281 228.514 34.6663 229.888 33.8057 229.281C28.5974 225.598 29.5703 226.413 22.291 227.131C23.1035 224.383 24.5743 219.905 24.9297 217.208C27.3462 217.096 34.8804 216.938 36.7627 216.085C32.1129 213.419 28.1005 214.351 26.8799 210.602C27.27 209.356 28.1458 208.147 29.374 207.629C39.3077 207.863 49.2919 207.616 59.2314 207.631C64.4499 207.639 70.4353 208.294 75.5654 207.505C68.5747 203.838 38.4351 206.495 28.1211 205.628C31.2691 198.078 43.2315 205.229 47.9922 201.901C46.5548 198.419 34.5146 201.882 30.6846 199.509L31.1631 197.994C35.2066 195.127 43.1823 197.16 48 197.02L48.2832 196.108L47.6445 195.118C42.539 194.805 37.3004 195.063 32.1807 195.091C32.8622 192.047 33.8445 189.041 34.7158 186.044C45.9198 185.674 57.1637 186.457 68.3828 186.114L69.3174 185.065C59.5187 181.632 45.1759 187.074 35.124 183.734C35.3969 183.083 35.6568 182.068 36.1719 181.592C37.2186 180.627 39.6016 180.35 42.0918 180.325C39.9633 180.105 37.9944 179.644 37 178.635L37.4941 177.328C38.4348 176.802 69.7252 174.932 72.8105 174.836C79.5956 174.626 86.3341 175.283 93.1064 174.528L93.6553 173.627C88.7133 170.683 43.4634 175.569 39.2988 171.843C40.9412 170.428 48.4016 170.771 50.8018 170.534L51.1475 169.843C48.2276 168.818 44.183 169.307 41.0869 169.314C44.5376 168.628 48.1307 168.888 51.6084 168.315C55.7307 167.636 59.3389 166.153 63.6074 165.853C68.1946 165.531 72.8024 166.005 77.3779 165.523L76.2197 164.983C73.5193 164.693 71.0486 163.508 68.2695 163.237C61.2762 162.553 53.8953 162.968 46.8477 162.827C45.0966 162.792 43.7015 162.708 42.0508 162.071C42.1587 160.242 42.3707 158.927 43.1494 157.235C44.8852 155.598 49.2026 155.959 51.6084 155.568L54.3408 156.153C57.5924 155.651 61.2442 155.904 64.5479 155.843C65.3698 153.426 65.813 150.921 66.3008 148.42C61.1875 148.503 53.7563 149.839 48.9697 148.292C47.5033 147.819 47.3649 147.527 46.6826 146.221C46.9814 144.903 47.2152 143.209 47.9268 142.054C49.1194 140.12 60.3504 140.644 63.4541 139.896C60.7884 138.92 57.6273 139.146 54.8164 139.102C53.0295 139.257 51.4664 139.525 49.8506 138.561L49.9775 137.664C52.7183 135.917 55.9554 136.415 59.0508 136.588C65.2853 136.25 74.8448 137.78 80.0078 135.553C81.5677 133.757 81.2671 134.588 81.2266 132.227C78.7034 130.159 55.6766 133.196 51.4893 130.154L51.8682 129.164C53.4272 128.691 66.2976 127.999 68.5674 128.046C62.702 126.893 63.2053 127.885 63.1279 122.399C61.3835 121.383 57.8567 121.864 55.5957 121.97L54.7539 120.877L55.3311 117.8C57.5969 116.296 60.5677 117.295 63.2051 116.838C63.2005 116.839 65.2777 112.778 66.3604 112.337C70.7909 110.534 76.3418 113.194 80.8232 111.447L80.9141 110.421C78.4433 108.664 78.7259 109.226 75.1611 109.136L73.8965 106.284L74.0605 103.183C71.6094 101.563 69.0604 101.936 65.8652 101.84L64.8828 100.704C65.08 98.9547 65.0584 98.166 66.2207 96.8013C71.2544 95.4957 98.5317 95.9195 104.289 96.5308L104.155 88.897C95.499 88.7058 88.1798 88.0175 79.0215 87.9917C78.9283 86.6074 78.9098 85.5565 78.5078 84.2173C75.181 84.135 66.9148 85.2864 65.8291 82.1255C69.2753 75.5932 86.2638 81.4914 89.5771 78.4478C89.7604 76.3598 89.9082 75.2872 89.584 73.1743C81.9553 73.9545 83.3607 75.0954 79.1758 70.0513C78.9152 69.7379 73.1056 70.7257 70.5127 69.1167C70.2358 66.793 70.0345 67.5681 71.001 65.7222C76.4862 62.313 101.795 64.8601 111.09 63.6011C109.221 61.1144 74.9682 63.7522 72.7812 62.0063C72.8802 59.3516 72.4489 59.6562 73.917 57.9565C78.6116 56.2497 89.2062 58.6339 94.1582 57.5806C104.756 55.3261 112.555 54.8654 123.235 54.2847L123.72 53.4399C121.458 49.3192 110.139 54.673 104.433 51.3433C104.408 51.0421 104.377 50.7413 104.343 50.4409C103.872 46.3564 101.28 50.1566 98.3057 47.7964C98.4588 46.1813 98.5605 44.5616 98.6113 42.9399C93.355 40.9458 82.1377 44.3448 78.7666 41.2739L79.1113 38.394C95.8789 38.3896 115.221 38.8538 131.777 38.2632L131.423 37.1948C128.163 36.2756 85.0625 36.7372 80.2988 37.3521L79.5195 35.145C84.188 31.3557 88.4256 34.9235 94.0928 33.1021C95.5702 31.5433 95.2187 32.2992 95.2803 29.8872C92.4592 27.8899 83.9228 31.3428 80.5303 26.5483C78.7942 24.0948 75.5853 21.986 72.9629 20.5327L74.5176 13.9614ZM1355.99 234.289C1352.83 234.253 1349.09 234.265 1345.99 234.844C1347.41 236.296 1349.32 235.984 1351.31 235.998C1354.87 236.023 1358.46 235.655 1362.01 235.857C1360.22 234.016 1358.48 234.316 1355.99 234.289ZM1164.88 231.993C1160.95 229.836 1141.21 230.389 1136.38 231.304C1139.85 233.733 1159.89 232.676 1164.88 231.993ZM286.255 106.806C283.259 105.794 279.618 106.348 276.496 106.509C268.131 114.813 265.877 131.181 262.908 142.306C260.195 149.981 246.696 188.881 249.229 194.378C249.975 195.995 250.92 196.703 252.563 197.29C254.629 198.027 257.099 197.866 259.077 196.938C259.836 196.582 260.54 196.079 261.199 195.568C261.358 195.499 261.517 195.43 261.68 195.37C261.773 195.335 261.869 195.302 261.963 195.267C272.334 191.359 285.548 196.011 296.38 193.506C288.088 189.612 277.012 194.494 268.606 192.291C266.85 191.83 266.451 191.163 265.577 189.694L266.284 187.966C269.341 186.034 273.349 186.718 276.96 186.349L277.041 184.864C274.68 183.134 270.819 185.173 268.047 183.665L268.081 182.818C272.453 181.17 279.617 182.455 283.258 180.449C279.002 180.354 273.809 180.751 269.746 179.542L269.445 178.704C274.072 176.666 310.418 179.369 316.813 176.484C312.535 173.576 278.443 177.457 271.456 174.369C271.162 172.973 271.107 172.458 271.688 171.074C271.945 170.464 273.281 168.635 273.869 168.378C279.981 165.707 296.671 170.463 303.669 167.482C303.964 167.357 304.121 166.687 304.246 166.38C302.526 164.883 300.949 165.126 298.712 164.9L298.544 162.917C298.683 161.245 298.536 159.602 298.411 157.934C295.657 156.184 280.388 157.359 276.301 157.452L278.416 148.727C286.818 148.804 295.556 148.14 303.887 148.879L304.415 147.503C304.306 147.231 304.024 146.267 303.848 146.091C302.726 144.969 283.515 148.33 279.744 145.473L279.786 144.016C281.521 142.716 290.613 143.489 293.196 143.424C293.271 141.155 293.416 139.131 294.06 136.945C303.375 135.304 314.386 138.586 323.407 136.286C321.042 133.681 299.206 135.274 294.218 134.882L293.588 133.92C294.998 131.674 299.65 133.535 301.995 131.465C301.871 128.559 298.942 127.243 298.638 124.271C301.732 120.821 311.895 122.714 316.422 122.382C318.123 122.257 318.537 122.072 319.631 120.83L318.938 119.958C308.6 119.222 298.224 120.153 287.877 119.72C286.94 118.363 288.89 113.362 288.824 111.156C288.762 109.059 287.666 108.133 286.255 106.806ZM476.692 110.878C474.253 110.888 470.556 111.813 468.805 113.6C462.422 120.109 447.225 180.869 442.339 195.211C446.807 195.118 451.721 195.123 456.144 194.91L462.802 189.753C467.928 190.485 473.63 190.49 478.776 189.943L478.462 188.996C473.754 188.018 467.999 188.675 463.164 188.739C463.776 184.836 464 181.67 467.065 179.035C474.716 180.634 501.104 180.04 509.28 178.713C507.346 177.032 471.137 178.032 466.231 178.188L467.904 170.234C480.1 170.046 492.299 170.108 504.492 170.422C504.631 169.448 504.833 167.703 505.419 166.904C507.099 164.613 519.88 168.168 522.74 165.543C519.414 162.6 492.014 161.97 486.288 161.979C482.71 161.985 477.576 162.833 474.213 162.064C472.67 161.711 472.518 161.313 471.745 160.055C471.806 158.378 472.01 157.274 472.849 155.809C474.944 155.739 476.987 155.487 479.062 155.21L478.723 154.662L473.355 153.675C478.425 150.69 485.183 152.699 490.612 151.408C493.763 150.658 493.706 148.002 496.262 146.831C498.228 145.929 500.561 146.447 502.619 145.788L502.971 143.945C501.035 142.366 496.444 143.832 493.656 142.556C492.456 140.758 493.006 139.753 493.319 137.677C500.536 138.168 510.231 138.608 517.298 137.224C516.955 137.007 516.717 136.859 516.302 136.819C508.909 136.104 501.578 136.258 494.162 136.35L478.781 136.366C479.279 134.263 479.441 133.429 480.454 131.462C481.967 130.137 487.369 129.019 488.797 129.64L489.24 127.145C487.404 121.71 485.588 124.949 482.637 122.736L483.37 121.582C487.836 121.582 509.946 121.957 513.053 120.399C503.741 119.422 492.956 119.722 483.523 119.923C483.752 117.491 484.167 115.562 483.007 113.409C481.302 111.7 479.111 110.869 476.692 110.878ZM673.744 113.653C668.494 113.231 662.602 112.933 657.37 113.852C655.169 117.746 654.067 121.101 652.604 124.95C644.673 145.809 658.897 139.651 672.152 138.17C676.579 137.676 683.477 138.294 688.318 137.897C689.048 136.737 689.185 136.564 689.066 135.199C685.715 134.227 670.775 137.435 668.067 134.037C667.747 133.635 667.64 131.632 667.6 130.927C671.227 122.876 689.471 129.491 694.932 126.512L694.944 125.199C690.807 123.8 676.647 124.957 670.134 124.151C670.555 122.712 672.388 116.827 672.536 115.697C680.471 115.725 715.166 116.487 720.101 114.755C710.285 114.055 679.443 115.038 673.952 113.706L673.744 113.653ZM1325.29 133.943C1321.35 131.875 1313.03 132.565 1308.63 133.224C1312.19 135.479 1321.15 134.496 1325.29 133.943ZM311.125 115.101C306.031 114.712 295.22 114.782 290.23 115.574C292.536 117.103 308.203 116.379 312.178 116.283C312.027 115.771 311.577 115.506 311.125 115.101ZM1207.4 99.2339L1208.13 98.8384L1208.09 98.4468L1207.4 99.2339ZM886.737 91.8843L887.389 91.7163L887.625 91.2065C887.291 91.1225 886.95 91.0495 886.603 90.9849L886.737 91.8843ZM806.046 77.9644L806.243 77.6831L806.058 76.9702L806.046 77.9644ZM102.425 73.1021C98.8708 71.0349 93.7901 71.9576 89.8545 72.4214C93.4221 74.1178 98.5816 73.4607 102.425 73.1021ZM616.863 12.6431C619.925 12.6431 622.622 13.0539 624.952 13.8765C627.328 14.699 629.18 15.8645 630.505 17.3726C631.83 18.8349 632.492 20.5718 632.492 22.5825C632.492 24.319 631.967 25.8954 630.916 27.312C629.911 28.7286 628.494 29.8715 626.666 30.7397C626.209 30.9568 625.734 31.1504 625.243 31.3218C626.292 31.7268 627.224 32.2404 628.037 32.8647C630.048 34.3271 631.053 36.3153 631.053 38.8286C631.053 41.1134 630.185 43.1697 628.448 44.9976C626.757 46.8255 624.426 48.2649 621.456 49.3159C618.531 50.3669 615.15 50.893 611.312 50.8931C605.873 50.8931 600.823 49.636 596.162 47.1226L599.727 39.9253C601.28 40.7935 603.108 41.4793 605.21 41.9819C607.312 42.4389 609.483 42.6675 611.723 42.6675C613.642 42.6675 615.265 42.4842 616.59 42.1187C617.915 41.7074 618.943 41.1585 619.674 40.4731C620.405 39.742 620.771 38.8966 620.771 37.937C620.77 36.8861 620.337 36.0859 619.469 35.5376C618.601 34.9892 617.321 34.7154 615.63 34.7153H608.09L609.117 28.0659H615.424C617.435 28.0659 619.012 27.7241 620.154 27.0386C621.342 26.3531 621.936 25.4387 621.937 24.2964C621.937 23.1996 621.433 22.3543 620.428 21.7603C619.468 21.1662 617.937 20.8687 615.835 20.8687C614.099 20.8687 612.362 21.0973 610.626 21.5542C608.889 22.0112 606.924 22.7195 604.73 23.6792L602.469 15.6587C604.799 14.6534 607.198 13.8996 609.666 13.397C612.134 12.8943 614.533 12.6431 616.863 12.6431ZM268.778 12.7798C272.708 12.7798 276.113 13.6025 278.992 15.2476C281.871 16.847 283.996 19.1326 285.367 22.103L276.319 26.6265C275.542 24.89 274.445 23.6338 273.028 22.8569C271.657 22.0344 270.012 21.6226 268.093 21.6226C265.991 21.6226 264.118 22.1488 262.473 23.1997C260.828 24.2051 259.525 25.6218 258.565 27.4497C257.606 29.2319 257.125 31.3108 257.125 33.687C257.125 36.2004 257.857 38.2112 259.319 39.7192C260.827 41.1816 262.952 41.9126 265.694 41.9126C267.568 41.9125 269.281 41.5244 270.835 40.7476C272.389 39.925 273.691 38.6687 274.742 36.978L282.625 41.9126C280.888 44.7002 278.467 46.8715 275.359 48.4253C272.298 49.979 268.87 50.7554 265.077 50.7554C261.284 50.7554 257.971 50.0706 255.138 48.6997C252.35 47.3288 250.18 45.4086 248.626 42.9409C247.072 40.4733 246.295 37.5717 246.295 34.2358C246.295 30.123 247.255 26.4669 249.174 23.2681C251.093 20.0235 253.743 17.464 257.125 15.5903C260.507 13.7167 264.391 12.7798 268.778 12.7798ZM307.691 12.7798C311.301 12.7798 314.409 13.4656 317.014 14.8364C319.618 16.1617 321.629 18.0356 323.046 20.4575C324.508 22.8338 325.24 25.6899 325.24 29.0259C325.24 29.9855 325.171 30.9452 325.034 31.9048C324.943 32.8645 324.806 33.7787 324.623 34.647H296.41C296.56 37.0387 297.326 38.8664 298.712 40.1304C300.311 41.5013 302.71 42.187 305.909 42.187C307.783 42.187 309.588 41.8904 311.324 41.2964C313.061 40.7023 314.546 39.8569 315.78 38.7603L320.236 45.8198C318.088 47.5107 315.666 48.7678 312.97 49.5903C310.319 50.3672 307.6 50.7554 304.812 50.7554C300.974 50.7554 297.638 50.0706 294.805 48.6997C292.017 47.3288 289.847 45.4086 288.293 42.9409C286.739 40.4733 285.962 37.5717 285.962 34.2358C285.962 30.123 286.876 26.467 288.704 23.2681C290.578 20.0235 293.136 17.464 296.381 15.5903C299.671 13.7167 303.442 12.7798 307.691 12.7798ZM495.003 12.7798C498.065 12.7798 500.692 13.3512 502.886 14.4937C504.593 15.3827 505.952 16.6607 506.967 18.3247L507.958 13.3286H518.651L511.317 50.2075H501.172L501.89 46.5454C501.276 47.1064 500.626 47.62 499.938 48.0825C497.334 49.8648 494.203 50.7554 490.547 50.7554C487.714 50.7553 485.086 50.1159 482.664 48.8364C480.242 47.5112 478.3 45.6146 476.838 43.147C475.376 40.6793 474.645 37.7088 474.645 34.2358C474.645 31.1284 475.147 28.2722 476.152 25.6675C477.203 23.0628 478.666 20.8006 480.539 18.8813C482.413 16.9621 484.583 15.4764 487.051 14.4253C489.519 13.3285 492.17 12.7798 495.003 12.7798ZM573.729 12.7798C576.79 12.7798 579.419 13.3512 581.612 14.4937C583.319 15.3829 584.678 16.6614 585.693 18.3257L586.685 13.3286H597.378L590.043 50.2075H579.898L580.616 46.5454C580.002 47.1065 579.352 47.6199 578.664 48.0825C576.059 49.8646 572.929 50.7553 569.273 50.7554C566.44 50.7554 563.813 50.1159 561.391 48.8364C558.969 47.5112 557.026 45.6147 555.563 43.147C554.101 40.6793 553.37 37.7088 553.37 34.2358C553.37 31.1285 553.873 28.2722 554.878 25.6675C555.929 23.0627 557.392 20.8007 559.266 18.8813C561.139 16.962 563.31 15.4764 565.777 14.4253C568.245 13.3286 570.895 12.7798 573.729 12.7798ZM751.437 12.7798C755.229 12.7798 758.496 13.4656 761.238 14.8364C764.026 16.2073 766.174 18.1267 767.682 20.5942C769.235 23.0163 770.013 25.9186 770.013 29.3003C770.013 33.3674 769.053 37.0235 767.134 40.2681C765.215 43.5125 762.587 46.0712 759.251 47.9448C755.915 49.8185 752.076 50.7554 747.734 50.7554C743.987 50.7553 740.72 50.0705 737.933 48.6997C735.145 47.3288 732.974 45.4086 731.42 42.9409C729.912 40.4733 729.158 37.5716 729.158 34.2358C729.158 30.123 730.118 26.4669 732.037 23.2681C733.956 20.0235 736.584 17.464 739.92 15.5903C743.302 13.7167 747.141 12.7798 751.437 12.7798ZM362.479 22.103H349.933L344.45 50.2075H333.757L339.239 22.103H326.902L328.685 13.3286H364.261L362.479 22.103ZM376.885 25.1187H385.591C389.886 25.1187 393.131 26.0103 395.324 27.7925C397.563 29.529 398.684 32.1339 398.684 35.6069C398.684 38.5314 397.906 41.0903 396.353 43.2837C394.844 45.4772 392.719 47.1914 389.978 48.4253C387.236 49.6134 383.991 50.2075 380.244 50.2075H361.188L368.591 13.3286H379.216L376.885 25.1187ZM445.199 34.6499L462.002 13.3286H472.147L464.881 50.2075H455.216L459.483 28.4058L445.07 46.6431H440.547L433.339 27.6792L428.894 50.2075H419.229L426.631 13.3286H437.667L445.199 34.6499ZM555.344 22.103H536.378L530.872 50.2075H520.179L527.581 13.3286H557.057L555.344 22.103ZM648.39 35.7437L670.668 13.3286H680.744L673.409 50.2075H662.647L667.309 27.7231L645.031 50.2075H634.886L642.289 13.3286H652.982L648.39 35.7437ZM697.397 27.7231H713.438L716.316 13.3286H726.941L719.606 50.2075H708.913L711.655 36.4292H695.684L692.941 50.2075H682.248L689.651 13.3286H700.276L697.397 27.7231ZM798.198 13.3286C802.402 13.3286 805.647 14.0825 807.932 15.5903C810.217 17.0984 811.359 19.2697 811.359 22.103C811.359 25.2104 809.988 27.7238 807.246 29.6431C806.371 30.2513 805.398 30.7586 804.33 31.1694C805.032 31.4528 805.663 31.7877 806.219 32.1792C808.229 33.5958 809.234 35.7665 809.234 38.6909C809.234 42.2553 807.749 45.0661 804.779 47.1226C801.855 49.179 797.741 50.2075 792.44 50.2075H772.287L779.69 13.3286H798.198ZM783.598 42.9409H792.646C794.747 42.9409 796.393 42.5073 797.581 41.6392C798.815 40.7709 799.432 39.6053 799.432 38.1431C799.432 37.0007 799.021 36.1553 798.198 35.6069C797.421 35.0586 796.21 34.7837 794.565 34.7837H785.242L783.598 42.9409ZM373.389 42.6675H380.244C381.798 42.6674 383.146 42.4152 384.288 41.9126C385.43 41.3642 386.322 40.6105 386.962 39.6509C387.602 38.6913 387.921 37.5483 387.921 36.2231C387.921 33.4358 386.093 32.0425 382.438 32.0425H375.514L373.389 42.6675ZM750.819 21.5542C748.717 21.5542 746.843 22.0803 745.198 23.1313C743.599 24.1367 742.319 25.5527 741.359 27.3804C740.445 29.2082 739.989 31.3335 739.989 33.7554C739.989 36.2688 740.72 38.2796 742.183 39.7876C743.645 41.2499 745.724 41.9819 748.42 41.9819C750.522 41.9819 752.373 41.4785 753.973 40.4731C755.618 39.4221 756.898 37.9826 757.812 36.1548C758.725 34.3269 759.183 32.2017 759.183 29.7798C759.183 27.3122 758.451 25.3239 756.988 23.8159C755.526 22.3081 753.47 21.5542 750.819 21.5542ZM496.236 21.6226C494.18 21.6226 492.33 22.1487 490.685 23.1997C489.039 24.2051 487.737 25.6218 486.777 27.4497C485.863 29.2318 485.406 31.3336 485.406 33.7554C485.406 36.2687 486.137 38.2569 487.6 39.7192C489.108 41.1816 491.187 41.9126 493.838 41.9126C495.94 41.9125 497.79 41.4101 499.39 40.4048C501.035 39.3537 502.315 37.937 503.229 36.1548C504.188 34.3269 504.668 32.2017 504.668 29.7798C504.668 27.2665 503.914 25.2782 502.406 23.8159C500.944 22.3536 498.887 21.6226 496.236 21.6226ZM574.963 21.6226C572.906 21.6226 571.055 22.1486 569.41 23.1997C567.765 24.2051 566.463 25.6219 565.503 27.4497C564.589 29.2318 564.132 31.3337 564.132 33.7554C564.132 36.2686 564.863 38.2569 566.325 39.7192C567.833 41.1816 569.913 41.9126 572.563 41.9126C574.666 41.9126 576.517 41.4102 578.116 40.4048C579.761 39.3537 581.04 37.9369 581.954 36.1548C582.914 34.3268 583.395 32.2018 583.395 29.7798C583.394 27.2665 582.64 25.2782 581.132 23.8159C579.67 22.3538 577.613 21.6226 574.963 21.6226ZM786.477 28.478H794.565C796.485 28.478 798.038 28.0662 799.227 27.2437C800.415 26.3755 801.009 25.256 801.009 23.8853C801.009 22.7428 800.597 21.8975 799.774 21.3491C798.952 20.8008 797.741 20.5259 796.142 20.5259H788.053L786.477 28.478ZM307.212 20.8003C304.881 20.8003 302.893 21.3717 301.248 22.5142C299.649 23.6109 298.438 25.1419 297.615 27.1069C297.438 27.5292 297.281 27.9632 297.143 28.4087H315.436C315.469 27.1807 315.287 26.1066 314.889 25.187C314.295 23.7706 313.335 22.6964 312.01 21.9653C310.685 21.1886 309.085 20.8003 307.212 20.8003Z" fill="black"/>
</svg>
