<svg width="72" height="26" viewBox="0 0 72 26" fill="none" xmlns="http://www.w3.org/2000/svg">
<g clip-path="url(#clip0_178_186)">
<path d="M34.0911 0.00654298H25.3003C23.1078 0.00327198 20.7111 0 20.1109 0C19.3547 0 17.9307 0.375891 17.159 1.43806C13.9597 5.84325 4.24984 19.161 0.0804462 24.7847C-0.119117 25.054 0.0757515 25.4344 0.41091 25.4346C5.1632 25.4365 8.16194 25.4553 13.3825 25.4669C14.3461 25.469 15.5945 24.8106 16.1756 24.0486C19.1114 20.2026 23.378 14.5313 27.1355 9.45843H27.155L34.0911 0.00654298ZM58.2153 0.006596C57.2517 0.004486 56.0035 0.663019 55.4223 1.425C51.2246 6.92419 47.0826 12.4682 42.7686 18.2526L42.7675 18.255C40.7938 17.5115 41.5522 16.2375 42.3085 15.2232C43.742 13.3482 45.5413 11.0153 46.3623 9.79402C47.0323 8.79753 50.2424 5.26189 48.7781 2.51685C47.7286 0.549165 44.4685 0.119999 41.3434 0.030922L41.3608 0.006596H38.4345H37.4062L37.0602 0.489536C37.0121 0.536718 36.9656 0.587054 36.9223 0.643933C36.2619 1.50915 35.7431 2.24794 35.3339 2.89082C34.0017 4.71655 30.5429 9.47093 29.9887 10.2637C26.7677 14.8716 24.0834 25.4609 42.319 25.4609C42.319 25.4609 50.3171 25.4735 51.487 25.4735C52.2432 25.4735 53.6671 25.0976 54.4388 24.0355C57.7689 19.4502 68.1524 5.20938 71.9999 0.039126C66.7626 0.039126 63.7274 0.018878 58.2153 0.006596Z" fill="black"/>
</g>
<defs>
<clipPath id="clip0_178_186">
<rect width="72" height="25.47" fill="white"/>
</clipPath>
</defs>
</svg>
