<svg width="601" height="236" viewBox="0 0 601 236" fill="none" xmlns="http://www.w3.org/2000/svg">
<path d="M11.3467 118.398C13.7823 119.085 34.6011 118.819 38.0441 118.804L84.8006 118.759C92.9692 118.771 102.494 118.56 110.501 118.917C112.668 120.5 123.113 133.655 125.743 136.858L167.945 188.689L180.658 204.174C182.546 206.438 187.782 212.472 189.019 214.774C187.246 215.241 180.876 215.054 178.642 215.057L159.28 215.071L116.924 215.072C111.621 215.079 94.8782 215.748 90.3197 214.598C85.9863 210.751 76.6644 198.458 72.4624 193.403C56.5132 174.39 40.7613 155.212 25.2088 135.872C22.881 133.003 12.4796 120.991 11.3467 118.398Z" fill="black"/>
<path d="M83.7384 22.1592C103.579 21.8697 123.892 22.1085 143.772 22.0985L165.811 22.0774C170.607 22.0695 175.911 21.9377 180.658 22.2723C180.524 22.4886 180.382 22.7 180.233 22.9062C170.142 36.7359 157.885 50.839 147.36 64.5913L122.969 96.0302C119.195 100.835 115.335 105.961 111.336 110.598C110.798 111.222 109.727 111.363 108.922 111.494C86.4541 112.226 63.4854 111.368 40.9652 111.624C31.5403 111.731 21.4919 111.739 12.1072 111.396C14.7445 107.459 18.4183 103.139 21.4029 99.3351L41.3214 74.1575L68.9987 39.0377C71.5402 35.8712 81.2024 22.8787 83.7384 22.1592Z" fill="black"/>
<path d="M169.94 118.125C175.404 117.913 181.531 118.061 187.069 118.065L217.517 118.08C234.43 118.075 253.591 117.572 270.207 118.18C262.538 127.07 254.132 137.934 246.75 147.093C237.208 158.899 227.499 170.569 217.625 182.099C213.827 186.383 196.944 208.212 194.181 209.773C191.492 207.828 183.31 196.935 180.539 193.611C171.903 183.426 163.402 173.127 155.037 162.719C152.039 159.038 146.978 153.387 144.411 149.771C147.516 144.344 156.376 134.966 160.451 129.523C161.739 127.802 168.605 119.314 169.94 118.125Z" fill="black"/>
<path d="M315.393 74.0097C317.872 66.9972 321.815 35.7578 323.886 32.9376C325.84 32.5798 330.088 32.797 332.287 32.7991C337.715 32.775 343.141 32.7829 348.566 32.8232C348.691 40.4708 348.365 49.0426 348.383 56.8869C348.609 75.5671 348.642 94.2489 348.48 112.93C343.476 112.712 337.118 112.899 332.007 112.909C331.796 104.159 331.927 95.0761 331.952 86.3003C331.958 80.8324 331.879 76.0009 331.488 70.5516C327.71 83.754 325.322 99.3001 321.916 112.887C317.607 112.883 313.038 112.806 308.754 112.978C305.579 99.0341 301.523 84.2051 298.031 70.2902C297.309 75.6452 297.428 83.854 297.473 89.3405C297.592 97.1961 297.623 105.053 297.565 112.909C292.676 112.896 287.44 112.791 282.584 113.044C282.501 94.3429 282.565 75.6409 282.778 56.9402C282.799 50.596 282.634 40.1859 282.902 33.4439C283.076 33.1816 283.222 32.9596 283.343 32.7781C290.753 32.8229 299.736 32.4624 306.909 32.872C307.799 35.5096 309.187 42.9671 309.821 45.9975C311.794 55.3111 313.651 64.6494 315.393 74.0097Z" fill="black"/>
<path d="M515.874 32.2084C525.825 31.1207 540.914 33.254 541.244 45.9522C541.71 63.8388 541.857 81.8084 541.396 99.698C541.14 109.643 531.827 112.483 523.504 113.426C516.371 113.822 507.906 113.969 501.935 109.325C496.333 104.967 497.483 96.6392 497.486 90.0501L497.504 72.7202C497.513 63.6378 497.178 54.4587 497.87 45.4163C498.632 35.452 507.424 32.9957 515.874 32.2084ZM519.086 102.226C520.046 102.169 521.309 102.217 522.044 101.673C522.599 97.2596 522.242 83.7675 522.242 79.1299C522.242 74.9734 522.648 44.9636 521.876 43.7511C520.976 43.0789 520.681 43.0575 519.561 42.8458C518.744 43.0682 517.292 43.347 516.817 44.1498C516.021 45.4937 515.996 97.5842 516.887 101.465C517.421 102.113 518.223 102.102 519.086 102.226Z" fill="black"/>
<path d="M372.399 32.2182C378.281 31.6283 387.506 32.6715 392.178 36.6124C397.801 41.3546 396.441 49.5659 396.46 56.4243L396.502 76.9271C396.512 84.1644 396.56 91.4103 396.484 98.6476C396.429 103.696 395.417 106.58 391.181 109.499C386.994 112.384 382.566 113.126 377.641 113.456C367.086 113.859 353.067 113.157 352.747 99.4266C352.296 83.3988 352.857 67.2017 352.802 51.1907C352.756 36.5566 358.072 33.1019 372.399 32.2182ZM374.603 102.403C375.558 102.245 376.397 102.24 376.982 101.498C377.806 98.0403 377.738 45.0979 377.055 43.8741C376.695 43.2305 376.07 42.974 375.375 42.8636C374.957 42.7974 374.512 42.8053 374.088 42.7998C372.99 43.0356 372.405 43.0533 371.712 43.9077C371.347 44.6428 371.237 45.2605 371.237 46.0779C371.206 63.5948 371.203 81.1294 371.353 98.6451C371.377 101.387 371.722 102.163 374.603 102.403Z" fill="black"/>
<path d="M452.23 32.7618L476.803 32.723C481.735 32.7102 489.02 32.4943 493.725 32.9686C494.061 42.026 493.802 52.3702 493.817 61.5084L493.799 112.859C487.626 112.839 481.451 112.892 475.279 113.017C475.032 92.5882 475.248 71.8277 475.279 51.3749C475.294 48.63 475.251 45.8851 475.144 43.142L468.753 43.0432L468.679 84.1656C468.685 109.462 472.848 115.945 443.011 113.154C442.792 110.033 442.901 105.327 442.877 102.087C446.076 102.212 447.265 102.265 450.379 101.508C451.169 93.0168 450.025 34.6715 451.016 33.0509L452.23 32.7618Z" fill="black"/>
<path d="M242.875 32.8131C247.844 32.5389 260.756 32.4852 265.493 32.901C267.941 49.7386 271.591 67.8271 274.595 84.6553L277.639 102.154C278.195 105.37 278.85 109.888 279.726 112.931C274.457 112.61 266.363 112.978 260.701 112.899C260.078 107.511 259.302 102.143 258.372 96.8007L257.553 91.4189C255.069 91.6269 251.512 91.615 249.069 91.432C247.797 98.1007 247.002 105.849 245.732 112.883C239.58 112.739 233.761 112.933 227.463 112.681C227.967 106.746 230.109 96.8224 231.185 90.6551L238.573 48.9104C239.43 44.2777 240.059 38.5683 241.191 33.9176C241.352 33.2563 242.279 33.0343 242.875 32.8131ZM254.533 80.3127L255.605 80.1601C256.102 79.2149 254.197 63.2844 253.938 61.3039L253.445 60.6362C251.948 66.0369 251.9 71.9019 251.146 77.4494C250.703 80.7037 251.564 80.3761 254.533 80.3127Z" fill="black"/>
<path d="M545.773 32.7648C552.131 32.4287 560.224 32.681 566.628 32.7664C572.517 33.0802 581.736 33.1046 585.984 37.745C589.482 41.922 588.665 48.5709 588.777 53.5946C589.314 77.6287 590.565 84.5012 564.042 83.4977L563.89 88.1502C563.881 95.6785 563.591 105.472 564.012 112.82C557.962 112.982 551.844 112.77 545.739 112.959C544.97 94.7 546.172 75.6039 545.708 57.2616C545.513 49.4527 545.41 40.5384 545.773 32.7648ZM563.972 72.3551C565.125 72.0053 567.366 71.3815 568.361 70.9084C570.038 69.3509 570.495 66.9827 570.376 64.0136C570.178 59.0396 571.297 49.7577 569.096 45.4801C568.769 44.8456 564.884 43.9836 563.969 43.8702C563.783 53.0014 563.664 63.2505 563.972 72.3551Z" fill="black"/>
<path d="M200.051 32.2119C206.113 31.406 215.93 32.3198 220.55 36.8873C225.595 41.8744 224.168 53.289 224.274 60.2146C218.431 60.2701 212.373 60.4522 206.55 60.3512C206.432 57.3711 206.842 45.0268 205.805 43.082C204.961 42.5845 202.777 42.9359 201.978 43.4267C200.049 46.5306 201.897 85.836 201.157 92.444C200.985 93.9758 201.387 100.294 201.643 102.079C202.741 102.127 205.771 102.276 205.952 101.568C206.998 97.4766 206.474 84.7794 206.568 80.9397L212.142 80.9309C216.178 80.9596 220.214 80.9306 224.249 80.8433C224.197 84.7461 224.397 99.8948 223.803 102.641C223.467 104.236 222.754 105.726 221.724 106.988C215.068 115.158 194.341 115.511 186.167 109.198C183.377 107.186 182.039 103.529 181.97 100.057C181.609 81.9265 181.275 63.1529 182.163 45.0653C182.621 35.7434 192.054 32.8149 200.051 32.2119Z" fill="black"/>
<path d="M401.568 32.8C413.986 32.6972 427.782 32.4666 440.123 32.8192C440.377 36.1967 440.251 39.5502 440.157 42.9307C436.668 43.0457 433.058 43.0488 429.56 43.0951C429.093 62.8 429.487 83.9867 429.502 103.803L429.474 112.915C423.296 112.808 416.816 112.911 410.613 112.918C409.954 96.8394 410.881 80.3386 410.579 64.2254C410.448 57.2177 410.799 50.1025 410.488 43.0997C406.956 43.1095 403.422 43.0503 399.894 42.9228C399.927 40.4192 399.448 35.9737 400.122 33.5168C400.266 32.9943 400.973 32.9546 401.568 32.8Z" fill="black"/>
<path d="M465.331 122.352C468.109 122.071 470.588 122.124 473.36 122.247C473.671 127.184 474.12 134.335 473.263 139.076C471.866 139.148 470.168 139.115 468.746 139.121C468.594 136.879 468.612 134.132 468.567 131.85C468.692 131.091 468.908 130.427 468.594 129.77C467.618 130.543 465.618 137.438 465.056 139.173C463.742 139.201 462.126 139.128 460.784 139.101C458.951 134.627 458.332 132.071 456.978 127.44C457.137 131.234 456.993 135.27 456.914 139.087L452.029 139.133C451.812 134.349 451.724 128.503 451.959 123.688C452.01 122.628 452.184 122.573 452.834 122.097C455.036 122.275 457.988 122.242 460.324 122.351C461.214 126.296 461.797 128.261 463.199 131.966C463.821 128.679 464.724 125.868 465.331 122.352Z" fill="black"/>
<path d="M435.701 122.135C438.614 121.978 441.81 121.656 444.512 122.891C446.469 123.771 447.982 125.415 448.693 127.44C450.464 132.396 447.982 137.477 442.959 139.131C439.751 139.423 436.622 139.768 433.53 138.427C427.071 135.628 427.532 125.029 434.088 122.69C434.622 122.5 435.159 122.313 435.701 122.135ZM440.529 135.148C444.652 133.093 443.819 125.853 437.641 126.36C433.838 128.781 434.344 135.798 440.529 135.148Z" fill="black"/>
<path d="M565.406 122.106C567.61 122.243 568.498 122.267 570.681 122.017C570.876 125.166 570.916 127.636 570.873 130.793C573.353 128.174 575.503 125.117 577.637 122.206C579.211 122.274 581.474 122.156 583.096 122.12C583.425 126.15 583.447 134.837 583.194 138.942C581.788 139.383 579.595 139.234 578.076 139.206C577.79 136.438 577.756 133.286 577.659 130.479C575.317 133.297 572.92 137.787 569.394 139.075C568.803 139.291 566.079 139.198 565.308 139.183C565.131 136.367 565.052 124.51 565.406 122.106Z" fill="black"/>
<path d="M548.617 130.984C550.383 128.961 551.789 126.96 553.387 124.814C555.744 121.642 557.678 121.987 561.169 122.306C561.34 124.983 561.52 136.825 560.95 139.11L555.869 139.233C555.674 136.247 555.54 133.257 555.467 130.265C553.082 133.009 550.889 136.594 548.285 139.134L543.269 139.197C542.793 135.533 542.942 126.011 543.003 122.03L548.267 122.257C548.505 125.027 548.532 128.179 548.617 130.984Z" fill="black"/>
<path d="M532.391 122.063C534.474 122.209 536.563 122.192 538.642 122.012C539.011 124.793 539.283 136.262 538.673 138.676C538.02 139.3 538.045 139.091 536.858 139.113L532.623 139.166C532.315 136.911 532.33 134.67 532.296 132.396C530.479 132.482 528.286 132.383 526.438 132.346L526.106 139.155L520.028 139.127C520.36 134.769 519.714 126.074 520.372 122.743C521.062 122.108 521.092 122.293 522.217 122.144L526.185 122.105C526.157 123.921 526.365 126.33 526.475 128.188C528.515 128.06 530.238 128.041 532.284 128.053L532.391 122.063Z" fill="black"/>
<path d="M477.386 122.04C478.926 122.257 493.741 122.222 495.686 122.151C495.805 127.807 495.775 133.465 495.601 139.119C493.689 139.195 491.597 139.098 489.67 139.046L489.554 133.346C489.529 131.137 489.484 128.928 489.417 126.72C487.52 126.644 485.431 126.666 483.519 126.647L483.198 138.999C481.561 139.167 479.21 139.143 477.511 139.171C477.264 133.538 477.365 127.693 477.386 122.04Z" fill="black"/>
<path d="M358.776 122.239C364.701 122.113 370.63 122.049 376.558 122.047L376.607 139.16L370.678 139.178C370.538 136.949 370.52 134.405 370.453 132.148C370.447 130.265 370.373 128.483 370.285 126.603L364.006 126.64C363.966 130.659 364.018 135.221 363.713 139.182L358.407 139.161C358.303 136.452 357.474 123.885 358.776 122.239Z" fill="black"/>
<path d="M336.029 122.029C338.146 122.343 351.238 122.16 354.135 122.171C354.159 124.705 354.641 137.617 353.561 138.895C352.177 139.31 349.917 139.188 348.401 139.177C348.042 136.733 348.185 133.653 348.218 131.139C348.273 129.405 348.173 128.16 348.032 126.433C346.023 126.574 344.013 126.691 342.003 126.784C341.68 130.775 342.132 134.95 341.668 139.188L336.347 139.182C336.051 134.181 335.883 127.022 336.029 122.029Z" fill="black"/>
<path d="M505.286 122.108C507.796 122.035 509.061 122.055 511.516 122.428C514.041 127.907 516.588 133.325 518.402 139.086C517.311 139.085 516.011 139.145 514.929 139.258C512.16 139.546 512.105 138.298 510.958 136.533L510.858 136.382C509.132 136.376 505.984 136.101 504.816 137.225C502.169 139.775 500.895 139.188 497.324 138.9C499.382 134.981 502.764 123.991 505.286 122.108ZM508.683 132.377L509.205 132.202C509.33 131.174 508.616 128.679 507.86 128.009C507.271 129.415 506.408 130.771 506.762 132.06C507.412 132.387 507.967 132.353 508.683 132.377Z" fill="black"/>
<path d="M416.763 128.707C420.636 122.784 419.566 122.075 427.202 122.016C427.226 122.397 427.336 124.523 427.211 124.667C424.921 127.299 423.878 127.224 422.21 130.545C424.204 131.808 425.296 133.978 426.525 135.992L427.626 139.167C425.385 139.187 423.143 139.156 420.902 139.074C420.231 137.637 418.788 134.256 417.599 133.297L417.16 133.437C416.404 134.793 416.382 137.47 416.242 139.132L410.701 139.163C410.606 136.569 410.161 123.713 410.93 122.2C412.698 122.112 414.711 122.16 416.501 122.166C416.776 124.314 416.745 126.537 416.763 128.707Z" fill="black"/>
<path d="M386.561 122.153C389.031 122.102 390.327 122.07 392.751 122.426C394.987 126.79 398.481 134.399 399.344 139.111L393.386 139.101C392.998 137.804 392.922 137.467 392.151 136.372L386.28 136.455C384.46 140.005 382.645 139.029 378.955 139.127C380.111 135.826 384.225 124.045 386.561 122.153ZM389.266 132.514L390.412 132.371C390.711 131.691 389.93 128.136 389.705 127.444C388.744 128.955 387.814 130.065 387.933 131.849C388.448 132.394 388.494 132.282 389.266 132.514Z" fill="black"/>
<path d="M299.023 121.972C303.359 122.642 314.216 120.168 314.932 126.336C315.539 131.571 312.264 132.588 307.897 132.923L304.561 133.102C304.829 135.35 304.71 136.956 304.448 139.183L299.169 139.179C298.815 134.97 298.843 126.242 299.023 121.972ZM308.483 128.971C308.842 128.031 308.821 127.884 308.708 126.887C307.574 125.415 306.699 125.696 304.963 125.76C304.756 126.782 304.561 127.386 304.768 128.403C305.826 129.409 307.086 129.077 308.483 128.971Z" fill="black"/>
<path d="M316.469 122.073C318.537 122.262 320.611 122.238 322.687 122.245C323.581 124.166 324.395 126.289 325.319 128.296C326.146 126.754 327.124 124.058 327.801 122.354C329.72 122.2 331.854 122.145 333.791 122.066C332.745 125.712 330.683 129.472 328.939 132.865C327.359 136.069 325.667 139.801 321.242 139.582C319.36 139.489 317.674 138.518 317.951 136.407C318.735 135.484 320.952 135.352 322.602 134.925C321.315 132.386 316.808 124.271 316.469 122.073Z" fill="black"/>
<path d="M281.144 122.05C283.917 122.389 294.991 121.713 296.083 122.5C298.062 129.398 290.956 125.326 287.356 127.05C286.632 127.99 286.865 127.875 286.824 129.309C286.855 132.614 286.807 135.92 286.681 139.223L281.333 139.172C281.131 133.467 281.068 127.758 281.144 122.05Z" fill="black"/>
<path d="M578.192 117.744L578.47 118.099C578.647 119.272 578.772 119.029 578.393 120.027C576.521 121.941 572.453 121.352 570.279 120.215C570.187 119.458 570.178 119.327 570.312 118.578C572.474 117.712 573.005 121.098 578.192 117.744Z" fill="black"/>
</svg>
