<svg width="5666" height="881" viewBox="0 0 5666 881" fill="none" xmlns="http://www.w3.org/2000/svg">
<path d="M2369.21 11.7789L2369.21 875.421L2349.21 875.42L2349.21 11.7779L2369.21 11.7789ZM3079 53.4068C3182.65 1.55118 3186.2 4.39121 3191.17 7.94293L3191.88 8.65387L3193.3 10.0748C3201.11 22.151 3194.72 38.4887 3184.07 45.5923C3182.65 47.0129 3181.23 47.7236 3179.1 49.1441C3179.81 49.1444 3179.81 49.855 3179.81 49.855C3181.94 51.9861 3182.65 55.538 3183.36 58.3795C3207.5 47.724 3225.25 39.9098 3230.92 36.358C3252.22 22.8613 3259.32 20.7298 3262.87 24.9918C3269.26 32.8058 3252.22 42.7514 3240.86 49.855C3239.44 50.5654 3238.73 51.2756 3238.02 51.9859C3238.02 51.9859 3293.4 24.282 3297.66 29.2545C3304.76 37.7788 3284.17 51.2753 3267.84 62.6412C3260.74 67.6137 3246.54 73.2966 3234.47 78.2691C3234.65 78.2104 3277.08 64.0683 3282.04 66.9039C3287.01 69.7456 3286.3 79.6909 3260.03 92.4771C3246.54 98.8704 3225.24 105.263 3207.5 110.236C3207.55 110.228 3243.7 105.269 3240.15 112.367C3233.76 125.864 3190.46 137.23 3184.07 139.361C3190.46 137.94 3229.5 127.995 3215.31 140.782C3202.53 152.148 3165.61 161.383 3151.41 164.224C3151.41 164.224 3188.33 157.12 3185.49 162.092C3181.94 168.486 3130.11 184.114 3130.11 184.114C3130.11 184.114 3159.22 174.879 3154.96 183.404C3152.12 188.376 3134.37 197.611 3121.59 206.845C3113.78 211.818 3108.1 217.501 3107.39 223.184C3105.26 237.391 3105.26 250.178 3105.26 260.834C3105.26 272.178 3105.97 299.089 3105.97 299.193L3108.81 317.663L3113.78 338.974L3110.23 353.891C3110.23 353.891 3115.2 368.099 3114.49 371.651C3113.79 374.481 3113.78 381.537 3113.78 381.595L3118.75 395.803C3118.77 395.864 3120.87 402.922 3118.75 406.459L3116.62 410.01L3120.17 422.796C3120.17 422.796 3120.88 425.638 3118.75 431.321C3116.62 437.004 3117.33 430.611 3116.62 437.004C3115.91 443.398 3114.49 441.977 3115.2 446.95C3115.91 451.922 3119.46 456.184 3118.04 461.157C3116.62 466.129 3122.3 454.053 3116.62 466.129C3110.94 478.916 3110.23 481.757 3110.23 481.757C3110.28 481.789 3117.32 486.743 3113.78 490.992C3110.23 495.254 3108.1 491.703 3108.1 498.806C3108.1 505.199 3108.1 502.358 3107.39 508.752C3105.97 515.144 3105.26 514.434 3104.55 517.986C3103.84 520.827 3107.39 523.669 3105.97 526.51C3103.84 529.352 3104.55 532.904 3104.55 532.904L3103.13 535.745C3101.71 538.586 3102.42 530.772 3101.71 538.586L3101 546.401C3101 546.401 3102.42 545.69 3098.87 552.084C3094.61 558.477 3093.9 561.318 3093.9 564.87C3093.9 568.422 3097.45 569.132 3093.19 576.236C3088.93 584.05 3082.54 584.76 3079.71 590.443C3076.87 596.126 3069.77 618.148 3086.8 647.273C3103.84 676.398 3120.88 693.446 3133.66 701.97C3147.15 710.495 3228.79 748.145 3232.34 752.407C3235.19 756.669 3253.64 763.773 3257.19 777.98C3259.32 794.996 3264.27 807.767 3264.29 807.815C3264.29 807.815 3200.4 821.312 3191.17 812.788C3181.94 804.263 3151.41 760.221 3117.33 755.959C3101 753.827 3028.59 750.986 2968.95 724.703C2949.07 716.178 2930.62 705.523 2915 694.157C2884.47 708.364 2850.39 715.467 2814.89 715.467C2677.87 715.467 2566.41 603.94 2566.41 466.839C2566.41 441.266 2570.67 417.113 2577.77 393.671C2575.64 395.092 2572.8 395.092 2570.67 392.961C2568.54 390.83 2567.83 387.279 2569.96 384.437L2607.59 331.87V331.16L2565.7 333.291C2562.86 333.291 2560.02 330.449 2559.31 327.608C2559.31 324.056 2561.44 321.215 2564.28 320.504L2608.3 308.428L2577.06 275.752C2574.93 273.621 2574.93 270.068 2577.06 267.227C2579.19 264.386 2582.74 263.675 2585.58 265.806L2617.53 287.117L2613.98 213.239C2613.98 210.397 2616.82 207.556 2619.66 206.845C2623.21 206.845 2626.05 208.977 2626.76 211.818L2647.35 286.407C2649.48 284.276 2652.32 282.144 2654.45 280.013L2690.65 243.785C2692.78 241.654 2696.33 241.654 2699.17 243.785C2700.59 245.205 2701.3 246.626 2701.3 248.046C2736.09 229.577 2775.14 218.921 2817.02 218.921C2841.87 218.921 2866.72 223.184 2890.15 230.288C2889.44 216.791 2889.44 203.294 2889.44 191.217V188.377C2889.44 162.093 2908.61 142.202 2925.65 132.967C2959.01 114.498 3021.49 82.5317 3079 53.4068ZM668.694 559.749L457.91 768.569V558.87L249.784 768.569H39V347.388L249.784 138.569V348.266L457.91 138.569H668.694V559.749ZM2814.89 245.206C2758.1 245.206 2706.27 267.227 2667.23 303.456L2702.72 301.325C2705.56 301.325 2708.4 304.166 2709.11 307.007C2709.11 310.559 2706.98 313.401 2704.14 314.111L2660.13 326.897L2692.07 360.285C2694.2 362.416 2694.2 365.968 2692.07 368.809C2689.94 370.94 2686.39 371.651 2683.55 370.23L2653.03 350.339L2656.58 416.404C2656.58 419.245 2653.74 422.086 2650.9 422.796H2650.19C2647.35 422.796 2644.51 420.666 2643.8 417.825L2626.05 353.891C2607.59 385.858 2596.94 422.797 2596.94 462.578C2596.94 581.919 2694.2 679.95 2813.47 679.95C2836.19 679.95 2857.49 676.398 2878.08 670.004C2861.75 656.508 2852.52 646.562 2852.52 646.562C2852.4 646.427 2796.42 581.912 2780.82 574.815C2765.2 567.001 2752.42 547.821 2746.74 540.717C2741.77 533.613 2697.75 516.565 2697.75 516.565C2697.75 516.565 2715.5 505.199 2726.86 506.62C2737.51 508.041 2747.45 517.986 2754.55 517.986C2761.65 518.696 2782.95 514.434 2787.92 515.144C2805.67 516.565 2819.15 535.744 2821.99 539.296C2824.83 542.848 2844 557.055 2863.88 559.897C2872.4 560.607 2902.93 565.58 2915.71 551.374C2917.84 548.532 2919.97 546.4 2921.39 544.269C2920.68 536.455 2919.26 525.089 2917.84 511.592C2916.42 493.833 2914.29 473.943 2911.45 454.053L2910.03 442.687C2903.64 395.093 2894.41 323.346 2890.15 258.703C2866.72 250.178 2841.16 245.206 2814.89 245.206ZM1538.88 236.298C1606.57 236.298 1665.57 267.584 1705.49 314.511L1639.54 380.558C1627.39 366.654 1594.42 335.368 1544.09 335.368C1462.53 335.368 1433.02 401.415 1433.02 453.556C1433.02 519.603 1472.94 571.744 1545.83 571.744C1590.95 571.744 1625.66 547.411 1646.48 516.126L1712.43 582.172C1674.25 636.052 1610.04 670.813 1538.88 670.813C1419.14 670.813 1325.43 573.483 1325.42 453.556C1325.42 324.94 1419.14 236.298 1538.88 236.298ZM1284.87 663.569H1175.79V338.863H1008.66V663.569H899.582V243.569H1284.87V663.569ZM2063.38 337.493H1859.31V401.289H1950.2C2035.94 401.289 2097.68 443.822 2095.96 532.429C2095.96 621.037 2034.23 663.569 1953.63 663.569H1751.27V243.569H2063.38V337.493ZM3431.84 308.428C3457.4 308.428 3480.12 311.98 3504.96 319.794L3502.12 376.624C3482.96 369.52 3461.66 364.547 3436.81 364.547C3362.97 364.547 3318.96 411.431 3318.25 479.627C3318.25 559.187 3372.2 591.864 3431.84 591.864C3460.95 591.864 3484.38 584.05 3500.7 576.947L3504.96 633.065C3475.86 643.01 3446.04 647.273 3419.77 647.273C3338.13 647.273 3247.96 600.388 3247.96 479.627C3247.96 365.258 3328.19 308.428 3431.84 308.428ZM3742.09 549.953L3823.73 312.691H3936.61V643.01H3869.88V360.285H3869.17L3774.03 643.01H3710.14L3615.01 360.285H3614.3V643.01H3547.56V312.691H3661.15L3742.09 549.953ZM4258.22 643.01H4191.48V367.388H4060.85V643.01H3993.41V312.691H4258.22V643.01ZM4629.52 371.651H4485.4V440.556H4539.36C4635.91 440.556 4656.5 504.489 4656.5 547.111C4656.5 581.919 4633.07 643.01 4538.65 643.01H4417.96V312.691H4629.52V371.651ZM5002.96 643.01H4927.7L4900.01 568.422H4763.7L4735.3 643.01H4663.6L4794.94 312.691H4871.61L5002.96 643.01ZM5100.22 446.239H5234.4V312.691H5301.13V643.01H5234.4V500.227H5100.22V643.01H5033.48V312.691H5100.22V446.239ZM5418.27 454.053H5419.69L5538.97 312.691H5619.19L5481.46 462.578L5627 643.01H5542.51L5419.69 478.917H5418.27V643.01H5351.54V312.691H5418.27V454.053ZM4485.4 591.154H4527.29C4564.92 591.154 4586.21 574.815 4586.21 541.428C4586.21 508.041 4564.21 491.703 4527.29 491.703H4485.4V591.154ZM1859.31 574.961H1939.91C1965.63 574.961 1989.64 564.328 1991.35 534.202C1991.35 502.303 1965.63 491.669 1939.91 491.669H1859.31V574.961ZM249.784 557.978H457.91V349.159H249.784V557.978ZM4784.29 514.434H4879.42L4831.15 379.464H4830.44L4784.29 514.434ZM3179.81 23.5709C3151.41 32.806 3012.26 103.132 2930.62 147.885C2917.13 154.989 2902.22 170.617 2902.22 190.507V192.638C2902.22 267.937 2915.71 375.912 2924.23 439.845L2925.65 451.211C2927.78 469.681 2929.91 488.861 2932.04 505.91C2937.01 471.812 2939.14 415.693 2939.14 415.693C2939.16 415.487 2949.08 315.463 2958.3 248.757C2961.14 226.736 2963.98 206.846 2967.53 190.507C2968.24 189.797 2968.24 189.087 2968.24 188.377V186.956C2971.08 174.879 2973.92 164.934 2976.76 158.541C2977.47 157.12 2978.18 155.699 2978.89 154.279C2986.7 145.754 3066.93 110.236 3110.94 91.0562C3129.4 82.5318 3147.86 74.7175 3164.9 67.6138C3165.61 65.4829 3164.9 64.0619 3164.9 62.6412C3161.35 63.3515 3153.54 65.4829 3146.44 69.0347H3145.73L3139.34 71.1656L3136.5 64.772C3133.66 58.3791 3139.34 54.8271 3141.47 54.1168C3142.89 53.4064 3144.31 52.6966 3146.44 51.2759C3154.96 46.3034 3167.74 38.4889 3173.42 34.9371C3176.26 32.8059 3179.81 28.5432 3179.81 23.5709Z" fill="black"/>
</svg>
